<svg width="160" height="163" viewBox="0 0 160 163" fill="none" xmlns="http://www.w3.org/2000/svg">
<ellipse cx="25.5056" cy="128.439" rx="23" ry="11.5" transform="rotate(19.2471 25.5056 128.439)" fill="#F4F4F4"/>
<g clip-path="url(#how_works_clip_path_0)">
<path d="M160 138.81L118.56 163L22.8926 107.638L65.3037 82.6362L160 138.81Z" fill="#E5E5E5"/>
<path d="M121.636 134.914V139.622L99.2974 152.61V147.902L121.636 134.914Z" fill="#95C4DE"/>
<path d="M99.2972 147.902V152.61L46.3643 121.925V117.38L99.2972 147.902Z" fill="#A9D6EA"/>
<path d="M121.636 134.914L99.2972 147.902L46.3643 117.38L68.7029 104.392L121.636 134.914Z" fill="#DEF6FF"/>
<path opacity="0.5" d="M121.636 134.913L46.3643 117.38L68.7029 104.392L121.636 134.913Z" fill="#DEF6FF"/>
<path d="M101.079 139.459L104.964 137.024L105.125 95.6248L101.24 98.06L101.079 139.459Z" fill="#95C4DE"/>
<path d="M101.24 98.0599L105.125 95.6246L69.1892 74.8438L65.3042 77.1167L101.24 98.0599Z" fill="#C0C5D1"/>
<path d="M65.304 77.1165L65.1421 118.516L101.078 139.459L101.24 98.0597L65.304 77.1165Z" fill="#A9D6EA"/>
<path d="M137.176 144.167L141.061 143.031L157.572 61.8557L153.687 62.9922L137.176 144.167Z" fill="#95C4DE"/>
<path d="M153.687 62.992L157.572 61.8556L50.7346 0L46.8496 1.13645L153.687 62.992Z" fill="#A9D6EA"/>
<path d="M46.8503 1.13623L30.501 82.3115L137.176 144.167L153.687 62.9918L46.8503 1.13623Z" fill="#DEF6FF"/>
<path d="M49.764 7.46826L35.1953 80.6884L134.101 138.16L149.155 63.9663L49.764 7.46826Z" fill="url(#how_works_gradient_1)"/>
<path d="M62.2276 24.0276L61.5801 26.7875L77.2819 35.8792L77.7675 33.1192L62.2276 24.0276Z" fill="#649DD5"/>
<path d="M83.5953 103.742L47.3354 82.7987L55.2673 47.8933L91.5271 68.8365L83.5953 103.742ZM53.1629 68.8365L83.9191 86.6951L87.4803 70.9471L56.7242 53.0885L53.1629 68.8365Z" fill="#649DD5"/>
<path d="M58.0191 35.5547L57.3716 38.1523L93.6314 59.2579L94.117 56.4979L58.0191 35.5547Z" fill="#649DD5"/>
<path d="M104.801 67.2129L104.315 69.4858L125.844 81.9868L126.33 79.7139L104.801 67.2129Z" fill="#649DD5"/>
<path d="M105.934 62.3425L105.287 64.4531L126.978 76.9541L127.463 74.8435L105.934 62.3425Z" fill="#649DD5"/>
<path d="M118.722 125.821L91.0415 109.911L103.182 56.1731L130.863 72.0835L118.722 125.821ZM95.4121 108.612L117.103 121.113L120.665 105.528L98.9733 93.0267L95.4121 108.612ZM101.725 80.3633L123.416 92.8643L123.902 90.5914L102.211 78.0904L101.725 80.3633ZM105.286 64.453L126.978 76.954L127.463 74.6811L105.772 62.1801L105.286 64.453ZM102.858 75.4928L124.549 87.9938L125.035 85.7209L103.344 73.2199L102.858 75.4928ZM104.315 69.4858L126.006 81.9868L126.492 79.7139L104.801 67.2129L104.315 69.4858Z" fill="#8FC1EA"/>
<path d="M56.7242 41.5615L56.0767 44.1591L92.3365 65.1024L92.8221 62.5048L56.7242 41.5615Z" fill="#649DD5"/>
<path d="M92.9839 41.8862L92.3364 44.6462L131.834 67.5376L132.481 64.6153L92.9839 41.8862Z" fill="#649DD5"/>
<g opacity="0.8">
<g opacity="0.8">
<path opacity="0.8" d="M42.9648 85.2339L120.826 130.367L136.043 62.8295L58.181 17.696L42.9648 85.2339ZM56.0767 44.1592L56.7242 41.5616L92.984 62.5048L92.3365 65.1024L69.3504 51.7897L56.0767 44.1592ZM58.0192 35.5546L94.279 56.4978L93.6315 59.0954L57.3717 38.1522L58.0192 35.5546ZM58.5048 33.2817L59.1523 30.6841L95.4121 51.6273L94.7646 54.2249L58.5048 33.2817ZM133.776 63.8036L132.481 69.8106L59.7998 27.5994L61.0948 21.5925L133.776 63.8036ZM118.722 125.822L91.0415 109.911L103.182 56.1731L130.863 72.0835L118.722 125.822ZM91.5271 68.8365L83.5953 103.742L47.3354 82.7986L55.2673 47.8932L91.5271 68.8365Z" fill="#649DD5"/>
</g>
</g>
<path d="M53.1626 68.8364L56.7238 53.0884L87.4799 70.7846L83.9187 86.5326L53.1626 68.8364Z" fill="#8FC1EA"/>
<path d="M59.1524 30.6841L58.5049 33.2817L94.7647 54.2249L95.2504 51.6273L59.1524 30.6841Z" fill="#649DD5"/>
<path d="M98.9733 93.0266L95.4121 108.612L117.103 121.113L120.503 105.528L98.9733 93.0266Z" fill="#649DD5"/>
<path d="M132.481 69.6481L59.7998 27.5993L61.0948 21.5923L133.776 63.6411L132.481 69.6481ZM92.3365 44.6461L131.834 67.5375L132.481 64.7775L92.984 41.8861L92.3365 44.6461ZM61.5804 26.7875L77.2822 35.8791L77.9297 33.1192L62.2279 24.0275L61.5804 26.7875Z" fill="#8FC1EA"/>
<path d="M103.344 73.22L102.858 75.4929L124.55 87.9939L125.035 85.721L103.344 73.22Z" fill="#649DD5"/>
<path d="M102.211 78.2529L101.725 80.3635L123.416 92.8645L123.902 90.7539L102.211 78.2529Z" fill="#649DD5"/>
<path d="M33.4143 31.6583C24.9968 62.3425 16.5794 93.0268 8.00002 123.711C7.35253 126.146 11.0756 127.283 11.885 124.685C20.3025 94.1633 28.7199 63.479 37.2993 32.7947C37.9468 30.3595 34.0618 29.223 33.4143 31.6583Z" fill="#DEF6FF"/>
<path d="M53.3247 42.0488C44.9072 72.733 36.4898 103.417 28.0723 134.102C27.4248 136.537 31.1479 137.673 31.9573 135.076C40.3747 104.391 48.7922 73.7071 57.2097 43.0229C57.8572 40.5876 54.1341 39.4511 53.3247 42.0488Z" fill="#DEF6FF"/>
<path d="M30.8246 46.9193C37.2996 50.9781 43.7745 54.8745 50.4114 58.9333C52.5157 60.2321 54.4582 56.8227 52.3539 55.5239C45.8789 51.4651 39.4039 47.5687 32.7671 43.51C30.6627 42.2112 28.5583 45.6205 30.8246 46.9193Z" fill="#DEF6FF"/>
<path d="M27.1012 62.3427C33.2524 66.2391 39.2417 70.1355 45.393 74.0319C47.4973 75.3307 49.4398 72.0837 47.3355 70.6225C41.1842 66.7261 35.1949 62.8297 29.0437 58.9333C26.9393 57.6345 24.9968 61.0439 27.1012 62.3427Z" fill="#DEF6FF"/>
<path d="M23.2164 79.714C29.2058 83.2857 35.357 86.8574 41.3463 90.4291C43.4507 91.728 45.5551 88.3186 43.2888 87.0198C37.2995 83.4481 31.1482 79.8764 25.1589 76.3046C23.0545 75.0058 21.112 78.4152 23.2164 79.714Z" fill="#DEF6FF"/>
<path d="M18.6837 92.702C24.8349 96.5985 30.8243 100.333 36.9755 104.229C39.0799 105.528 41.0224 102.118 38.918 100.82C32.7668 96.9232 26.7774 93.1891 20.6262 89.2927C18.5218 87.9939 16.5793 91.4032 18.6837 92.702Z" fill="#DEF6FF"/>
<path d="M14.7984 108.775C20.7878 112.347 26.7771 116.081 32.7665 119.652C34.8709 120.951 36.8133 117.542 34.709 116.243C28.7196 112.671 22.7303 108.937 16.7409 105.365C14.6366 104.067 12.6941 107.476 14.7984 108.775Z" fill="#DEF6FF"/>
<path d="M55.4293 48.2182L55.9149 49.03L54.6199 48.0559L54.1343 47.2441L55.4293 48.2182Z" fill="#0D2445"/>
<path d="M25.8064 102.768C25.8064 102.768 27.9108 103.255 27.2633 104.554C26.6158 105.853 23.8639 107.476 23.3783 108.288C22.8927 109.1 20.6264 111.697 19.9789 111.373C19.3314 111.048 17.5508 111.21 18.0364 107.963C18.8458 104.716 22.8927 102.281 25.8064 102.768Z" fill="#111114"/>
<path d="M28.5582 115.107C28.5582 115.107 27.1014 118.191 29.6913 119.165C32.2813 120.14 31.6338 118.354 37.2994 120.464C42.965 122.575 43.7744 119.652 43.9363 118.841C44.0982 117.217 40.0513 116.568 38.9182 116.081C37.6232 115.594 35.1951 114.133 35.1951 114.133H28.3964L28.5582 115.107Z" fill="#111114"/>
<path d="M23.0543 59.0955C23.0543 59.0955 21.1118 78.0905 20.7881 80.3634C20.6262 82.4739 16.5793 99.0337 17.2268 106.664C17.2268 106.664 20.9499 111.21 24.9968 107.476C24.9968 107.476 28.3962 86.3704 29.853 81.6622C31.4718 76.954 32.6049 62.3425 32.6049 62.3425L23.0543 59.0955Z" fill="#2B3C4B"/>
<path d="M30.1771 62.505C30.1771 62.505 29.8534 74.8436 29.5297 87.1823C29.5297 87.1823 27.5872 111.535 27.9109 115.107C27.9109 115.107 35.519 117.867 36.6521 114.295C36.6521 114.295 38.5946 92.8646 39.2421 88.4811C39.8896 84.0976 41.6702 71.5966 40.5371 64.2908C39.5659 56.8227 30.1771 62.505 30.1771 62.505Z" fill="#2B3C4B"/>
<path d="M27.9103 115.107C27.7484 111.535 29.5291 87.1822 29.5291 87.1822C29.6909 78.9024 29.8528 70.6225 30.0147 66.0767L34.709 67.7002C34.709 67.7002 37.299 77.2789 35.3565 90.9163C33.8997 101.469 32.6047 111.86 32.119 116.081C30.0147 115.918 27.9103 115.107 27.9103 115.107Z" fill="#314656"/>
<path d="M17.2268 106.664C16.5793 99.0337 20.6261 82.4739 20.9499 80.201C21.1118 78.0905 22.8924 60.719 23.2161 59.0955L27.1011 62.8295C27.1011 62.8295 27.1011 76.6293 24.9967 84.2598C23.0543 91.2409 22.4068 105.041 21.4355 108.937C18.8455 108.775 17.2268 106.664 17.2268 106.664Z" fill="#314656"/>
<path d="M34.7092 21.1055C34.7092 21.1055 30.9861 19.8067 29.3673 25.976C28.0723 31.0089 27.1011 39.1264 27.7486 42.6981C28.3961 46.1075 30.9861 53.5756 30.9861 53.5756C30.9861 53.5756 35.5185 54.225 35.5185 51.3027L33.0904 40.1005C33.2523 40.1005 39.0798 21.5925 34.7092 21.1055Z" fill="#F4477B"/>
<path d="M34.3856 20.9431C34.3856 20.9431 29.8532 21.4302 29.6913 28.7359C29.5294 36.0417 29.5294 40.7499 28.5582 43.1851C27.5869 45.6204 23.8638 53.4132 22.7307 54.8744C22.7307 54.8744 20.1407 60.0696 31.31 67.5377C31.31 67.5377 41.0225 72.0835 41.67 64.9401C42.3175 57.7967 45.555 46.7569 46.6881 44.3216C47.8212 41.8863 51.2206 37.3405 46.0406 31.6583C40.8606 25.8136 38.5944 22.0796 34.3856 20.9431Z" fill="#FE6190"/>
<path d="M46.6885 44.3218C45.5554 46.757 42.3179 57.6345 41.6704 64.9403C41.1848 69.9732 36.3285 69.3238 33.5767 68.3497C33.7385 65.1027 37.1379 60.3945 37.2998 53.0887C37.4616 44.1594 39.7279 38.9642 42.6416 35.2302C44.5841 32.7949 46.2029 33.2819 47.4979 33.2819C50.4116 38.3148 47.8216 42.0489 46.6885 44.3218Z" fill="#F4477B"/>
<path d="M40.0509 19.3198C40.0509 19.3198 39.2415 22.8915 37.299 24.515C35.5184 26.1386 42.9646 30.6844 43.774 28.8985C43.9359 28.7362 43.4502 25.3268 46.5259 22.4045C48.1446 21.1057 40.0509 19.3198 40.0509 19.3198Z" fill="#EFB185"/>
<path d="M37.2987 24.6772C38.7556 23.3784 39.565 21.1054 39.8887 19.969L44.745 25.0019C44.5831 25.0019 40.2125 24.5148 38.4318 27.1124C37.2987 26.3007 36.6512 25.3266 37.2987 24.6772Z" fill="#DD9569"/>
<path d="M51.5435 13.3129C51.5435 13.3129 51.7054 16.8846 50.5723 19.3199C49.2773 22.0799 49.4392 22.7293 48.9536 24.0281C48.6298 24.5151 48.3061 25.3269 47.6586 25.6516C46.5254 26.1386 44.5829 25.8139 42.4786 24.0281C39.8886 21.9175 38.2698 16.7223 40.8598 13.4753C43.288 10.3906 48.1442 8.76711 51.5435 13.3129Z" fill="#EFB185"/>
<path d="M39.4033 17.6962C41.8314 14.7739 46.202 11.8515 46.202 11.6892C46.202 11.5268 47.497 11.3645 48.792 11.0398C49.7633 11.5268 50.7345 12.1762 51.7058 13.4751C51.7058 13.4751 51.7058 14.4492 51.5439 15.748C50.5726 16.235 48.792 16.7221 48.3064 17.2091C47.1733 18.6703 46.6877 21.1055 46.6877 22.4043C46.8495 23.7031 44.2596 24.5149 44.4214 25.6514V25.8137C43.7739 25.489 42.9646 25.1643 42.3171 24.5149C40.6983 22.729 39.4033 20.1314 39.4033 17.6962Z" fill="#E6A376"/>
<path d="M53.0006 12.3386C53.0006 12.3386 52.515 15.0986 49.4394 15.4233C47.6588 15.5856 46.8494 18.1833 46.6875 18.6703C46.5256 19.1574 46.3638 21.4303 46.04 21.5926C45.5544 21.9173 44.9069 19.9691 44.2594 19.8068C42.6407 19.4821 42.8025 21.1056 43.6119 23.0538C44.4213 25.1643 40.5363 24.3526 39.2413 22.5667C38.5938 21.5926 38.4319 21.1056 37.9463 18.1833C37.4607 13.9621 38.9175 9.74103 43.7738 8.92927C48.7919 8.44222 49.925 12.501 53.0006 12.3386Z" fill="#131C24"/>
<path d="M39.2413 22.7297C38.5938 21.7556 38.4319 21.2685 37.9463 18.3462C37.4607 14.1251 38.9175 9.90396 43.7738 9.0922C48.7919 8.28045 49.925 12.3392 52.8387 12.3392C52.8387 12.3392 52.6769 12.8263 52.515 13.3133C51.0581 12.9886 47.335 12.5016 45.7163 13.638C43.9357 15.0992 42.8025 14.1251 42.155 16.5603C41.5075 18.8332 39.7269 21.5932 43.1263 24.3532C41.3457 25.0026 39.7269 23.5414 39.2413 22.7297Z" fill="#1D2833"/>
<path d="M43.6126 27.762L45.3932 30.8467C45.3932 30.8467 36.4901 30.3596 35.5188 25.4891C35.357 24.8397 36.4901 23.0538 37.947 23.2162C38.1088 23.2162 37.2995 26.6256 43.6126 27.762Z" fill="#DEF0F9"/>
<path d="M55.9146 41.5618C55.9146 41.5618 55.7527 39.6136 56.2383 39.1265C56.7239 38.6395 57.8571 36.6913 57.8571 36.2042C58.0189 35.8795 58.6664 35.2301 58.8283 35.5548C58.9902 35.8795 58.6664 38.4771 58.5046 38.9642C58.3427 39.4512 60.6089 38.6395 60.9327 37.8277C61.4183 37.016 62.0658 36.2042 62.2277 36.5289C62.3896 36.8536 63.3608 38.9642 61.7421 41.0747C60.1233 43.1853 57.8571 43.997 57.8571 43.997L55.9146 41.5618Z" fill="#EFB185"/>
<path d="M44.7456 32.7949C45.8787 32.6326 47.9831 33.1196 48.4687 35.8796C48.9543 38.6396 47.1737 49.6794 47.1737 49.6794L55.5912 41.0748C55.5912 41.0748 58.9905 42.536 58.6668 44.9712C58.6668 44.9712 45.8787 60.0698 44.0981 59.9075C39.5656 59.2581 38.5944 33.769 44.7456 32.7949Z" fill="#F4477B"/>
<path d="M43.9358 59.7449C45.5545 59.9072 58.5045 44.8086 58.5045 44.8086C58.5045 44.3216 58.5045 43.9969 58.3426 43.6722L58.0188 43.0228C58.0188 43.0228 58.0188 42.8604 57.857 42.8604C57.5332 43.1851 47.1732 53.9003 44.0976 56.0108C41.3458 57.959 44.5833 36.3664 45.0689 32.7947C44.907 32.7947 44.7451 32.7947 44.7451 32.7947C38.5939 33.7688 39.5652 59.2578 43.9358 59.7449Z" fill="#FE6190"/>
</g>
<defs>
<linearGradient id="how_works_gradient_1" x1="67.2" y1="14.7628" x2="115.611" y2="125.72" gradientUnits="userSpaceOnUse">
<stop stop-color="#1A6BB2"/>
<stop offset="1" stop-color="#1B4B92"/>
</linearGradient>
<clipPath id="how_works_clip_path_0">
<rect x="8" width="152" height="163" fill="white"/>
</clipPath>
</defs>
</svg>
