<svg width="210" height="183" viewBox="0 0 210 183" fill="none" xmlns="http://www.w3.org/2000/svg">
<path d="M35.3156 64.4395C43.5138 69.0724 43.5138 76.8642 35.5258 81.4971C27.5378 86.13 14.2946 86.13 6.0964 81.4971C-2.1018 76.8642 -2.1018 69.283 6.0964 64.4395C14.0844 59.8066 27.3276 59.8066 35.3156 64.4395Z" fill="#EFEFEF"/>
<path d="M37.2073 33.2726C43.5136 36.8526 43.5136 42.749 37.2073 46.329C30.901 49.909 20.8109 49.909 14.5046 46.329C8.19833 42.749 8.19833 36.8526 14.5046 33.2726C20.8109 29.6927 30.901 29.6927 37.2073 33.2726Z" fill="#F4477B"/>
<path d="M37.2073 33.2726C30.901 29.6927 20.8109 29.6927 14.5046 33.2726C8.19833 36.8526 8.19833 42.749 14.5046 46.329C20.8109 49.909 30.901 49.909 37.2073 46.329C43.5136 42.9596 43.5136 37.0632 37.2073 33.2726ZM35.1052 45.2761C30.0602 48.2243 21.6518 48.2243 16.6067 45.2761C11.5617 42.3279 11.3515 37.4844 16.6067 34.5361C21.6518 31.5879 30.0602 31.5879 35.1052 34.5361C40.1503 37.4844 40.3605 42.3279 35.1052 45.2761Z" fill="#FE6190"/>
<path d="M16.6068 16.4254C16.6068 16.4254 16.3966 16.636 16.6068 16.4254C16.6068 16.636 16.6068 16.636 16.6068 16.636C16.6068 16.636 16.6068 16.8466 16.3966 16.8466C16.3966 16.8466 16.3966 16.8466 16.1864 17.0571C15.9761 17.0571 15.7659 17.2677 15.5557 17.2677C15.3455 17.2677 15.1353 17.4783 14.9251 17.4783C14.7149 17.4783 14.5047 17.4783 14.2945 17.4783C14.0843 17.4783 13.874 17.4783 13.6638 17.2677C13.2434 17.2677 13.0332 17.0571 13.0332 16.636L19.1293 63.3863C19.1293 63.5968 19.3395 63.8074 19.7599 64.018H19.9701H20.1804H20.3906H20.6008H20.811H21.0212H21.2314C21.2314 64.018 21.2314 64.018 21.4416 64.018C21.6518 64.018 21.6518 63.8074 21.862 63.8074C21.862 63.8074 21.862 63.8074 22.0722 63.5968C22.0722 63.5968 22.0722 63.5968 22.0722 63.3863L16.6068 16.4254C16.6068 16.2148 16.6068 16.4254 16.6068 16.4254Z" fill="#73C139"/>
<path d="M15.9756 15.5832C16.6062 16.0044 16.8164 16.6362 16.1858 17.0573C15.5551 17.4785 14.5041 17.6891 13.6632 17.2679C13.0326 17.0573 12.8224 16.4256 13.453 16.0044C14.0837 15.3726 15.1347 15.3726 15.9756 15.5832Z" fill="#4D9B12"/>
<path d="M26.4864 14.3196C26.4864 14.5301 26.4864 14.5301 26.4864 14.5301C26.4864 14.5301 26.4864 14.7407 26.2762 14.7407C26.2762 14.7407 26.2762 14.7407 26.066 14.9513C25.8558 15.1619 25.8558 15.1619 25.6456 15.1619C25.4354 15.1619 25.2251 15.3725 25.0149 15.3725C24.8047 15.3725 24.5945 15.3725 24.3843 15.3725C24.1741 15.3725 23.9639 15.3725 23.7537 15.1619C23.3333 14.9513 23.123 14.7407 23.123 14.5301L29.2191 61.2804C29.2191 61.491 29.4294 61.7016 29.8498 61.9122H30.06H30.2702C30.2702 61.9122 30.2702 61.9122 30.4804 61.9122H30.6906H30.9008H31.111H31.3212H31.5315C31.5315 61.9122 31.5315 61.9122 31.7417 61.9122C31.9519 61.9122 31.9519 61.7016 32.1621 61.7016C32.1621 61.7016 32.1621 61.7016 32.3723 61.491C32.3723 61.491 32.3723 61.491 32.3723 61.2804L26.4864 14.3196C26.4864 14.109 26.4864 14.109 26.4864 14.3196Z" fill="#73C139"/>
<path d="M26.0654 13.4774C26.696 13.688 26.9062 14.3198 26.2756 14.9515C25.645 15.3727 24.5939 15.5833 23.7531 15.3727C23.1225 15.1621 22.9123 14.5304 23.5429 13.8986C24.1735 13.2668 25.2246 13.0562 26.0654 13.4774Z" fill="#4D9B12"/>
<path d="M43.3037 19.1634C43.0934 19.374 43.0934 19.374 43.3037 19.1634C43.0934 19.374 43.0934 19.374 43.3037 19.1634C43.0934 19.374 43.0934 19.374 42.8832 19.374C42.8832 19.374 42.8832 19.374 42.673 19.374C42.673 19.374 42.673 19.374 42.4628 19.374C42.2526 19.374 42.0424 19.374 41.8322 19.374C41.622 19.374 41.4118 19.374 41.2016 19.1634C40.9913 19.1634 40.7811 18.9528 40.5709 18.9528C40.3607 18.7422 40.1505 18.7423 40.1505 18.5317C39.9403 18.5317 39.9403 18.3211 39.9403 17.8999L25.646 62.9655C25.646 63.1761 25.646 63.5972 25.8562 63.8078L26.0664 64.0184C26.0664 64.0184 26.2766 64.0184 26.2766 64.229C26.2766 64.229 26.2766 64.229 26.4868 64.229C26.4868 64.229 26.4868 64.229 26.697 64.229H26.9073H27.1175H27.3277C27.3277 64.229 27.3277 64.229 27.5379 64.229C27.7481 64.229 27.7481 64.229 27.9583 64.229C27.9583 64.229 27.9583 64.229 28.1685 64.229C28.1685 64.229 28.1685 64.229 28.3787 64.229L43.3037 19.1634Z" fill="#73C139"/>
<path d="M43.0936 18.1104C43.7242 18.7422 43.514 19.3739 42.6731 19.3739C41.8323 19.5845 40.7812 19.1633 40.3608 18.5316C39.7302 17.8998 39.9404 17.2681 40.7812 17.2681C41.4119 17.2681 42.4629 17.6892 43.0936 18.1104Z" fill="#4D9B12"/>
<path d="M27.9583 19.3739C27.7481 19.3739 27.7481 19.5845 27.9583 19.3739C27.7481 19.5845 27.7481 19.5845 27.9583 19.3739C27.7481 19.5845 27.7481 19.5845 27.7481 19.7951C27.7481 19.7951 27.7481 19.7951 27.5378 19.7951C27.5378 19.7951 27.5378 19.7951 27.3276 19.7951C27.1174 19.7951 26.9072 19.7951 26.697 20.0057C26.4868 20.0057 26.2766 20.0057 26.0664 20.0057C25.8562 20.0057 25.646 20.0057 25.4357 19.7951C25.2255 19.7951 25.0153 19.5845 24.8051 19.5845C24.5949 19.3739 24.3847 18.9528 24.3847 18.7422L17.4478 65.4925C17.4478 65.7031 17.4478 66.1242 17.8682 66.3348L18.0784 66.5454H18.2886H18.4988H18.709H18.9192H19.1294H19.3396C19.3396 66.5454 19.3396 66.5454 19.5499 66.5454C19.7601 66.5454 19.7601 66.5454 19.9703 66.3348C19.9703 66.3348 19.9703 66.3348 20.1805 66.3348C20.1805 66.3348 20.1805 66.3348 20.3907 66.3348L27.9583 19.3739Z" fill="url(#paint0_linear)"/>
<path d="M27.5377 18.5315C28.1684 18.9527 27.9581 19.5845 27.3275 19.7951C26.6969 20.0056 25.4356 20.0056 24.805 19.3739C24.1744 18.9527 24.1744 18.3209 25.0152 17.8998C25.856 17.6892 26.9071 17.8998 27.5377 18.5315Z" fill="#FFE85F"/>
<path d="M32.7931 14.7409C32.7931 14.9514 32.5829 14.9514 32.5829 14.9514C32.5829 14.9514 32.5829 14.9514 32.3726 15.162C32.3726 15.162 32.3727 15.162 32.1624 15.162C31.9522 15.162 31.742 15.3726 31.5318 15.3726C31.3216 15.3726 31.1114 15.3726 30.9012 15.3726C30.691 15.3726 30.4808 15.3726 30.2705 15.3726C30.0603 15.3726 29.8501 15.162 29.6399 15.162C29.4297 14.9514 29.2195 14.7409 29.2195 14.5303L28.5889 61.7017C28.5889 61.9123 28.7991 62.1229 29.0093 62.3335C29.0093 62.3335 29.2195 62.3335 29.2195 62.5441H29.4297H29.6399H29.8501H30.0603H30.2705H30.4808C30.4808 62.5441 30.4808 62.5441 30.691 62.5441C30.9012 62.5441 30.9012 62.5441 31.1114 62.3335C31.1114 62.3335 31.1114 62.3335 31.3216 62.3335C31.3216 62.3335 31.3216 62.3335 31.5318 62.1229L32.7931 14.7409C32.7931 14.5303 32.7931 14.7409 32.7931 14.7409Z" fill="url(#paint1_linear)"/>
<path d="M32.3724 13.8986C33.0031 14.3198 33.0031 14.9516 32.3724 15.3728C31.7418 15.7939 30.6908 15.7939 29.8499 15.3728C29.2193 14.9516 29.2193 14.3198 29.8499 13.8986C30.4806 13.4775 31.5316 13.4775 32.3724 13.8986Z" fill="#FFE85F"/>
<path d="M14.5049 47.5395C20.8112 51.1195 30.9013 51.1195 37.2076 47.5395C41.4118 45.0125 42.8833 40.4325 41.2016 37.2737H38.0485C39.7302 40.0113 38.8893 43.1701 35.1055 45.276C30.0605 48.2242 21.6521 48.2242 16.607 45.276C12.8233 43.1701 11.7722 40.0113 13.6641 37.2737H10.5109C8.82926 40.4325 10.3007 45.0125 14.5049 47.5395Z" fill="#F4477B"/>
<path d="M41.8321 40.4326V40.8537V41.2749C41.8321 41.4855 41.8321 41.6961 41.6219 41.6961C41.6219 41.6961 41.6219 41.6961 41.6219 41.6961V70.7571C41.6219 70.7571 39.9402 78.5 24.8051 78.5C9.66992 78.5 9.66992 71.5994 9.66992 71.5994L10 40C10 42.3165 11.3516 44.6443 14.5048 46.5396L15.766 47.1714C15.9762 47.1714 15.9762 47.3819 16.1864 47.3819C16.3966 47.5925 16.8171 47.5925 17.0273 47.8031C17.4477 48.0137 18.0783 48.2243 18.709 48.4349C18.9192 48.6455 19.1294 48.6455 19.3396 48.6455C19.76 48.6455 19.9702 48.856 20.3906 48.856C20.6008 49.0666 20.8111 49.0666 21.0213 49.0666H21.0213C21.2315 49.2772 21.6519 49.2772 21.8621 49.2772H22.4927H23.3336H23.9642H24.8051H25.6459H26.4867H27.1174H28.1684H28.7991C29.4297 49.2772 30.0603 49.2772 30.6909 49.0666C30.9012 48.856 31.1114 48.856 31.3216 48.856C31.5318 48.856 31.9522 48.6455 32.1624 48.6455C32.3726 48.6455 32.5828 48.4349 32.793 48.4349C33.0033 48.4349 33.4237 48.2243 33.6339 48.2243C33.8441 48.2243 33.8441 48.0137 34.0543 48.0137C34.4747 48.0137 34.8951 47.8031 35.3156 47.5925C35.5258 47.5925 35.5258 47.3819 35.736 47.3819C36.1564 47.1714 36.787 46.7502 37.2075 46.5396C37.4177 46.329 37.6279 46.329 37.8381 46.1184C38.0483 45.9078 38.2585 45.9078 38.4687 45.6972L38.8891 45.2761C38.8891 45.0655 39.0993 45.0655 39.3096 44.8549L39.9402 44.2231L40.1504 44.0125C40.3606 44.0125 40.3606 43.802 40.5708 43.5914C40.781 43.3808 40.781 43.1702 40.9912 42.9596C40.9912 42.749 41.2015 42.749 41.2015 42.5384C41.2015 42.5384 41.4117 42.3279 41.4117 42.1173C41.6219 41.9067 41.6219 41.9067 41.6219 41.6961C41.6219 41.6961 41.6219 41.6961 41.6219 41.6961V39.3796L41.6219 39.3798C41.8321 40.222 41.8321 40.222 41.8321 40.4326Z" fill="url(#paint2_linear)"/>
<path d="M85.1354 66.7559L210 139.198L134.745 183L9.66992 110.769L85.1354 66.7559Z" fill="#EFEFEF"/>
<path d="M80.9313 67.177V72.6523L63.4839 82.7604V77.2852L80.9313 67.177Z" fill="#323A3B"/>
<path d="M102.162 79.6016V85.0769L80.9312 72.6523V67.177L102.162 79.6016Z" fill="#232829"/>
<path d="M102.162 79.6018V85.0771L84.7148 95.1852L84.9251 89.71L102.162 79.6018Z" fill="#1D1F1F"/>
<path d="M84.9253 89.7098L84.7151 95.185L63.4839 82.7604V77.2852L84.9253 89.7098Z" fill="#141515"/>
<path d="M27.3275 98.344V103.819L21.6519 107.189V101.713L27.3275 98.344Z" fill="#323A3B"/>
<path d="M48.7686 110.769L48.5584 116.033L27.3271 103.819V98.344L48.7686 110.769Z" fill="#232829"/>
<path d="M48.769 110.769L42.8831 113.927L21.6519 101.713L27.3275 98.344L48.769 110.769Z" fill="#A9D6EA"/>
<path d="M42.8831 113.927V119.403L21.6519 107.189V101.713L42.8831 113.927Z" fill="#141515"/>
<path d="M48.7692 110.769L48.559 116.033L42.8833 119.403V113.927L48.7692 110.769Z" fill="#1D1F1F"/>
<path d="M107.208 82.3394V87.8146L46.667 123.193V117.718L107.208 82.3394Z" fill="#323A3B"/>
<path d="M187.297 128.879V134.354L107.207 87.8146V82.3394L187.297 128.879Z" fill="#232829"/>
<path d="M126.757 164.047V169.522L46.667 123.193V117.718L126.757 164.047Z" fill="#303637"/>
<path d="M187.297 128.879V134.354L126.757 169.522V164.047L187.297 128.879Z" fill="#454E4F"/>
<path d="M187.298 128.879L126.757 164.047L46.667 117.718L107.208 82.3394L187.298 128.879Z" fill="#A9D6EA"/>
<path d="M80.9312 62.5442L197.177 129.721L126.967 170.365L10.9312 103.187L80.9312 62.5442ZM126.757 164.047L187.298 128.879L107.207 82.3394L46.6669 117.718L126.757 164.047ZM84.9251 89.7099L102.162 79.6017L80.9312 67.3877L63.6939 77.4959L84.9251 89.7099ZM42.8831 113.927L48.5588 110.558L27.3275 98.344L21.6519 101.713L42.8831 113.927Z" fill="#DEF6FF"/>
<path d="M102.163 79.6016L84.9253 89.7098L63.4839 77.2852L80.9313 67.177L102.163 79.6016Z" fill="#A9D6EA"/>
<path d="M197.177 129.721V135.196L126.967 175.84V170.364L197.177 129.721Z" fill="#A9D6EA"/>
<path d="M126.967 170.365V175.84L10.9312 108.663V103.188L126.967 170.365Z" fill="#A9D6EA"/>
<path opacity="0.1" d="M105.316 112.874C92.4931 120.245 92.4931 132.248 105.106 139.619C117.929 146.989 138.529 146.989 151.352 139.619C164.175 132.248 164.175 120.245 151.562 112.874C138.739 105.504 117.929 105.504 105.316 112.874Z" fill="black"/>
<path d="M97.9582 60.6489C97.9582 60.6489 95.2254 64.2289 94.805 65.2818C94.5948 66.3348 93.3336 70.3359 95.4357 73.0735C96.4867 74.5477 97.1173 72.4418 97.3275 69.7042C97.5378 68.4406 97.3275 67.5983 98.799 66.1242C100.06 65.0712 101.322 63.176 101.742 62.123C102.583 61.2807 97.9582 60.6489 97.9582 60.6489Z" fill="#EFB185"/>
<path d="M101.952 62.5443C101.532 63.5972 100.06 65.2819 99.8499 66.756C99.6397 68.6513 97.7478 68.4407 97.5376 69.7042C97.3274 71.8101 96.907 73.4948 96.2763 73.4948C96.4866 71.8101 94.5947 70.7571 96.6968 66.9666C97.3274 65.7031 99.8499 62.7548 101.111 61.7019C101.952 62.1231 102.162 62.1231 101.952 62.5443Z" fill="#E6A376"/>
<path d="M100.901 61.7019C100.901 61.7019 100.271 66.9666 99.8502 68.4407C99.4298 69.9148 98.589 70.9677 98.3787 70.5465C98.1685 70.1254 99.0094 65.4925 97.3277 65.7031C96.6971 65.7031 100.691 62.3337 100.901 61.7019Z" fill="#EFB185"/>
<path d="M112.883 20.0056C112.883 20.0056 107.628 18.9527 105.736 29.2714C103.634 39.5902 103.844 43.5913 102.373 47.1713C100.901 50.7513 96.9072 62.123 96.9072 62.123C96.9072 62.123 100.271 62.3335 101.532 64.65C101.532 64.65 109.94 50.3301 111.412 44.2231C112.883 37.9055 118.349 22.7432 112.883 20.0056Z" fill="#5FB9E6"/>
<path d="M102.162 46.9607C103.634 43.3807 103.634 39.3796 105.526 29.0608C106.577 23.375 108.679 21.2691 110.36 20.4268C115.195 23.5856 110.15 38.3266 108.469 44.4337C107.207 49.0666 102.372 58.7536 100.06 63.1759C98.3785 61.9124 96.6968 61.9124 96.6968 61.9124C96.6968 61.9124 100.691 50.5407 102.162 46.9607Z" fill="#77D2FF"/>
<path d="M127.178 114.77C127.178 114.77 128.649 117.928 127.178 118.771C125.706 119.613 125.706 120.455 123.394 120.245C121.292 120.034 121.502 120.877 120.661 121.719C119.82 122.561 112.042 125.931 110.571 124.246C109.099 122.561 113.304 120.666 114.775 119.613C116.247 118.56 119.82 114.77 119.82 113.717C120.03 112.664 127.178 114.77 127.178 114.77Z" fill="#111114"/>
<path d="M127.178 118.771C125.706 119.613 125.706 120.456 123.394 120.245C121.292 120.034 121.502 120.877 120.661 121.719C119.821 122.561 112.043 125.931 110.571 124.246C110.151 123.614 110.151 122.983 110.782 122.561C111.412 122.561 112.043 122.772 113.094 122.983C115.406 123.404 118.349 120.666 119.4 119.824C120.451 118.771 121.923 119.192 124.025 118.981C125.917 118.56 125.706 115.612 125.706 115.612L127.178 115.191C127.598 115.612 128.439 117.929 127.178 118.771Z" fill="#0A0A0A"/>
<path d="M141.052 125.088C141.052 125.088 141.682 128.879 140.211 130.985C138.74 133.091 135.586 136.671 134.115 136.46C132.643 136.249 132.433 135.618 132.433 135.618C132.433 135.618 131.803 132.459 132.854 129.511C133.905 126.352 133.905 125.088 133.905 125.088H141.052Z" fill="#111114"/>
<path d="M140.211 130.985C138.949 132.88 136.217 135.828 134.745 136.249C136.847 133.512 133.694 134.144 136.006 132.88C139.16 131.195 137.057 129.721 138.529 129.3C140 128.879 138.949 125.299 138.949 125.299L139.79 124.878H141.051C141.051 125.088 141.682 128.879 140.211 130.985Z" fill="#0A0A0A"/>
<path d="M124.235 63.3866C124.235 63.3866 117.718 62.7549 115.406 57.9114C115.406 57.9114 114.775 68.6513 116.036 81.0759C117.298 93.5006 118.559 115.402 118.559 115.402C118.559 115.402 122.763 119.403 127.177 115.402C127.177 115.402 128.439 101.082 127.177 93.0794C127.177 93.0794 128.018 79.1807 126.547 72.0207C125.286 64.8607 124.235 63.3866 124.235 63.3866Z" fill="#F4477B"/>
<path d="M118.769 115.191C118.769 115.191 117.718 93.2899 116.246 80.8652C114.985 68.4406 115.406 56.2266 115.406 56.2266C117.087 59.8065 121.081 62.7548 123.183 63.1759C122.973 67.8088 122.553 81.9182 122.553 86.5511C122.553 90.9734 123.394 109.294 123.814 116.876C120.871 117.297 118.769 115.191 118.769 115.191Z" fill="#FE6190"/>
<path d="M139.58 62.5442C139.58 62.5442 140.211 69.7041 140.421 81.0758C140.631 92.4475 141.472 96.6593 141.682 98.344C141.892 100.029 142.943 118.981 142.313 124.457C142.313 124.457 138.739 129.932 133.064 124.457C133.064 124.457 132.012 105.083 131.172 100.66C130.121 96.2381 124.865 74.7582 122.763 67.1771C121.712 63.8077 121.502 62.5442 121.502 62.5442C121.502 62.5442 130.961 69.283 139.58 62.5442Z" fill="#F4477B"/>
<path d="M133.273 124.457C133.273 124.457 132.222 105.083 131.381 100.66C130.33 96.2381 125.075 74.7582 122.973 67.1771C121.922 63.8077 119.82 61.0701 119.82 61.0701C119.82 61.0701 125.916 65.4924 131.381 65.4924C131.592 67.1771 133.904 82.9711 134.324 89.9205C134.745 96.8698 139.58 120.877 138.318 126.984C136.847 126.984 135.165 126.352 133.273 124.457Z" fill="#FE6190"/>
<path d="M125.076 18.5317C125.076 18.5317 135.796 22.1116 136.006 22.954C136.427 23.5857 139.16 25.0599 136.847 34.3257C136.847 34.3257 133.274 44.4339 137.268 53.6997C139.58 58.9643 141.262 61.702 141.262 61.702C141.262 61.702 137.898 68.8619 124.865 66.1243C122.343 65.4925 117.508 62.7549 115.826 60.2279C115.826 60.2279 115.826 52.015 112.883 42.7492C109.94 33.4833 107.208 21.2693 112.463 18.9528C112.253 18.7422 113.304 16.847 125.076 18.5317Z" fill="#77D2FF"/>
<path d="M122.342 10.5293C122.342 10.5293 121.081 16.0046 124.654 18.1104C126.546 19.1634 125.075 24.2174 119.82 25.9021C119.82 25.9021 117.297 26.3233 117.297 25.2704C117.087 23.1645 116.036 22.5328 114.564 21.2692C113.093 20.2163 122.342 10.5293 122.342 10.5293Z" fill="#EFB185"/>
<path d="M124.655 17.8998C124.865 18.1104 125.075 18.321 125.285 18.5316C122.553 17.268 118.979 18.5316 118.979 18.5316L121.712 11.3716C121.712 11.161 121.922 11.161 121.922 10.9504L122.342 11.3716C122.132 13.0563 122.132 16.4257 124.655 17.8998Z" fill="#DD9569"/>
<path d="M122.552 7.58099C122.552 7.58099 123.603 13.8986 120.66 17.8997C118.138 21.4797 114.564 24.6385 112.252 20.848C110.36 17.6892 105.525 9.89745 107.838 7.15982C110.78 3.57984 111.201 0.210449 116.036 0.210449C115.826 0.210449 121.711 0.421036 122.552 7.58099Z" fill="#EFB185"/>
<path d="M122.552 7.58068C122.552 7.58068 124.024 12.6348 120.66 18.11C119.82 19.163 118.769 20.2159 117.928 21.0582C119.189 18.9524 119.189 18.5312 120.03 16.2147C120.871 13.8983 117.507 16.0042 118.348 10.7395C118.558 9.05479 115.195 12.4242 114.354 12.8454C108.889 14.7406 108.048 11.5818 107.417 10.3183C107.207 9.68655 107.207 9.05479 107.207 8.63362L107.417 7.3701C107.417 7.15951 107.417 7.15951 107.417 6.94892C107.627 5.89599 108.048 5.05364 108.468 4.42188C110.781 3.57953 117.507 1.26308 117.507 1.05249C117.507 1.05249 119.399 2.10542 120.871 3.15836C121.712 4.42188 122.342 5.89599 122.552 7.58068Z" fill="#E6A376"/>
<path d="M122.342 14.1091C122.342 14.1091 125.075 8.42323 121.501 3.15856C121.501 3.15856 118.979 -1.05318 113.513 0.210339C110.991 0.8421 106.787 2.94797 106.787 8.63381C106.787 10.3185 108.048 13.4773 113.513 9.68675C114.354 9.05499 116.456 8.00205 117.507 8.42323C118.558 8.8444 119.189 10.1079 119.399 11.582C119.399 12.8456 120.45 12.4244 120.45 12.2138C120.45 12.0032 120.45 8.63381 122.132 9.26557C123.393 9.89734 122.342 13.8985 122.342 14.1091Z" fill="#341C09"/>
<path d="M122.342 14.1092C122.342 13.8986 123.393 9.89741 121.922 9.26565C120.45 8.63389 120.45 12.0033 120.24 12.2139C120.24 12.4245 119.189 12.635 119.189 11.5821C119.189 10.3186 118.558 8.84448 117.297 8.42331C116.246 8.00213 114.354 9.26565 113.303 9.68683C114.144 8.63389 116.036 7.58096 116.036 5.68568C116.036 3.15863 117.087 1.47394 118.138 0.631592C120.24 1.47394 121.291 3.15863 121.291 3.15863C125.075 8.42331 122.342 14.1092 122.342 14.1092Z" fill="#221101"/>
<path d="M113.724 9.68688C113.724 9.68688 116.877 7.37042 117.087 3.57986C117.087 2.73751 117.508 1.2634 118.559 0.631643C118.559 0.631643 115.616 -1.26364 110.991 0.84223C108.679 1.89516 107.207 5.05397 106.787 5.68573C105.105 9.2657 107.418 14.5304 113.724 9.68688Z" fill="#341C09"/>
<path d="M136.006 22.7431C136.427 23.3748 139.159 24.8489 136.847 34.1148C136.847 34.1148 133.273 44.2229 137.267 53.4888C139.58 58.7534 141.261 61.4911 141.261 61.4911C141.261 61.4911 139.58 65.071 133.904 66.124C130.751 58.3323 129.279 43.5912 127.808 33.483C126.967 26.9548 129.279 22.9537 131.382 20.6372C133.694 21.6901 135.796 22.5325 136.006 22.7431Z" fill="#5FB9E6"/>
<path d="M129.489 24.6384C129.91 21.9008 133.694 18.5314 136.847 24.0066C140.21 29.6925 146.306 47.3818 143.994 49.9088C143.153 50.9618 141.471 52.2253 140 51.1723C137.688 49.6982 135.375 44.8547 134.534 42.1171C133.273 37.9054 129.279 27.376 129.489 24.6384Z" fill="#77D2FF"/>
<path d="M72.9434 119.192L94.1746 104.03L89.55 106.557L72.9434 119.192Z" fill="#AAC6C3"/>
<path d="M72.9434 119.192L89.55 106.557L78.8292 96.4485L72.9434 119.192Z" fill="#DEF6FF"/>
<path d="M141.051 32.8512L89.5498 106.557L94.1744 104.03L145.466 30.1135L141.051 32.8512Z" fill="#C2E7F2"/>
<path d="M133.274 29.0605L81.9824 102.977L89.55 106.557L141.051 32.8511L133.274 29.0605Z" fill="#DEF6FF"/>
<path d="M130.12 22.5327L78.8291 96.4487L81.9823 102.977L133.274 29.0609L130.12 22.5327Z" fill="#C2E7F2"/>
<path d="M133.274 29.0607L141.052 32.8513L145.466 30.1137L142.523 23.5855L134.745 19.7949L130.121 22.5326L133.274 29.0607Z" fill="#A9D5E0"/>
<path d="M136.427 27.5866L139.79 29.2713L141.893 28.0078L140.421 25.2701L137.058 23.5854L134.956 24.6384L136.427 27.5866Z" fill="#DEF6FF"/>
<path d="M72.9434 119.192L81.9824 102.977L78.8292 96.4485L72.9434 119.192Z" fill="#C2E7F2"/>
<path d="M74.8353 115.823L72.9434 119.192L74.2046 114.559L74.8353 115.823Z" fill="#5A5C5D"/>
<path d="M74.8352 115.823L76.5169 116.665L72.9434 119.192L74.8352 115.823Z" fill="#6D6F70"/>
<path d="M124.445 54.3314C124.445 54.3314 120.451 54.7526 119.61 54.1208C118.769 53.4891 117.718 54.542 118.769 55.1738C119.82 55.8055 121.081 55.8055 121.081 55.8055C121.081 55.8055 116.667 57.2796 116.036 56.0161C115.195 54.7526 116.457 59.5961 118.769 60.0173C121.081 60.4384 123.394 61.0702 126.967 56.6479C126.967 56.4373 126.337 54.7526 124.445 54.3314Z" fill="#E6A376"/>
<path d="M144.415 49.2772C144.415 49.2772 138.739 57.0689 125.286 58.543C125.286 58.543 125.706 56.4372 123.814 54.5419C123.814 54.3313 145.887 35.7997 144.415 49.2772Z" fill="#77D2FF"/>
<defs>
<linearGradient id="paint0_linear" x1="17.4612" y1="42.7023" x2="27.9164" y2="42.7023" gradientUnits="userSpaceOnUse">
<stop stop-color="#FFDF02"/>
<stop offset="0.1253" stop-color="#F9D402"/>
<stop offset="0.4425" stop-color="#ECBD01"/>
<stop offset="0.7411" stop-color="#E4AF00"/>
<stop offset="1" stop-color="#E1AA00"/>
</linearGradient>
<linearGradient id="paint1_linear" x1="25.6526" y1="39.2236" x2="36.0073" y2="37.7941" gradientUnits="userSpaceOnUse">
<stop stop-color="#FFDF02"/>
<stop offset="0.1253" stop-color="#F9D402"/>
<stop offset="0.4425" stop-color="#ECBD01"/>
<stop offset="0.7411" stop-color="#E4AF00"/>
<stop offset="1" stop-color="#E1AA00"/>
</linearGradient>
<linearGradient id="paint2_linear" x1="25.751" y1="39.3796" x2="25.751" y2="78.5" gradientUnits="userSpaceOnUse">
<stop stop-color="#F4477B"/>
<stop offset="1" stop-color="#FF749E"/>
</linearGradient>
</defs>
</svg>
