<svg width="167" height="99" viewBox="0 0 167 99" fill="none" xmlns="http://www.w3.org/2000/svg">
<path d="M0 74H147V98.5H33.5L0 74Z" fill="#EFEFEF"/>
<path d="M143.078 21H37.922C34.7209 21 32 23.734 32 26.9505V93.0495C32 96.266 34.7209 99 37.922 99H143.078C146.279 99 149 96.266 149 93.0495V26.9505C149 23.734 146.439 21 143.078 21Z" fill="#FFDD84"/>
<path d="M146.919 97.5525L97.6223 53.1649C93.6209 49.4659 87.3788 49.4659 83.3774 53.1649L34.0806 97.5525C35.0409 98.3566 36.4814 98.9999 37.9219 98.9999H143.078C144.518 98.9999 145.959 98.5174 146.919 97.5525Z" fill="#FFCF71"/>
<path d="M34.0806 22.4474L83.3774 66.9959C87.3788 70.6948 93.6209 70.6948 97.6223 66.9959L146.919 22.4474C145.959 21.4825 144.518 21 143.078 21H37.9219C36.4814 21 35.2009 21.4825 34.0806 22.4474Z" fill="#FAB05D"/>
<circle cx="145.5" cy="21.5" r="21.5" fill="#F42061"/>
<path d="M138.31 13.883C138.948 13.619 139.608 13.322 140.29 12.992C140.994 12.64 141.676 12.266 142.336 11.87C142.996 11.452 143.623 11.023 144.217 10.583C144.833 10.121 145.383 9.637 145.867 9.131H149.299V32H144.382V15.533C143.722 15.973 142.985 16.38 142.171 16.754C141.357 17.106 140.565 17.414 139.795 17.678L138.31 13.883Z" fill="white"/>
</svg>
