<svg width="172" height="132" viewBox="0 0 172 132" fill="none" xmlns="http://www.w3.org/2000/svg">
<path d="M120.353 132C148.743 132 171.757 129.405 171.757 126.203C171.757 123.001 148.743 120.405 120.353 120.405C91.9639 120.405 68.9497 123.001 68.9497 126.203C68.9497 129.405 91.9639 132 120.353 132Z" fill="#EFEFEF"/>
<path d="M48.5 132C75.2858 132 97 129.985 97 127.5C97 125.015 75.2858 123 48.5 123C21.7142 123 0 125.015 0 127.5C0 129.985 21.7142 132 48.5 132Z" fill="#EFEFEF"/>
<path d="M142.876 4.83177C142.876 4.83177 142.535 5.28353 141.74 5.92351C139.166 8.10698 131.898 12.7751 117.022 12.7751C104.72 12.7751 97.3012 10.7422 93.7431 9.42459C92.0018 8.78461 91.1691 8.25756 91.1691 8.25756C91.1691 8.25756 87.4974 -1.19159 101.616 0.126018C115.735 1.44363 123.646 6.4882 129.476 4.1165C135.343 1.7448 144.844 1.06717 142.876 4.83177Z" fill="#F49D3A"/>
<path opacity="0.7" d="M141.74 5.92363C139.166 8.1071 131.898 12.7752 117.022 12.7752C104.72 12.7752 97.3011 10.7423 93.7429 9.42471C93.7429 9.42471 87.4973 0.653184 101.616 1.9708C115.735 3.28841 123.381 7.16595 129.438 5.50952C135.04 3.96604 142.27 2.68607 141.74 5.92363Z" fill="#F49D3A"/>
<path d="M151.468 25.6122C150.975 25.1228 150.181 25.1604 149.688 25.6498C146.698 28.7368 141.664 28.1721 135.532 24.7463C135.532 24.7463 135.532 24.7463 135.494 24.7463C133.071 23.391 130.687 23.3534 128.794 23.7299V25.1228V26.2521V27.4568C129.892 27.6827 131.519 28.2097 133.261 29.4521C133.336 29.4897 133.412 29.565 133.488 29.6026C135.645 31.372 138.598 37.546 142.383 39.8424C145.108 41.4988 147.796 41.2353 149.31 40.7082C149.802 40.52 150.143 40.0682 150.143 39.5412C150.143 39.4283 150.143 39.3153 150.105 39.24C149.916 38.5624 149.234 38.1859 148.591 38.3365C144.427 39.4283 140.415 36.3413 136.97 30.1673C136.364 29.1132 135.645 28.2474 134.888 27.6074C134.207 27.0051 133.488 26.591 132.768 26.2145C133.45 26.3651 134.245 26.6663 135.115 27.0427C138.106 28.285 142.042 30.2426 145.26 30.2426C148.439 30.2426 150.597 28.6238 151.619 27.3815C151.808 27.1557 151.884 26.8921 151.884 26.591C151.846 26.2145 151.695 25.8757 151.468 25.6122Z" fill="#187D87"/>
<path opacity="0.3" d="M135.532 24.7463C135.494 24.7463 135.494 24.7087 135.532 24.7463C133.071 23.391 130.724 23.3534 128.794 23.7299V27.4192C129.892 27.6451 131.519 28.1721 133.261 29.4144C133.336 29.4521 133.412 29.5274 133.488 29.565C134.131 28.9627 134.548 28.2474 134.85 27.5321C134.169 26.9298 133.45 26.5157 132.731 26.1392C133.412 26.2898 134.207 26.591 135.077 26.9674C135.342 26.1769 135.456 25.3863 135.532 24.7463Z" fill="#187D87"/>
<path d="M142.875 4.83154C142.875 4.83154 140.566 18.61 127.393 26.1768C127.393 26.1768 118.839 29.1509 112.404 27.1933C110.852 26.7039 109.413 25.951 108.24 24.7839C108.24 24.7839 93.9317 13.9795 91.1685 8.25733C91.1685 8.25733 92.9475 3.85274 103.622 3.55157C105.59 3.47628 107.634 3.77745 109.792 4.2292C118.309 6.03621 128.491 10.3279 142.875 4.83154Z" fill="#F49D3A"/>
<path opacity="0.5" d="M141.172 6.37549C141.172 6.37549 137.992 17.2175 131.898 20.7186C131.898 20.7186 130.308 20.568 128.794 19.7775C128.794 19.7775 135.532 17.1046 141.172 6.37549Z" fill="#F49D3A"/>
<path d="M119.445 129.026C67.9275 129.026 67.1326 90.2508 83.2199 66.1197C99.3071 42.0262 108.543 23.9185 108.543 23.9185L109.868 24.1443C111.836 24.4831 113.767 24.709 115.773 24.7843C120.202 25.0478 124.63 24.7467 128.983 23.9185C128.983 23.9185 131.633 28.436 136.289 35.9652C140.945 43.4944 147.645 54.0353 155.669 66.082C160.855 73.8371 164.262 83.098 164.83 92.0955C166.003 111.182 154.42 129.026 119.445 129.026Z" fill="#FFD075"/>
<path opacity="0.5" d="M129.097 30.1675C129.097 30.1675 144.655 52.6798 153.777 68.1147C161.499 81.1779 164.376 94.4669 157.146 103.728C157.146 103.728 162.369 89.8741 151.241 69.0558C146.093 59.4185 132.466 41.4236 129.097 30.1675Z" fill="#F49D3A"/>
<path d="M126.107 88.8957V94.0532H119.521V89.1215C114.865 88.858 110.323 87.5781 107.521 85.884L111.08 77.903C114.146 79.71 118.272 80.8771 121.868 80.8771C125.009 80.8771 126.107 80.2371 126.107 79.1077C126.107 75.0043 108.014 78.3171 108.014 66.1951C108.014 60.9623 111.837 56.5201 119.483 55.466V50.3838H126.069V55.3531C129.514 55.6919 132.883 56.5577 135.57 58.0259L132.277 65.9692C129.06 64.3505 126.031 63.5599 123.155 63.5599C119.937 63.5599 118.915 64.501 118.915 65.5928C118.915 69.508 137.009 66.2328 137.009 78.2042C136.971 83.2864 133.337 87.6534 126.107 88.8957Z" fill="#F49D3A"/>
<path d="M154.534 118.749C147.342 124.998 136.024 129.026 119.445 129.026C67.9275 129.026 67.1326 90.2508 83.2199 66.1197C99.3071 42.0262 108.543 23.9185 108.543 23.9185L109.868 24.1443C110.549 24.2573 111.269 24.3702 111.988 24.4455C113.237 24.5961 114.524 24.709 115.773 24.7843C115.773 24.7843 112.669 46.9955 99.4586 65.3291C86.2481 83.6627 91.8124 109.563 119.445 114.344C147.077 119.125 165.965 109.526 164.83 92.1707C165.435 102.147 162.521 111.822 154.534 118.749Z" fill="#F49D3A"/>
<path d="M115.848 24.1444C116.151 19.3257 108.997 17.7069 105.477 11.8718C101.805 5.77313 109.792 4.26728 109.792 4.26728C107.634 3.81553 105.59 3.51436 103.622 3.58966C100.139 3.70259 97.5655 4.22964 95.7486 4.90727C91.9634 6.30017 91.1685 8.29541 91.1685 8.29541C93.5153 13.1894 104.265 21.7727 107.407 24.182H115.848V24.1444Z" fill="#F49D3A"/>
<path d="M131.709 25.4616C131.709 26.0263 131.52 26.6286 130.952 27.1933C130.952 27.1933 118.764 23.4663 106.462 27.8709C106.462 27.8709 105.705 26.8921 105.78 25.5369C105.818 24.9722 105.969 24.3322 106.424 23.6546C106.424 23.6546 118.309 20.304 131.103 23.7298C131.066 23.7298 131.709 24.4828 131.709 25.4616Z" fill="#187D87"/>
<path opacity="0.3" d="M131.709 25.4616C131.709 26.0263 131.52 26.6286 130.952 27.1933C130.952 27.1933 118.764 23.4663 106.462 27.8709C106.462 27.8709 105.705 26.8921 105.78 25.5369C108.657 24.5581 120.278 22.0734 131.709 25.4616Z" fill="#187D87"/>
<path d="M132.579 23.5797C132.314 23.8808 131.898 24.1443 131.065 24.1443C131.065 24.1443 119.861 19.8527 106.385 24.0691C106.385 24.0691 105.515 24.0314 105.023 23.3914C104.833 23.1655 104.72 22.8267 104.72 22.4126C104.72 22.4126 119.406 17.2928 132.882 22.6009C132.882 22.6385 132.958 23.1279 132.579 23.5797Z" fill="#187D87"/>
<path opacity="0.3" d="M132.579 23.5797C132.314 23.8809 131.898 24.1444 131.065 24.1444C131.065 24.1444 119.861 19.8528 106.385 24.0691C106.385 24.0691 105.515 24.0315 105.022 23.3915C107.218 22.7139 120.353 18.9116 132.579 23.5797Z" fill="#187D87"/>
<path d="M94.6243 68.3286C101.825 92.5595 88.1043 118.055 63.8734 125.257C60.5648 126.23 57.2561 126.814 53.9475 127.106C49.763 127.398 45.6759 127.106 41.6861 126.327C38.1828 125.646 34.6796 124.478 31.4682 122.921C30.4951 122.435 29.522 121.948 28.5488 121.461C24.3644 119.126 20.4719 116.109 17.1632 112.509C16.482 111.827 15.8982 111.049 15.3143 110.368C11.5191 105.697 8.69702 100.442 6.94538 94.5058C6.75076 93.9219 6.65345 93.4353 6.45882 92.8514C0.328109 69.1071 14.0492 44.5842 37.6963 37.5777C43.535 35.8261 49.3738 35.3395 55.1153 35.8261C56.1857 35.9234 57.3535 36.118 58.4239 36.2153C63.1922 36.9938 67.6686 38.5508 71.9504 40.789C72.9235 41.2756 73.7993 41.7622 74.6751 42.3461C77.8865 44.2923 80.8058 46.6278 83.4333 49.2553C86.1581 51.98 88.4936 55.094 90.5371 58.5973C91.9968 61.1274 93.1646 63.8522 94.1377 66.6743C94.235 67.2582 94.4296 67.7447 94.6243 68.3286Z" fill="#F3D46A"/>
<path opacity="0.3" d="M90.4394 58.5973L53.8498 127.008C49.6653 127.3 45.5782 127.008 41.5884 126.23L83.3356 49.3525C86.0604 52.0773 88.4932 55.1913 90.4394 58.5973Z" fill="white"/>
<path opacity="0.3" d="M58.3264 36.3127L17.0657 112.411C16.3846 111.73 15.8007 110.952 15.2168 110.271L55.1151 35.8262C56.1855 35.9235 57.256 36.1181 58.3264 36.3127Z" fill="white"/>
<path opacity="0.3" d="M74.578 42.3456L31.371 122.823C30.3979 122.337 29.4248 121.85 28.4517 121.364L71.8532 40.7886C72.8263 41.2751 73.7021 41.859 74.578 42.3456Z" fill="white"/>
<path d="M85.7689 70.9559C85.9635 71.5398 86.0608 72.0264 86.2555 72.6102C90.9265 91.3916 80.0274 110.854 61.2461 116.498C42.4647 122.142 22.6128 111.827 16.2875 93.5325C16.0929 93.0459 15.8982 92.4621 15.8009 91.9755C9.96216 72.5129 20.9585 52.0772 40.3238 46.3358C59.5917 40.5943 80.0274 51.5907 85.7689 70.9559Z" fill="#DA7D1D"/>
<path d="M86.2554 72.5126C90.9265 91.294 80.0274 110.757 61.246 116.401C60.8568 116.498 60.3702 116.595 59.981 116.79C55.6992 117.86 51.5148 118.25 47.3303 117.763C43.1458 117.374 39.156 116.303 35.4581 114.552C34.485 114.162 33.6092 113.676 32.6361 113.092C28.5489 110.757 24.851 107.643 21.8343 103.75C21.1531 102.874 20.4719 101.901 19.7908 100.928C18.3311 98.5924 17.066 96.0623 16.0929 93.4349C11.5192 74.6535 22.5155 55.1909 41.2969 49.5468C43.6324 48.8656 46.0652 48.379 48.4981 48.1844C49.6658 48.0871 50.9309 47.9897 52.0986 47.9897C57.0616 47.9897 61.8299 49.0602 66.209 51.0064C67.1821 51.3957 68.0579 51.8823 69.0311 52.3688C72.6316 54.3151 75.843 56.7479 78.665 59.7646C81.3898 62.684 83.628 66.0899 85.2823 69.8851C85.5743 70.8583 85.9635 71.6368 86.2554 72.5126Z" fill="#EDAC2F"/>
<path opacity="0.2" d="M85.1844 69.9824L59.8831 116.79C55.6013 117.86 51.4169 118.25 47.2324 117.763L78.5672 59.8618C81.2919 62.7812 83.5301 66.1872 85.1844 69.9824Z" fill="#F6E6A4"/>
<path opacity="0.2" d="M52.0016 48.0872L21.8346 103.847C21.1534 102.972 20.4722 101.999 19.791 101.025L48.3037 48.1845C49.6661 48.0872 50.8338 47.9899 52.0016 48.0872Z" fill="#F6E6A4"/>
<path opacity="0.2" d="M69.0308 52.3692L35.4578 114.552C34.4847 114.163 33.6089 113.676 32.6357 113.092L66.2087 51.0068C67.1818 51.4934 68.0576 51.8827 69.0308 52.3692Z" fill="#F6E6A4"/>
<path d="M61.5378 99.8574L63.2894 105.696L55.8936 107.934L54.2393 102.388C48.8871 103.653 43.4376 103.75 39.6424 102.777L41.0048 92.4616C45.0919 93.4347 50.0549 93.4347 54.142 92.1697C57.6453 91.0992 58.7157 90.0288 58.3264 88.7637C56.9641 84.19 37.7934 93.9213 33.7063 80.2002C31.9547 74.2641 34.7767 68.0361 42.951 64.2409L41.1994 58.4994L48.5952 56.2612L50.2495 61.9054C54.2393 61.1269 58.3264 61.0296 61.8297 61.8081L60.7593 71.9286C56.5748 71.1501 52.8769 71.3447 49.7629 72.2205C46.1623 73.291 45.2865 74.6534 45.6758 75.9184C46.9408 80.3948 66.1115 70.6635 70.1986 84.19C71.8529 89.8342 69.2255 95.9649 61.5378 99.8574Z" fill="#DA7D1D"/>
<path d="M60.7596 97.9115L62.5112 103.75L55.1155 105.988L53.4611 100.442C48.1089 101.707 42.6594 101.804 38.8642 100.831L40.1293 90.613C44.2164 91.5861 49.1794 91.5861 53.2665 90.3211C56.7698 89.2506 57.8402 88.1802 57.451 86.9151C56.0886 82.3414 36.9179 92.0727 32.8308 78.3516C31.0792 72.4155 33.9012 66.1875 42.0755 62.3923L40.3239 56.6508L47.7197 54.4126L49.374 60.0567C53.3638 59.2782 57.451 59.1809 60.9542 59.9594L59.8838 70.08C55.6993 69.3015 52.0014 69.4961 48.8874 70.3719C45.2868 71.4424 44.411 72.8047 44.8003 74.0698C46.1627 78.4489 65.3333 68.7176 69.4204 82.2441C71.0748 87.9855 68.4473 94.1163 60.7596 97.9115Z" fill="#F3D46A"/>
</svg>
