<svg width="39" height="46" viewBox="0 0 39 46" fill="none" xmlns="http://www.w3.org/2000/svg">
<path d="M24.0429 14.7291V14.2759H19.8695C18.9168 16.4966 17.7374 21.2099 20.7314 27.4641L18.2818 28.6424C15.2878 22.3429 15.9682 17.267 17.0116 14.2759H14.5166V14.7291V22.8867V24.6995V45.0936V46H24.0429V45.0936V24.6995V22.8867V14.7291Z" fill="white"/>
<path d="M14.5163 14.729H0V22.8866H14.5163V14.729Z" fill="#F42061"/>
<path d="M38.5587 14.729H24.0425V22.8866H38.5587V14.729Z" fill="#F42061"/>
<path d="M14.5162 24.6995H2.26807V45.0935H14.5162V24.6995Z" fill="#F42061"/>
<path d="M36.2906 24.6995H24.0425V45.0935H36.2906V24.6995Z" fill="#F42061"/>
<path d="M18.2816 28.6424L20.7312 27.464C17.7372 21.2098 18.962 16.4965 19.8693 14.2759C20.0054 14.0039 20.0961 13.7773 20.1868 13.5507C20.6405 13.5961 21.0941 13.6414 21.5477 13.6414C26.1748 13.6414 30.6204 11.4207 32.3896 8.29359C33.4783 6.34483 33.4329 4.21478 32.2535 2.31133C31.3462 0.815763 29.8946 0.0453202 28.1708 0.0453202C24.451 0 21.3209 3.30837 19.5064 7.34187C17.6918 3.30837 14.5618 0 10.7966 0C9.07281 0 7.62118 0.815763 6.71391 2.26601C5.53447 4.16946 5.4891 6.29951 6.57782 8.24828C8.30163 11.3754 12.6565 13.5507 17.1928 13.5961C17.1021 13.7773 17.0568 14.0039 16.966 14.2305C15.968 17.267 15.2422 22.2975 18.2816 28.6424ZM28.2161 2.71921C28.9873 2.71921 29.577 3.03645 29.9853 3.71626C30.6204 4.75862 30.6657 5.8463 30.076 6.93399C28.7605 9.33596 24.9046 11.0581 21.1394 10.8768C22.5003 5.30246 26.0387 2.71921 28.2161 2.71921ZM8.98208 6.93399C8.39236 5.8463 8.39236 4.75862 9.07281 3.71626C9.43571 3.03645 10.0254 2.71921 10.7966 2.71921C12.9287 2.71921 16.467 5.30246 17.8733 10.8768C14.1081 11.0581 10.2976 9.33596 8.98208 6.93399Z" fill="#F42061"/>
</svg>
