
<svg version="1.1" id="Слой_1" xmlns="http://www.w3.org/2000/svg" xmlns:xlink="http://www.w3.org/1999/xlink" x="0px" y="0px"
	 viewBox="0 0 350 111" style="enable-background:new 0 0 350 111;" xml:space="preserve">
<style type="text/css">
	.st0{fill:#2000AD;}
	.st1{fill:#F42061;}
</style>
<g>
	<path class="st0" d="M4.3,12.1h17.3v77.1H4.3V12.1z"/>
	<path class="st0" d="M43.9,32.7c2.8-0.8,6.5-1.6,10.9-2.3c4.4-0.7,9.1-1.1,14-1.1c5,0,9.1,0.6,12.4,1.9c3.3,1.3,5.9,3.1,7.8,5.5
		c1.9,2.4,3.3,5.2,4.1,8.5c0.8,3.3,1.2,6.9,1.2,10.9v33H77.9v-31c0-5.3-0.7-9.1-2.1-11.3c-1.4-2.2-4-3.3-7.9-3.3
		c-1.2,0-2.4,0.1-3.8,0.2c-1.3,0.1-2.5,0.2-3.6,0.4v45.2H43.9V32.7z"/>
	<path class="st1" d="M189.5,50.6c0,5.4-0.7,10.3-2,14.6c-1.3,4.3-3.2,8.1-5.6,11.4c-2.4,3.3-5.3,6-8.6,8.1c-3.3,2.2-7,3.7-11,4.7
		c0.4,1.5,1.2,2.7,2.4,3.6c1.3,0.9,2.9,1.7,4.8,2.3c1.9,0.6,4.2,1,6.7,1.3c2.6,0.3,5.3,0.6,8.3,0.8l-3.6,12.7
		c-5.8-0.2-10.7-0.8-14.8-1.7c-4.1-0.9-7.6-2.2-10.5-3.8c-2.9-1.6-5.1-3.6-6.8-6c-1.7-2.4-2.9-5.1-3.8-8.2
		c-4.6-0.6-8.9-1.9-12.8-3.8c-3.9-2-7.3-4.6-10.2-8c-2.9-3.3-5.2-7.3-6.8-12c-1.6-4.7-2.4-10-2.4-15.9c0-6.6,1-12.4,3.1-17.4
		c2.1-5,4.9-9.2,8.4-12.6c3.5-3.4,7.6-6,12.2-7.7c4.6-1.7,9.5-2.6,14.6-2.6c5.3,0,10.2,0.9,14.9,2.6c4.7,1.7,8.7,4.3,12.2,7.7
		c3.5,3.4,6.2,7.6,8.2,12.6C188.5,38.2,189.5,44,189.5,50.6z M130.7,50.6c0,3.8,0.5,7.2,1.4,10.2c0.9,3,2.3,5.7,4,7.8
		c1.7,2.2,3.9,3.9,6.4,5.1c2.5,1.2,5.4,1.8,8.7,1.8c3.2,0,6.1-0.6,8.6-1.8c2.6-1.2,4.7-2.9,6.5-5.1c1.7-2.2,3.1-4.8,4-7.8
		c0.9-3,1.4-6.5,1.4-10.2c0-3.8-0.5-7.2-1.4-10.3c-0.9-3.1-2.3-5.7-4-7.9c-1.7-2.2-3.9-3.9-6.5-5.1c-2.6-1.2-5.4-1.8-8.6-1.8
		c-3.3,0-6.2,0.6-8.7,1.8c-2.5,1.2-4.7,2.9-6.4,5.1c-1.7,2.2-3.1,4.8-4,7.9C131.1,43.5,130.7,46.9,130.7,50.6z"/>
	<path class="st1" d="M243.7,45.3c-1.5-0.4-3.2-0.8-5.2-1.2c-2-0.4-4.2-0.6-6.5-0.6c-1,0-2.3,0.1-3.7,0.3c-1.4,0.2-2.5,0.4-3.3,0.6
		v44.7h-16.6V33.8c3-1,6.5-2,10.5-2.9c4-0.9,8.5-1.4,13.5-1.4c0.9,0,2,0.1,3.2,0.2c1.3,0.1,2.5,0.3,3.8,0.4c1.3,0.2,2.5,0.4,3.8,0.7
		c1.3,0.3,2.3,0.6,3.2,0.9L243.7,45.3z"/>
	<path class="st1" d="M279,13.7c0,3-1,5.4-2.9,7.2c-2,1.7-4.3,2.6-7,2.6s-5-0.9-7-2.6c-2-1.7-2.9-4.1-2.9-7.2c0-3,1-5.4,2.9-7.2
		c2-1.7,4.3-2.6,7-2.6s5,0.9,7,2.6C278.1,8.3,279,10.7,279,13.7z M277.5,89.2h-16.6V30.7h16.6V89.2z"/>
	<path class="st1" d="M342.5,41.8c-1.3,1.5-3.1,3.5-5.4,6c-2.3,2.5-4.7,5.3-7.3,8.3c-2.6,3-5.2,6.2-7.9,9.6c-2.6,3.3-5,6.6-7.2,9.7
		h28.3v13.8h-48.4v-9.8c1.6-2.7,3.4-5.5,5.6-8.6c2.2-3.1,4.5-6.2,6.9-9.3c2.4-3.1,4.8-6.1,7.2-9.1c2.4-2.9,4.6-5.6,6.6-8h-24.9V30.7
		h46.5V41.8z"/>
</g>
</svg>
