<svg width="13" height="13" viewBox="0 0 13 13" fill="none" xmlns="http://www.w3.org/2000/svg">
<path d="M1.16071 5.33929H5.10714C5.23534 5.33929 5.33929 5.23534 5.33929 5.10714V1.16071C5.33929 0.519714 5.859 0 6.5 0C7.141 0 7.66071 0.519714 7.66071 1.16071V5.10714C7.66071 5.23534 7.76466 5.33929 7.89286 5.33929H11.8393C12.4803 5.33929 13 5.859 13 6.5C13 7.141 12.4803 7.66071 11.8393 7.66071H7.89286C7.76466 7.66071 7.66071 7.76466 7.66071 7.89286V11.8393C7.66071 12.4803 7.141 13 6.5 13C5.859 13 5.33929 12.4803 5.33929 11.8393V7.89286C5.33929 7.76466 5.23534 7.66071 5.10714 7.66071H1.16071C0.519714 7.66071 0 7.141 0 6.5C0 5.859 0.519714 5.33929 1.16071 5.33929Z" fill="#F42061"/>
</svg>
