<svg width="21" height="20" viewBox="0 0 21 20" fill="none" xmlns="http://www.w3.org/2000/svg">
<path d="M6.49408 7.98801L3.08048 8.93351C3.03839 8.94283 3.00566 8.96611 2.9776 8.99872L0.550668 11.9051C0.517935 11.9424 0.503906 11.9889 0.503906 12.0355C0.503906 12.0541 0.508582 12.0774 0.513259 12.0961C0.531963 12.1613 0.588077 12.2125 0.653544 12.2358L4.09988 13.2325C4.07183 13.9591 4.23549 14.6019 4.60023 15.1329L3.51069 16.4556C3.44054 16.5395 3.44989 16.6606 3.52939 16.7351L4.5675 17.7179C4.60959 17.7551 4.66102 17.7784 4.71714 17.7738C4.77325 17.7738 4.82469 17.7458 4.8621 17.7085L6.06855 16.3997C6.37718 16.5115 7.13939 16.7118 8.29909 16.4976L9.5336 19.865C9.55698 19.9303 9.61309 19.9815 9.68323 19.9955C9.75338 20.0094 9.82352 19.9908 9.87496 19.9442L12.6245 17.3359C12.6573 17.3033 12.676 17.2661 12.6853 17.2242L13.3026 13.7915C14.0508 13.144 14.813 12.3942 15.5612 11.5558C19.8633 6.73509 20.5086 2.96239 20.5086 1.1459C20.5086 0.549717 20.4338 0.219023 20.4338 0.20505C20.415 0.121212 20.3496 0.0606623 20.2654 0.0466893C20.0503 0.00942799 14.9439 -0.77306 8.29909 5.84548C8.28973 5.8548 7.42464 6.73975 6.49408 7.98801ZM10.2116 8.30007C10.2116 7.14963 11.1469 6.21344 12.3066 6.21344C13.4663 6.21344 14.4015 7.14497 14.4015 8.30007C14.4015 9.45517 13.4663 10.3867 12.3066 10.3867C11.1469 10.3867 10.2116 9.45051 10.2116 8.30007Z" />
</svg>
