<svg width="42" height="41" viewBox="0 0 42 41" fill="none" xmlns="http://www.w3.org/2000/svg">
<g clip-path="url(#telegram_clip)">
<path d="M21.3184 40.9346C32.6219 40.9346 41.7852 31.7713 41.7852 20.4678C41.7852 9.16427 32.6219 0.000976562 21.3184 0.000976562C10.0149 0.000976562 0.851562 9.16427 0.851562 20.4678C0.851562 31.7713 10.0149 40.9346 21.3184 40.9346Z" fill="#41B4E6"/>
<path d="M41.7854 20.4671C41.7854 19.9684 41.7666 19.4742 41.7316 18.9843L33.2491 10.502L9.3877 19.8879L18.5172 29.0175L18.637 29.4486L18.792 29.2923L18.7926 29.2929L18.637 29.4486L28.7359 39.5476C36.3727 36.5766 41.7854 29.1544 41.7854 20.4671Z" fill="#0091C8"/>
<path d="M19.3308 23.449L28.5802 30.4323L33.2491 10.502L9.3877 19.8879L16.6485 22.2929L29.8995 13.4044L19.3308 23.449Z" fill="white"/>
<path d="M16.6484 22.2927L18.637 29.4485L19.3307 23.4488L29.8995 13.4043L16.6484 22.2927Z" fill="#D2D2D7"/>
<path d="M22.337 25.7188L18.6372 29.4489L19.3309 23.4492L22.337 25.7188Z" fill="#B9B9BE"/>
</g>
<defs>
<clipPath id="telegram_clip">
<rect x="0.851562" width="40.9341" height="40.9341" fill="white"/>
</clipPath>
</defs>
</svg>
