<svg width="39" height="39" viewBox="0 0 39 39" fill="none" xmlns="http://www.w3.org/2000/svg">
<path d="M19.239 38.9341C29.8644 38.9341 38.478 30.3205 38.478 19.6951C38.478 9.06965 29.8644 0.456055 19.239 0.456055C8.6136 0.456055 0 9.06965 0 19.6951C0 30.3205 8.6136 38.9341 19.239 38.9341Z" fill="#4D76A1"/>
<path fill-rule="evenodd" clip-rule="evenodd" d="M18.5122 28.1327H20.0222C20.0222 28.1327 20.4784 28.0826 20.7112 27.8316C20.9256 27.6011 20.9187 27.1683 20.9187 27.1683C20.9187 27.1683 20.8892 25.1421 21.8296 24.8438C22.7566 24.5498 23.947 26.802 25.2087 27.668C26.1628 28.3234 26.8878 28.1797 26.8878 28.1797L30.2615 28.1327C30.2615 28.1327 32.0263 28.024 31.1895 26.6364C31.1209 26.5229 30.7022 25.6099 28.6811 23.734C26.5658 21.7705 26.8491 22.0881 29.3972 18.6918C30.9491 16.6235 31.5695 15.3607 31.3757 14.8199C31.1909 14.3048 30.0495 14.4409 30.0495 14.4409L26.251 14.4646C26.251 14.4646 25.9694 14.4262 25.7605 14.551C25.5565 14.6735 25.4251 14.9588 25.4251 14.9588C25.4251 14.9588 24.8239 16.5594 24.0221 17.9205C22.3307 20.7928 21.6544 20.9444 21.3779 20.766C20.7349 20.3504 20.8954 19.0962 20.8954 18.2052C20.8954 15.4218 21.3176 14.2612 20.0733 13.9608C19.6604 13.861 19.3566 13.7952 18.3006 13.7845C16.9453 13.7705 15.7981 13.7886 15.1485 14.1069C14.7164 14.3185 14.383 14.7901 14.5861 14.8172C14.8371 14.8508 15.4057 14.9705 15.7072 15.381C16.0964 15.9105 16.0827 17.0999 16.0827 17.0999C16.0827 17.0999 16.3063 20.3764 15.5604 20.7835C15.0484 21.0627 14.346 20.4927 12.838 17.8869C12.0654 16.5522 11.482 15.0768 11.482 15.0768C11.482 15.0768 11.3695 14.801 11.1689 14.6536C10.9254 14.4749 10.5852 14.418 10.5852 14.418L6.97559 14.4416C6.97559 14.4416 6.43373 14.4567 6.23481 14.6923C6.05785 14.9019 6.22075 15.3354 6.22075 15.3354C6.22075 15.3354 9.04669 21.9468 12.2464 25.2786C15.1804 28.3333 18.5122 28.1327 18.5122 28.1327Z" fill="white"/>
</svg>
