<svg width="1537" height="1709" viewBox="0 0 1537 1709" fill="none" xmlns="http://www.w3.org/2000/svg">
<g opacity="0.3">
<g clip-path="url(#clip0)">
<path d="M365 326.674C365 328.887 363.28 330.609 361.069 330.609C358.858 330.609 357.138 328.887 357.138 326.674C357.138 324.462 358.858 322.74 361.069 322.74C363.28 322.986 365 324.707 365 326.674ZM343.625 326.674C343.625 328.887 341.905 330.609 339.694 330.609C337.483 330.609 335.763 328.887 335.763 326.674C335.763 324.462 337.483 322.74 339.694 322.74C341.905 322.986 343.625 324.707 343.625 326.674ZM322.496 326.674C322.496 328.887 320.776 330.609 318.564 330.609C316.353 330.609 314.633 328.887 314.633 326.674C314.633 324.462 316.353 322.74 318.564 322.74C320.776 322.986 322.496 324.707 322.496 326.674ZM301.121 326.674C301.121 328.887 299.401 330.609 297.189 330.609C294.978 330.609 293.258 328.887 293.258 326.674C293.258 324.462 294.978 322.74 297.189 322.74C299.401 322.986 301.121 324.707 301.121 326.674ZM279.991 326.674C279.991 328.887 278.271 330.609 276.06 330.609C273.849 330.609 272.129 328.887 272.129 326.674C272.129 324.462 273.849 322.74 276.06 322.74C278.271 322.986 279.991 324.707 279.991 326.674ZM258.616 326.674C258.616 328.887 256.896 330.609 254.685 330.609C252.474 330.609 251 328.887 251 326.674C251 324.707 252.72 322.986 254.931 322.986C256.896 322.986 258.616 324.707 258.616 326.674ZM365 348.066C365 350.279 363.28 352 361.069 352C358.858 352 357.138 350.279 357.138 348.066C357.138 345.853 358.858 344.132 361.069 344.132C363.28 344.378 365 346.099 365 348.066ZM343.625 348.066C343.625 350.279 341.905 352 339.694 352C337.483 352 335.763 350.279 335.763 348.066C335.763 345.853 337.483 344.132 339.694 344.132C341.905 344.378 343.625 346.099 343.625 348.066ZM322.496 348.066C322.496 350.279 320.776 352 318.564 352C316.353 352 314.633 350.279 314.633 348.066C314.633 345.853 316.353 344.132 318.564 344.132C320.776 344.378 322.496 346.099 322.496 348.066ZM301.121 348.066C301.121 350.279 299.401 352 297.189 352C294.978 352 293.258 350.279 293.258 348.066C293.258 345.853 294.978 344.132 297.189 344.132C299.401 344.378 301.121 346.099 301.121 348.066ZM279.991 348.066C279.991 350.279 278.271 352 276.06 352C273.849 352 272.129 350.279 272.129 348.066C272.129 345.853 273.849 344.132 276.06 344.132C278.271 344.378 279.991 346.099 279.991 348.066ZM258.616 348.066C258.616 350.279 256.896 352 254.685 352C252.474 352 251 350.279 251 348.066C251 345.853 252.72 344.132 254.931 344.132C257.142 344.132 258.616 346.099 258.616 348.066ZM365 305.283C365 307.496 363.28 309.217 361.069 309.217C358.858 309.217 357.138 307.496 357.138 305.283C357.138 303.07 358.858 301.349 361.069 301.349C363.28 301.349 365 303.07 365 305.283ZM343.625 305.283C343.625 307.496 341.905 309.217 339.694 309.217C337.483 309.217 335.763 307.496 335.763 305.283C335.763 303.07 337.483 301.349 339.694 301.349C341.905 301.349 343.625 303.07 343.625 305.283ZM322.496 305.283C322.496 307.496 320.776 309.217 318.564 309.217C316.353 309.217 314.633 307.496 314.633 305.283C314.633 303.07 316.353 301.349 318.564 301.349C320.776 301.349 322.496 303.07 322.496 305.283ZM301.121 305.283C301.121 307.496 299.401 309.217 297.189 309.217C294.978 309.217 293.258 307.496 293.258 305.283C293.258 303.07 294.978 301.349 297.189 301.349C299.401 301.349 301.121 303.07 301.121 305.283ZM279.991 305.283C279.991 307.496 278.271 309.217 276.06 309.217C273.849 309.217 272.129 307.496 272.129 305.283C272.129 303.07 273.849 301.349 276.06 301.349C278.271 301.349 279.991 303.07 279.991 305.283ZM258.616 305.283C258.616 307.496 256.896 309.217 254.685 309.217C252.474 309.217 251 307.496 251 305.283C251 303.07 252.72 301.349 254.931 301.349C257.142 301.349 258.616 303.07 258.616 305.283ZM365 283.891C365 286.104 363.28 287.826 361.069 287.826C358.858 287.826 357.138 286.104 357.138 283.891C357.138 281.679 358.858 279.957 361.069 279.957C363.28 279.957 365 281.679 365 283.891ZM343.625 283.891C343.625 286.104 341.905 287.826 339.694 287.826C337.483 287.826 335.763 286.104 335.763 283.891C335.763 281.679 337.483 279.957 339.694 279.957C341.905 279.957 343.625 281.679 343.625 283.891ZM322.496 283.891C322.496 286.104 320.776 287.826 318.564 287.826C316.353 287.826 314.633 286.104 314.633 283.891C314.633 281.679 316.353 279.957 318.564 279.957C320.776 279.957 322.496 281.679 322.496 283.891ZM301.121 283.891C301.121 286.104 299.401 287.826 297.189 287.826C294.978 287.826 293.258 286.104 293.258 283.891C293.258 281.679 294.978 279.957 297.189 279.957C299.401 279.957 301.121 281.679 301.121 283.891ZM279.991 283.891C279.991 286.104 278.271 287.826 276.06 287.826C273.849 287.826 272.129 286.104 272.129 283.891C272.129 281.679 273.849 279.957 276.06 279.957C278.271 279.957 279.991 281.679 279.991 283.891ZM258.616 283.891C258.616 286.104 256.896 287.826 254.685 287.826C252.72 287.826 251 286.104 251 283.891C251 281.679 252.72 279.957 254.931 279.957C257.142 279.957 258.616 281.679 258.616 283.891ZM365 262.5C365 264.713 363.28 266.434 361.069 266.434C358.858 266.434 357.138 264.713 357.138 262.5C357.138 260.287 358.858 258.566 361.069 258.566C363.28 258.566 365 260.287 365 262.5ZM343.625 262.5C343.625 264.713 341.905 266.434 339.694 266.434C337.483 266.434 335.763 264.713 335.763 262.5C335.763 260.287 337.483 258.566 339.694 258.566C341.905 258.566 343.625 260.287 343.625 262.5ZM322.496 262.5C322.496 264.713 320.776 266.434 318.564 266.434C316.353 266.434 314.633 264.713 314.633 262.5C314.633 260.287 316.353 258.566 318.564 258.566C320.776 258.566 322.496 260.287 322.496 262.5ZM301.121 262.5C301.121 264.713 299.401 266.434 297.189 266.434C294.978 266.434 293.258 264.713 293.258 262.5C293.258 260.287 294.978 258.566 297.189 258.566C299.401 258.566 301.121 260.287 301.121 262.5ZM279.991 262.5C279.991 264.713 278.271 266.434 276.06 266.434C273.849 266.434 272.129 264.713 272.129 262.5C272.129 260.287 273.849 258.566 276.06 258.566C278.271 258.566 279.991 260.287 279.991 262.5ZM258.616 262.5C258.616 264.713 256.896 266.434 254.685 266.434C252.474 266.434 251 264.467 251 262.5C251 260.287 252.72 258.566 254.931 258.566C256.896 258.566 258.616 260.287 258.616 262.5ZM365 241.109C365 243.321 363.28 245.043 361.069 245.043C358.858 245.043 357.138 243.321 357.138 241.109C357.138 238.896 358.858 237.174 361.069 237.174C363.28 237.174 365 238.896 365 241.109ZM343.625 241.109C343.625 243.321 341.905 245.043 339.694 245.043C337.483 245.043 335.763 243.321 335.763 241.109C335.763 238.896 337.483 237.174 339.694 237.174C341.905 237.174 343.625 238.896 343.625 241.109ZM322.496 241.109C322.496 243.321 320.776 245.043 318.564 245.043C316.353 245.043 314.633 243.321 314.633 241.109C314.633 238.896 316.353 237.174 318.564 237.174C320.776 237.174 322.496 238.896 322.496 241.109ZM301.121 241.109C301.121 243.321 299.401 245.043 297.189 245.043C294.978 245.043 293.258 243.321 293.258 241.109C293.258 238.896 294.978 237.174 297.189 237.174C299.401 237.174 301.121 238.896 301.121 241.109ZM279.991 241.109C279.991 243.321 278.271 245.043 276.06 245.043C273.849 245.043 272.129 243.321 272.129 241.109C272.129 238.896 273.849 237.174 276.06 237.174C278.271 237.174 279.991 238.896 279.991 241.109ZM258.616 241.109C258.616 243.321 256.896 245.043 254.685 245.043C252.474 245.043 250.754 243.321 250.754 241.109C250.754 238.896 252.474 237.174 254.685 237.174C256.896 237.174 258.616 238.896 258.616 241.109ZM365 219.717C365 221.93 363.28 223.651 361.069 223.651C358.858 223.651 357.138 221.93 357.138 219.717C357.138 217.504 358.858 215.783 361.069 215.783C363.28 215.783 365 217.504 365 219.717ZM343.625 219.717C343.625 221.93 341.905 223.651 339.694 223.651C337.483 223.651 335.763 221.93 335.763 219.717C335.763 217.504 337.483 215.783 339.694 215.783C341.905 215.783 343.625 217.504 343.625 219.717ZM322.496 219.717C322.496 221.93 320.776 223.651 318.564 223.651C316.353 223.651 314.633 221.93 314.633 219.717C314.633 217.504 316.353 215.783 318.564 215.783C320.776 215.783 322.496 217.504 322.496 219.717ZM301.121 219.717C301.121 221.93 299.401 223.651 297.189 223.651C294.978 223.651 293.258 221.93 293.258 219.717C293.258 217.504 294.978 215.783 297.189 215.783C299.401 215.783 301.121 217.504 301.121 219.717ZM279.991 219.717C279.991 221.93 278.271 223.651 276.06 223.651C273.849 223.651 272.129 221.93 272.129 219.717C272.129 217.504 273.849 215.783 276.06 215.783C278.271 215.783 279.991 217.504 279.991 219.717ZM258.616 219.717C258.616 221.93 256.896 223.651 254.685 223.651C252.474 223.651 251 221.684 251 219.717C251 217.504 252.72 215.783 254.931 215.783C256.896 215.783 258.616 217.504 258.616 219.717ZM365 198.326C365 200.538 363.28 202.26 361.069 202.26C358.858 202.26 357.138 200.538 357.138 198.326C357.138 196.113 358.858 194.391 361.069 194.391C363.28 194.391 365 196.113 365 198.326ZM343.625 198.326C343.625 200.538 341.905 202.26 339.694 202.26C337.483 202.26 335.763 200.538 335.763 198.326C335.763 196.113 337.483 194.391 339.694 194.391C341.905 194.391 343.625 196.113 343.625 198.326ZM322.496 198.326C322.496 200.538 320.776 202.26 318.564 202.26C316.353 202.26 314.633 200.538 314.633 198.326C314.633 196.113 316.353 194.391 318.564 194.391C320.776 194.391 322.496 196.113 322.496 198.326ZM301.121 198.326C301.121 200.538 299.401 202.26 297.189 202.26C294.978 202.26 293.258 200.538 293.258 198.326C293.258 196.113 294.978 194.391 297.189 194.391C299.401 194.391 301.121 196.113 301.121 198.326ZM279.991 198.326C279.991 200.538 278.271 202.26 276.06 202.26C273.849 202.26 272.129 200.538 272.129 198.326C272.129 196.113 273.849 194.391 276.06 194.391C278.271 194.391 279.991 196.113 279.991 198.326ZM258.616 198.326C258.616 200.538 256.896 202.26 254.685 202.26C252.474 202.26 251 200.293 251 198.326C251 196.113 252.72 194.391 254.931 194.391C257.142 194.391 258.616 196.113 258.616 198.326ZM365 176.934C365 179.147 363.28 180.868 361.069 180.868C358.858 180.868 357.138 179.147 357.138 176.934C357.138 174.721 359.103 173 361.069 173C363.28 173 365 174.721 365 176.934ZM343.625 176.934C343.625 179.147 341.905 180.868 339.694 180.868C337.483 180.868 335.763 179.147 335.763 176.934C335.763 174.721 337.728 173 339.939 173C341.905 173 343.625 174.721 343.625 176.934ZM322.496 176.934C322.496 179.147 320.776 180.868 318.564 180.868C316.353 180.868 314.633 179.147 314.633 176.934C314.879 174.721 316.599 173 318.564 173C320.776 173 322.496 174.721 322.496 176.934ZM301.121 176.934C301.121 179.147 299.401 180.868 297.189 180.868C294.978 180.868 293.258 179.147 293.258 176.934C293.258 174.721 295.224 173 297.435 173C299.401 173 301.121 174.721 301.121 176.934ZM279.991 176.934C279.991 179.147 278.271 180.868 276.06 180.868C273.849 180.868 272.129 179.147 272.129 176.934C272.129 174.721 274.095 173 276.06 173C278.271 173 279.991 174.721 279.991 176.934ZM258.616 176.934C258.616 179.147 256.896 180.868 254.685 180.868C252.72 180.622 251 178.901 251 176.934C251 174.967 252.72 173 254.931 173C256.896 173 258.616 174.721 258.616 176.934Z" fill="white"/>
</g>
</g>
<path d="M-6 0L1531 0V1562C1531 1562 1458.5 1573.69 1440 1579.5C1421.5 1585.31 1420.5 1609.7 1406.5 1610.5C1392.5 1611.3 1386 1581.69 1366 1584C1346 1586.31 1268.53 1598.43 1252.5 1609C1207 1639 1192 1707.5 1151.5 1708.5C1111 1709.5 1114.5 1635.5 1061.5 1609C1008.5 1582.5 -6 1562 -6 1562V0Z" fill="url(#paint0_linear)"/>
<path opacity="0.2" d="M1334.1 113.58C1350.1 14.78 1458.43 7.08001 1510.6 15.58H1539.6L1558.1 401.08C1542.26 409.58 1500.5 435.28 1460.1 470.08C1409.6 513.58 1314.1 569.58 1225.6 563.08C1137.1 556.58 965.598 470.08 977.598 390.58C989.598 311.08 1074.6 235.58 1189.6 219.58C1304.6 203.58 1314.1 237.08 1334.1 113.58Z" fill="url(#paint1_linear)"/>
<g style="mix-blend-mode:color-dodge" opacity="0.5">
<g clip-path="url(#clip1)">
<path opacity="0.25" d="M432.4 671.6C397.4 685.5 357.7 668.4 343.8 633.4C329.9 598.4 347 558.7 382 544.8C417 530.9 456.7 548 470.6 583" stroke="url(#paint2_linear)" stroke-width="20" stroke-miterlimit="10"/>
<path opacity="0.25" d="M444.2 587.3C455.8 607.7 448.6 633.6 428.2 645.2C407.8 656.8 381.9 649.6 370.3 629.2C358.7 608.8 365.9 582.9 386.3 571.3" stroke="url(#paint3_linear)" stroke-width="7.2005" stroke-miterlimit="10"/>
</g>
</g>
<g opacity="0.3">
<path d="M1327.5 631.5C1334.68 631.5 1340.5 625.68 1340.5 618.5C1340.5 611.32 1334.68 605.5 1327.5 605.5C1320.32 605.5 1314.5 611.32 1314.5 618.5C1314.5 625.68 1320.32 631.5 1327.5 631.5Z" stroke="#00FFE9" stroke-width="2" stroke-miterlimit="10"/>
</g>
<g style="mix-blend-mode:color-dodge" opacity="0.7">
<g clip-path="url(#clip2)">
<path opacity="0.25" d="M98.7455 849.983C93.5473 812.684 119.579 778.175 156.878 772.977C194.176 767.779 228.685 793.811 233.883 831.109C239.081 868.408 213.05 902.917 175.751 908.115" stroke="url(#paint4_linear)" stroke-width="20" stroke-miterlimit="10"/>
</g>
</g>
<g clip-path="url(#clip3)">
<path opacity="0.25" d="M1018.3 1452.5C1018.3 1498.6 980.9 1536 934.8 1536" stroke="url(#paint5_linear)" stroke-width="3.6744" stroke-miterlimit="10"/>
<path opacity="0.25" d="M959.8 1515.8C924.8 1529.7 885.2 1512.5 871.4 1477.6" stroke="url(#paint6_linear)" stroke-width="2.9958" stroke-miterlimit="10"/>
<path opacity="0.25" d="M913.7 1508.7C882.7 1497.1 866.9 1462.5 878.5 1431.5" stroke="url(#paint7_linear)" stroke-width="2.6396" stroke-miterlimit="10"/>
</g>
<path opacity="0.4" d="M263.43 946.317C179.83 865.917 61.2631 930.483 12.4297 972.817L-16.0703 1008.82C-24.4036 1172.98 -30.3703 1504.02 12.4297 1514.82C65.9297 1528.32 156.93 1472.82 198.93 1390.82C240.93 1308.82 316.43 1254.32 388.93 1274.82C461.43 1295.32 502.93 1284.32 500.93 1221.82C498.93 1159.32 439.93 1164.82 373.43 1179.82C306.93 1194.82 367.93 1046.82 263.43 946.317Z" fill="url(#paint8_linear)"/>
<g opacity="0.2">
<g clip-path="url(#clip4)">
<path d="M1347.76 851C1349.72 851 1351.24 852.524 1351.24 854.483C1351.24 856.442 1349.72 857.966 1347.76 857.966C1345.8 857.966 1344.28 856.442 1344.28 854.483C1344.5 852.524 1346.02 851 1347.76 851ZM1366.68 851C1368.64 851 1370.16 852.524 1370.16 854.483C1370.16 856.442 1368.64 857.966 1366.68 857.966C1364.72 857.966 1363.2 856.442 1363.2 854.483C1363.2 852.524 1364.94 851 1366.68 851ZM1385.6 851C1387.56 851 1389.08 852.524 1389.08 854.483C1389.08 856.442 1387.56 857.966 1385.6 857.966C1383.64 857.966 1382.12 856.442 1382.12 854.483C1382.12 852.524 1383.86 851 1385.6 851ZM1404.52 851C1406.48 851 1408 852.524 1408 854.483C1408 856.442 1406.48 857.966 1404.52 857.966C1402.56 857.966 1401.04 856.442 1401.04 854.483C1401.26 852.524 1402.78 851 1404.52 851ZM1347.76 869.937C1349.72 869.937 1351.24 871.461 1351.24 873.42C1351.24 875.379 1349.72 876.903 1347.76 876.903C1345.8 876.903 1344.28 875.379 1344.28 873.42C1344.5 871.461 1346.02 869.937 1347.76 869.937ZM1366.68 869.937C1368.64 869.937 1370.16 871.461 1370.16 873.42C1370.16 875.379 1368.64 876.903 1366.68 876.903C1364.72 876.903 1363.2 875.379 1363.2 873.42C1363.42 871.461 1364.94 869.937 1366.68 869.937ZM1385.6 869.937C1387.56 869.937 1389.08 871.461 1389.08 873.42C1389.08 875.379 1387.56 876.903 1385.6 876.903C1383.64 876.903 1382.12 875.379 1382.12 873.42C1382.34 871.461 1383.86 869.937 1385.6 869.937ZM1404.52 869.937C1406.48 869.937 1408 871.461 1408 873.42C1408 875.379 1406.48 876.903 1404.52 876.903C1402.56 876.903 1401.04 875.379 1401.04 873.42C1401.26 871.461 1402.78 869.937 1404.52 869.937ZM1347.76 888.657C1349.72 888.657 1351.24 890.181 1351.24 892.14C1351.24 894.099 1349.72 895.623 1347.76 895.623C1345.8 895.623 1344.28 894.099 1344.28 892.14C1344.5 890.181 1346.02 888.657 1347.76 888.657ZM1366.68 888.657C1368.64 888.657 1370.16 890.181 1370.16 892.14C1370.16 894.099 1368.64 895.623 1366.68 895.623C1364.72 895.623 1363.2 894.099 1363.2 892.14C1363.42 890.181 1364.94 888.657 1366.68 888.657ZM1385.6 888.657C1387.56 888.657 1389.08 890.181 1389.08 892.14C1389.08 894.099 1387.56 895.623 1385.6 895.623C1383.64 895.623 1382.12 894.099 1382.12 892.14C1382.34 890.181 1383.86 888.657 1385.6 888.657ZM1404.52 888.657C1406.48 888.657 1408 890.181 1408 892.14C1408 894.099 1406.48 895.623 1404.52 895.623C1402.56 895.623 1401.04 894.099 1401.04 892.14C1401.26 890.181 1402.78 888.657 1404.52 888.657ZM1347.76 907.595C1349.72 907.595 1351.24 909.119 1351.24 911.078C1351.24 913.037 1349.72 914.56 1347.76 914.56C1345.8 914.56 1344.28 913.037 1344.28 911.078C1344.28 909.119 1346.02 907.595 1347.76 907.595ZM1366.68 907.595C1368.64 907.595 1370.16 909.119 1370.16 911.078C1370.16 913.037 1368.64 914.56 1366.68 914.56C1364.72 914.56 1363.2 913.037 1363.2 911.078C1363.2 909.119 1364.94 907.595 1366.68 907.595ZM1385.6 907.595C1387.56 907.595 1389.08 909.119 1389.08 911.078C1389.08 913.037 1387.56 914.56 1385.6 914.56C1383.64 914.56 1382.12 913.037 1382.12 911.078C1382.34 909.119 1383.86 907.595 1385.6 907.595ZM1404.52 907.595C1406.48 907.595 1408 909.119 1408 911.078C1408 913.037 1406.48 914.56 1404.52 914.56C1402.56 914.56 1401.04 913.037 1401.04 911.078C1401.26 909.119 1402.78 907.595 1404.52 907.595ZM1347.76 926.315C1349.72 926.315 1351.24 927.838 1351.24 929.797C1351.24 931.756 1349.72 933.28 1347.76 933.28C1345.8 933.28 1344.28 931.756 1344.28 929.797C1344.5 927.838 1346.02 926.315 1347.76 926.315ZM1366.68 926.315C1368.64 926.315 1370.16 927.838 1370.16 929.797C1370.16 931.756 1368.64 933.28 1366.68 933.28C1364.72 933.28 1363.2 931.756 1363.2 929.797C1363.42 927.838 1364.94 926.315 1366.68 926.315ZM1385.6 926.315C1387.56 926.315 1389.08 927.838 1389.08 929.797C1389.08 931.756 1387.56 933.28 1385.6 933.28C1383.64 933.28 1382.12 931.756 1382.12 929.797C1382.34 927.838 1383.86 926.315 1385.6 926.315ZM1404.52 926.315C1406.48 926.315 1408 927.838 1408 929.797C1408 931.756 1406.48 933.28 1404.52 933.28C1402.56 933.28 1401.04 931.756 1401.04 929.797C1401.26 927.838 1402.78 926.315 1404.52 926.315ZM1309.92 851C1311.88 851 1313.4 852.524 1313.4 854.483C1313.4 856.442 1311.88 857.966 1309.92 857.966C1307.96 857.966 1306.44 856.442 1306.44 854.483C1306.44 852.524 1308.18 851 1309.92 851ZM1309.92 869.937C1311.88 869.937 1313.4 871.461 1313.4 873.42C1313.4 875.379 1311.88 876.903 1309.92 876.903C1307.96 876.903 1306.44 875.379 1306.44 873.42C1306.66 871.461 1308.18 869.937 1309.92 869.937ZM1309.92 888.657C1311.88 888.657 1313.4 890.181 1313.4 892.14C1313.4 894.099 1311.88 895.623 1309.92 895.623C1307.96 895.623 1306.44 894.099 1306.44 892.14C1306.66 890.181 1308.18 888.657 1309.92 888.657ZM1309.92 907.595C1311.88 907.595 1313.4 909.119 1313.4 911.078C1313.4 913.037 1311.88 914.56 1309.92 914.56C1307.96 914.56 1306.44 913.037 1306.44 911.078C1306.44 909.119 1308.18 907.595 1309.92 907.595ZM1309.92 926.315C1311.88 926.315 1313.4 927.838 1313.4 929.797C1313.4 931.756 1311.88 933.28 1309.92 933.28C1307.96 933.28 1306.44 931.756 1306.44 929.797C1306.44 927.838 1308.18 926.315 1309.92 926.315ZM1309.92 945.252C1311.88 945.252 1313.4 946.776 1313.4 948.735C1313.4 950.694 1311.88 952.218 1309.92 952.218C1307.96 952.218 1306.44 950.694 1306.44 948.735C1306.44 946.776 1308.18 945.252 1309.92 945.252ZM1328.84 851C1330.8 851 1332.32 852.524 1332.32 854.483C1332.32 856.442 1330.8 857.966 1328.84 857.966C1326.88 857.966 1325.36 856.442 1325.36 854.483C1325.36 852.524 1327.1 851 1328.84 851ZM1328.84 869.937C1330.8 869.937 1332.32 871.461 1332.32 873.42C1332.32 875.379 1330.8 876.903 1328.84 876.903C1326.88 876.903 1325.36 875.379 1325.36 873.42C1325.58 871.461 1327.1 869.937 1328.84 869.937ZM1328.84 888.657C1330.8 888.657 1332.32 890.181 1332.32 892.14C1332.32 894.099 1330.8 895.623 1328.84 895.623C1326.88 895.623 1325.36 894.099 1325.36 892.14C1325.58 890.181 1327.1 888.657 1328.84 888.657ZM1328.84 907.595C1330.8 907.595 1332.32 909.119 1332.32 911.078C1332.32 913.037 1330.8 914.56 1328.84 914.56C1326.88 914.56 1325.36 913.037 1325.36 911.078C1325.36 909.119 1327.1 907.595 1328.84 907.595ZM1328.84 926.315C1330.8 926.315 1332.32 927.838 1332.32 929.797C1332.32 931.756 1330.8 933.28 1328.84 933.28C1326.88 933.28 1325.36 931.756 1325.36 929.797C1325.58 927.838 1327.1 926.315 1328.84 926.315ZM1328.84 945.252C1330.8 945.252 1332.32 946.776 1332.32 948.735C1332.32 950.694 1330.8 952.218 1328.84 952.218C1326.88 952.218 1325.36 950.694 1325.36 948.735C1325.58 946.776 1327.1 945.252 1328.84 945.252ZM1291 851C1292.96 851 1294.48 852.524 1294.48 854.483C1294.48 856.442 1292.96 857.966 1291 857.966C1289.04 857.966 1287.52 856.442 1287.52 854.483C1287.52 852.524 1289.04 851 1291 851ZM1291 869.937C1292.96 869.937 1294.48 871.461 1294.48 873.42C1294.48 875.379 1292.96 876.903 1291 876.903C1289.04 876.903 1287.52 875.379 1287.52 873.42C1287.52 871.461 1289.04 869.937 1291 869.937ZM1291 888.657C1292.96 888.657 1294.48 890.181 1294.48 892.14C1294.48 894.099 1292.96 895.623 1291 895.623C1289.04 895.623 1287.52 894.099 1287.52 892.14C1287.52 890.181 1289.04 888.657 1291 888.657ZM1291 907.595C1292.96 907.595 1294.48 909.119 1294.48 911.078C1294.48 913.037 1292.96 914.56 1291 914.56C1289.04 914.56 1287.52 913.037 1287.52 911.078C1287.52 909.119 1289.04 907.595 1291 907.595ZM1291 926.315C1292.96 926.315 1294.48 927.838 1294.48 929.797C1294.48 931.756 1292.96 933.28 1291 933.28C1289.04 933.28 1287.52 931.756 1287.52 929.797C1287.52 927.838 1289.04 926.315 1291 926.315ZM1291 945.252C1292.96 945.252 1294.48 946.776 1294.48 948.735C1294.48 950.694 1292.96 952.218 1291 952.218C1289.04 952.218 1287.52 950.694 1287.52 948.735C1287.52 946.776 1289.04 945.252 1291 945.252ZM1272.08 851C1274.04 851 1275.56 852.524 1275.56 854.483C1275.56 856.442 1274.04 857.748 1272.08 857.748C1270.12 857.748 1268.6 856.224 1268.6 854.265C1268.6 852.306 1270.12 851 1272.08 851ZM1272.08 869.937C1274.04 869.937 1275.56 871.461 1275.56 873.42C1275.56 875.379 1274.04 876.903 1272.08 876.903C1270.12 876.903 1268.6 875.379 1268.6 873.42C1268.6 871.461 1270.12 869.937 1272.08 869.937ZM1272.08 888.657C1274.04 888.657 1275.56 890.181 1275.56 892.14C1275.56 894.099 1274.04 895.623 1272.08 895.623C1270.12 895.623 1268.6 894.099 1268.6 892.14C1268.6 890.181 1270.12 888.657 1272.08 888.657ZM1272.08 907.595C1274.04 907.595 1275.56 909.119 1275.56 911.078C1275.56 913.037 1274.04 914.56 1272.08 914.56C1270.12 914.56 1268.6 913.037 1268.6 911.078C1268.6 909.119 1270.12 907.595 1272.08 907.595ZM1272.08 926.315C1274.04 926.315 1275.56 927.838 1275.56 929.797C1275.56 931.756 1274.04 933.28 1272.08 933.28C1270.12 933.28 1268.6 931.756 1268.6 929.797C1268.6 927.838 1270.12 926.315 1272.08 926.315ZM1272.08 945.252C1274.04 945.252 1275.56 946.776 1275.56 948.735C1275.56 950.694 1274.04 952.218 1272.08 952.218C1270.12 952.218 1268.6 950.694 1268.6 948.735C1268.6 946.776 1270.12 945.252 1272.08 945.252ZM1253.16 851C1255.12 851 1256.64 852.524 1256.64 854.483C1256.64 856.442 1255.12 857.966 1253.16 857.966C1251.2 857.966 1249.68 856.442 1249.68 854.483C1249.68 852.524 1251.2 851 1253.16 851ZM1253.16 869.937C1255.12 869.937 1256.64 871.461 1256.64 873.42C1256.64 875.379 1255.12 876.903 1253.16 876.903C1251.2 876.903 1249.68 875.379 1249.68 873.42C1249.68 871.461 1251.2 869.937 1253.16 869.937ZM1253.16 888.657C1255.12 888.657 1256.64 890.181 1256.64 892.14C1256.64 894.099 1255.12 895.623 1253.16 895.623C1251.2 895.623 1249.68 894.099 1249.68 892.14C1249.68 890.181 1251.2 888.657 1253.16 888.657ZM1253.16 907.595C1255.12 907.595 1256.64 909.119 1256.64 911.078C1256.64 913.037 1255.12 914.56 1253.16 914.56C1251.2 914.56 1249.68 913.037 1249.68 911.078C1249.68 909.119 1251.2 907.595 1253.16 907.595ZM1253.16 926.315C1255.12 926.315 1256.64 927.838 1256.64 929.797C1256.64 931.756 1255.12 933.28 1253.16 933.28C1251.2 933.28 1249.68 931.756 1249.68 929.797C1249.68 927.838 1251.2 926.315 1253.16 926.315ZM1253.16 945.252C1255.12 945.252 1256.64 946.776 1256.64 948.735C1256.64 950.694 1255.12 952.218 1253.16 952.218C1251.2 952.218 1249.68 950.694 1249.68 948.735C1249.68 946.776 1251.2 945.252 1253.16 945.252ZM1234.24 851C1236.2 851 1237.72 852.524 1237.72 854.483C1237.72 856.442 1236.2 857.966 1234.24 857.966C1232.28 857.966 1230.76 856.442 1230.76 854.483C1230.76 852.524 1232.28 851 1234.24 851ZM1234.24 869.937C1236.2 869.937 1237.72 871.461 1237.72 873.42C1237.72 875.379 1236.2 876.903 1234.24 876.903C1232.28 876.903 1230.76 875.379 1230.76 873.42C1230.76 871.461 1232.28 869.937 1234.24 869.937ZM1234.24 888.657C1236.2 888.657 1237.72 890.181 1237.72 892.14C1237.72 894.099 1236.2 895.623 1234.24 895.623C1232.28 895.623 1230.76 894.099 1230.76 892.14C1230.76 890.181 1232.28 888.657 1234.24 888.657ZM1234.24 907.595C1236.2 907.595 1237.72 909.119 1237.72 911.078C1237.72 913.037 1236.2 914.56 1234.24 914.56C1232.28 914.56 1230.76 913.037 1230.76 911.078C1230.76 909.119 1232.28 907.595 1234.24 907.595ZM1234.24 926.315C1236.2 926.315 1237.72 927.838 1237.72 929.797C1237.72 931.756 1236.2 933.28 1234.24 933.28C1232.28 933.28 1230.76 931.756 1230.76 929.797C1230.76 927.838 1232.28 926.315 1234.24 926.315ZM1234.24 945.252C1236.2 945.252 1237.72 946.776 1237.72 948.735C1237.72 950.694 1236.2 952.218 1234.24 952.218C1232.28 952.218 1230.76 950.694 1230.76 948.735C1230.76 946.776 1232.28 945.252 1234.24 945.252ZM1215.32 851C1217.28 851 1218.8 852.524 1218.8 854.483C1218.8 856.442 1217.06 857.748 1215.32 857.748C1213.36 857.748 1211.84 856.224 1211.84 854.265C1211.84 852.306 1213.36 851 1215.32 851ZM1215.32 869.937C1217.28 869.937 1218.8 871.461 1218.8 873.42C1218.8 875.379 1217.28 876.903 1215.32 876.903C1213.36 876.903 1211.84 875.379 1211.84 873.42C1211.84 871.461 1213.36 869.937 1215.32 869.937ZM1215.32 888.657C1217.28 888.657 1218.8 890.181 1218.8 892.14C1218.8 894.099 1217.28 895.623 1215.32 895.623C1213.36 895.623 1211.84 894.099 1211.84 892.14C1211.84 890.181 1213.36 888.657 1215.32 888.657ZM1215.32 907.595C1217.28 907.595 1218.8 909.119 1218.8 911.078C1218.8 913.037 1217.28 914.56 1215.32 914.56C1213.36 914.56 1211.84 913.037 1211.84 911.078C1211.84 909.119 1213.36 907.595 1215.32 907.595ZM1215.32 926.315C1217.28 926.315 1218.8 927.838 1218.8 929.797C1218.8 931.756 1217.28 933.28 1215.32 933.28C1213.36 933.28 1211.84 931.756 1211.84 929.797C1211.84 927.838 1213.36 926.315 1215.32 926.315ZM1215.32 945.252C1217.28 945.252 1218.8 946.776 1218.8 948.735C1218.8 950.694 1217.28 952.218 1215.32 952.218C1213.36 952.218 1211.84 950.694 1211.84 948.735C1211.84 946.776 1213.36 945.252 1215.32 945.252ZM1196.4 851C1198.36 851 1199.88 852.524 1199.88 854.483C1199.88 856.442 1198.36 857.966 1196.4 857.966C1194.44 857.966 1192.92 856.442 1192.92 854.483C1192.92 852.524 1194.44 851 1196.4 851ZM1196.4 869.937C1198.36 869.937 1199.88 871.461 1199.88 873.42C1199.88 875.379 1198.36 876.903 1196.4 876.903C1194.44 876.903 1192.92 875.379 1192.92 873.42C1192.92 871.461 1194.44 869.937 1196.4 869.937ZM1196.4 888.657C1198.36 888.657 1199.88 890.181 1199.88 892.14C1199.88 894.099 1198.36 895.623 1196.4 895.623C1194.44 895.623 1192.92 894.099 1192.92 892.14C1192.92 890.181 1194.44 888.657 1196.4 888.657ZM1196.4 907.595C1198.36 907.595 1199.88 909.119 1199.88 911.078C1199.88 913.037 1198.36 914.56 1196.4 914.56C1194.44 914.56 1192.92 913.037 1192.92 911.078C1192.92 909.119 1194.44 907.595 1196.4 907.595ZM1196.4 926.315C1198.36 926.315 1199.88 927.838 1199.88 929.797C1199.88 931.756 1198.36 933.28 1196.4 933.28C1194.44 933.28 1192.92 931.756 1192.92 929.797C1192.92 927.838 1194.44 926.315 1196.4 926.315ZM1196.4 945.252C1198.36 945.252 1199.88 946.776 1199.88 948.735C1199.88 950.694 1198.36 952.218 1196.4 952.218C1194.44 952.218 1192.92 950.694 1192.92 948.735C1192.92 946.776 1194.44 945.252 1196.4 945.252ZM1177.48 851C1179.44 851 1180.96 852.524 1180.96 854.483C1180.96 856.442 1179.22 857.748 1177.48 857.748C1175.52 857.748 1174 856.224 1174 854.483C1174 852.741 1175.52 851 1177.48 851ZM1177.48 869.937C1179.44 869.937 1180.96 871.461 1180.96 873.42C1180.96 875.379 1179.44 876.903 1177.48 876.903C1175.52 876.903 1174 875.379 1174 873.42C1174 871.461 1175.52 869.937 1177.48 869.937ZM1177.48 888.657C1179.44 888.657 1180.96 890.181 1180.96 892.14C1180.96 894.099 1179.44 895.623 1177.48 895.623C1175.52 895.623 1174 894.099 1174 892.14C1174 890.181 1175.52 888.657 1177.48 888.657ZM1177.48 907.595C1179.44 907.595 1180.96 909.119 1180.96 911.078C1180.96 913.037 1179.44 914.56 1177.48 914.56C1175.52 914.56 1174 913.037 1174 911.078C1174 909.119 1175.52 907.595 1177.48 907.595ZM1177.48 926.315C1179.44 926.315 1180.96 927.838 1180.96 929.797C1180.96 931.756 1179.44 933.28 1177.48 933.28C1175.52 933.062 1174 931.539 1174 929.797C1174 927.838 1175.52 926.315 1177.48 926.315ZM1177.48 945.252C1179.44 945.252 1180.96 946.776 1180.96 948.735C1180.96 950.694 1179.44 952.218 1177.48 952.218C1175.52 952.218 1174 950.694 1174 948.735C1174 946.776 1175.52 945.252 1177.48 945.252ZM1347.76 945.252C1349.72 945.252 1351.24 946.776 1351.24 948.735C1351.24 950.694 1349.72 952.218 1347.76 952.218C1345.8 952.218 1344.28 950.694 1344.28 948.735C1344.5 946.776 1346.02 945.252 1347.76 945.252ZM1366.68 945.252C1368.64 945.252 1370.16 946.776 1370.16 948.735C1370.16 950.694 1368.64 952.218 1366.68 952.218C1364.72 952.218 1363.2 950.694 1363.2 948.735C1363.2 946.776 1364.94 945.252 1366.68 945.252ZM1385.6 945.252C1387.56 945.252 1389.08 946.776 1389.08 948.735C1389.08 950.694 1387.56 952.218 1385.6 952.218C1383.64 952.218 1382.12 950.694 1382.12 948.735C1382.12 946.776 1383.86 945.252 1385.6 945.252ZM1404.52 945.252C1406.48 945.252 1408 946.776 1408 948.735C1408 950.694 1406.48 952.218 1404.52 952.218C1402.56 952.218 1401.04 950.694 1401.04 948.735C1401.04 946.776 1402.78 945.252 1404.52 945.252Z" fill="white"/>
</g>
</g>
<defs>
<linearGradient id="paint0_linear" x1="118.563" y1="849.71" x2="1383.41" y2="765.571" gradientUnits="userSpaceOnUse">
<stop stop-color="#3241C9"/>
<stop offset="1" stop-color="#6E02A0"/>
</linearGradient>
<linearGradient id="paint1_linear" x1="1267.55" y1="13" x2="1267.55" y2="563.598" gradientUnits="userSpaceOnUse">
<stop stop-color="#8D7AFF"/>
<stop offset="1" stop-color="#2CB7CA"/>
</linearGradient>
<linearGradient id="paint2_linear" x1="436.106" y1="680.92" x2="378.356" y2="535.543" gradientUnits="userSpaceOnUse">
<stop stop-color="#8B1CB5"/>
<stop offset="0.0210538" stop-color="#891CB5"/>
<stop offset="0.2882" stop-color="#6E1CBA"/>
<stop offset="0.5263" stop-color="#5E1CBC"/>
<stop offset="0.7097" stop-color="#581CBD"/>
</linearGradient>
<linearGradient id="paint3_linear" x1="447.319" y1="585.498" x2="367.144" y2="630.964" gradientUnits="userSpaceOnUse">
<stop stop-color="#8B1CB5"/>
<stop offset="0.0210538" stop-color="#891CB5"/>
<stop offset="0.2882" stop-color="#6E1CBA"/>
<stop offset="0.5263" stop-color="#5E1CBC"/>
<stop offset="0.7097" stop-color="#581CBD"/>
</linearGradient>
<linearGradient id="paint4_linear" x1="88.8126" y1="851.372" x2="243.74" y2="829.766" gradientUnits="userSpaceOnUse">
<stop stop-color="#8B1CB5"/>
<stop offset="0.0210538" stop-color="#891CB5"/>
<stop offset="0.2882" stop-color="#6E1CBA"/>
<stop offset="0.5263" stop-color="#5E1CBC"/>
<stop offset="0.7097" stop-color="#581CBD"/>
</linearGradient>
<linearGradient id="paint5_linear" x1="1020.11" y1="1495.15" x2="934.722" y2="1495.15" gradientUnits="userSpaceOnUse">
<stop stop-color="#8B1CB5"/>
<stop offset="0.0210538" stop-color="#891CB5"/>
<stop offset="0.2882" stop-color="#6E1CBA"/>
<stop offset="0.5263" stop-color="#5E1CBC"/>
<stop offset="0.7097" stop-color="#581CBD"/>
</linearGradient>
<linearGradient id="paint6_linear" x1="902.362" y1="1465.28" x2="928.001" y2="1530" gradientUnits="userSpaceOnUse">
<stop stop-color="#8B1CB5"/>
<stop offset="0.0210538" stop-color="#891CB5"/>
<stop offset="0.2882" stop-color="#6E1CBA"/>
<stop offset="0.5263" stop-color="#5E1CBC"/>
<stop offset="0.7097" stop-color="#581CBD"/>
</linearGradient>
<linearGradient id="paint7_linear" x1="884.531" y1="1499.19" x2="905.992" y2="1441.73" gradientUnits="userSpaceOnUse">
<stop stop-color="#8B1CB5"/>
<stop offset="0.0210538" stop-color="#891CB5"/>
<stop offset="0.2882" stop-color="#6E1CBA"/>
<stop offset="0.5263" stop-color="#5E1CBC"/>
<stop offset="0.7097" stop-color="#581CBD"/>
</linearGradient>
<linearGradient id="paint8_linear" x1="239.499" y1="908" x2="239.499" y2="1516.84" gradientUnits="userSpaceOnUse">
<stop stop-color="#0272C4"/>
<stop offset="1" stop-color="#4802A2"/>
</linearGradient>
<clipPath id="clip0">
<rect x="251" y="173" width="114" height="179" fill="white"/>
</clipPath>
<clipPath id="clip1">
<rect x="329" y="530" width="150.9" height="156.5" fill="white"/>
</clipPath>
<clipPath id="clip2">
<rect x="260.836" y="783.135" width="150.9" height="156.5" transform="rotate(103.726 260.836 783.135)" fill="white"/>
</clipPath>
<clipPath id="clip3">
<rect x="870" y="1431" width="150.1" height="106.8" fill="white"/>
</clipPath>
<clipPath id="clip4">
<rect x="1174" y="851" width="234" height="101" fill="white"/>
</clipPath>
</defs>
</svg>
