<svg width="291" height="297" viewBox="0 0 291 297" fill="none" xmlns="http://www.w3.org/2000/svg">
<g filter="url(#filter0_d)">
<g clip-path="url(#clip0)">
<path d="M77.8449 242.661C71.6658 225.283 74.7212 205.454 85.7269 190.679C95.7414 177.234 111.494 168.615 128.096 166.777C139.144 165.555 150.492 167.277 160.677 171.732C153.868 153.936 156.491 133.781 166.723 117.83C171.392 110.551 177.592 105.604 184.435 100.564C191.797 95.1414 201.429 91.9856 210.399 90.7432C228.002 88.3048 246.398 92.909 260.598 103.625C275.007 114.498 283.967 131.243 285.74 149.149C287.523 167.154 282.245 184.789 272.868 200.077C271.694 201.991 270.461 203.869 269.172 205.708C269.172 205.708 253.905 223.572 248.02 228.711C192.56 277.137 114.979 293.699 41.7566 287.888C38.8508 287.307 36.5263 286.726 34.2019 284.982C32.4583 283.239 30.7153 280.333 29.5531 278.008C28.9717 276.846 28.3909 275.684 27.2287 273.94C16.7682 258.25 12.1194 241.978 8.6322 223.963C6.30778 214.665 5.72639 205.367 5.14557 196.069C4.56419 185.028 5.14557 174.567 6.30778 163.526C8.05138 152.484 9.91294 142.193 12.1188 131.563C15.3153 116.163 21.8844 99.8072 21.8844 99.8072C26.0665 86.8163 33.0397 74.6129 37.1077 61.828C36.5263 53.1111 36.5263 43.8129 40.0135 35.0961C41.1757 32.1902 41.7571 29.285 43.5002 26.3792C44.0816 25.7978 44.6624 25.217 45.2438 24.6356C52.7984 11.2694 66.7455 3.71472 81.2739 1.3903C91.153 0.228092 100.451 -0.353295 109.749 0.228092C114.98 0.809478 119.629 3.71472 123.116 7.78273C129.508 16.4996 131.252 26.3792 134.157 36.2583C134.738 38.5827 134.738 40.9071 133.576 42.6507C132.994 43.8129 132.413 45.5565 131.832 46.7187C126.602 54.2733 117.304 56.0169 109.749 60.085C103.356 62.9908 96.3826 58.9228 94.0582 52.5303C93.4768 51.9489 92.896 51.3681 92.3146 50.7867L90.3515 50.8804C90.3515 50.8804 87.5789 60.3553 67.2586 68.4677L67.6842 71.7308C97.3654 135.408 83.6971 194.428 83.6971 194.428" fill="#F9CFBF"/>
<path d="M77.7865 240.235C77.7865 240.235 79.5301 201.88 84.1789 192.001C90.5713 157.715 86.3599 111.797 67.6839 71.7304L67.2583 68.4673C67.326 68.2201 52.7976 69.9637 46.3374 68.4673L46.763 71.7304C72.5562 119.941 77.1678 241.065 77.7865 240.235Z" fill="#F6B99C"/>
<path d="M128.096 166.777C126.933 166.906 125.776 167.071 124.623 167.266C129.825 168.127 134.923 169.618 139.757 171.733C139.093 169.999 138.522 168.243 138.036 166.47C134.722 166.316 131.395 166.412 128.096 166.777Z" fill="#F6B99C"/>
<path d="M102.194 7.78259C108.586 16.4994 110.33 26.3791 113.235 36.2581C113.817 38.5825 113.817 40.907 112.654 42.6506C112.072 43.8128 111.492 45.5564 110.91 46.7186C107.355 51.854 101.92 54.3037 96.4309 56.6242C99.6618 60.4579 104.873 62.3003 109.748 60.0848C117.303 56.0168 126.601 54.2738 131.831 46.7186C132.413 45.5564 132.993 43.8128 133.575 42.6506C134.737 40.907 134.737 38.5825 134.156 36.2581C131.25 26.3791 129.507 16.4994 123.115 7.78259C119.628 3.71458 114.979 0.808776 109.749 0.227954C103.38 -0.169986 97.0072 -0.0141966 90.4517 0.491553C95.0187 1.43701 99.0731 4.14131 102.194 7.78259Z" fill="#F6B99C"/>
<path d="M285.74 149.149C283.966 131.243 275.007 114.498 260.598 103.624C246.398 92.9089 228.002 88.3047 210.398 90.7431C210.028 90.7945 209.656 90.8543 209.283 90.9119C220.243 92.5996 230.783 96.9131 239.677 103.624C254.086 114.498 263.046 131.243 264.819 149.149C266.602 167.154 261.323 184.789 251.947 200.077C250.773 201.991 249.539 203.869 248.251 205.708C248.251 205.708 232.984 223.572 227.099 228.711C181.26 268.736 120.308 286.992 59.1973 288.841C127.111 290.88 196.946 273.308 248.02 228.711C253.905 223.572 269.172 205.708 269.172 205.708C270.46 203.869 271.694 201.991 272.868 200.077C282.244 184.789 287.523 167.155 285.74 149.149Z" fill="#F6B99C"/>
<path d="M95.2204 0.228081C100.451 0.809467 105.099 3.71471 108.587 7.78272C114.979 16.4996 116.723 26.3792 119.628 36.2583C120.209 38.5827 120.209 40.9071 119.047 42.6507C118.465 43.8129 117.884 45.5565 117.303 46.7187C116.13 48.4132 114.752 49.8153 113.235 51.017C108.913 54.4404 103.463 56.2365 98.4006 58.5271C101.568 60.9994 105.771 61.8923 109.748 60.0844C117.303 56.0164 126.601 54.2733 131.831 46.7181C132.413 45.5559 132.994 43.8123 133.575 42.6501C134.737 40.9065 134.737 38.5821 134.156 36.2577C131.251 26.3786 129.508 16.499 123.115 7.78216C119.629 3.71414 114.979 0.808338 109.749 0.227516C104.797 -0.0818042 99.8422 -0.054146 94.8027 0.20776C94.9416 0.216791 95.081 0.219614 95.2204 0.228081Z" fill="#F6B99C"/>
<path d="M160.307 170.499C160.307 170.499 114.229 152.935 84.1786 192.001C78.3675 199.556 70.2315 219.895 77.7861 243.14C77.7861 243.14 79.1572 210.543 108.005 187.933C129.507 171.081 160.307 170.499 160.307 170.499Z" fill="#F6B99C"/>
<path d="M106.262 34.5149C106.262 34.5149 99.2878 28.1225 92.3145 33.3527C85.3407 38.5829 85.3407 44.3939 90.5709 51.3678C95.8012 58.3416 100.45 61.2468 103.937 61.2468C107.424 61.2468 114.255 59.9006 120.209 55.4358C124.857 51.9492 118.465 46.1375 118.465 46.1375C118.465 46.1375 106.574 58.1807 98.7064 43.2317C92.8953 32.1905 106.262 34.5149 106.262 34.5149Z" fill="#F6B99C"/>
<path d="M106.548 232.129L111.81 228.88L126.366 252.448L121.104 255.698L106.548 232.129Z" fill="#2000AD"/>
<path d="M122.482 230.988C123.182 230.218 124.157 229.278 125.363 228.238C126.569 227.197 127.923 226.192 129.413 225.271C130.934 224.332 132.294 223.745 133.543 223.523C134.792 223.301 135.923 223.362 136.954 223.739C137.985 224.116 138.939 224.709 139.806 225.567C140.672 226.426 141.474 227.451 142.229 228.674L148.459 238.762L143.471 241.842L137.618 232.366C136.618 230.746 135.687 229.716 134.846 229.306C134.005 228.897 133.007 229.049 131.82 229.781C131.455 230.007 131.109 230.263 130.702 230.556C130.326 230.831 129.98 231.087 129.683 231.355L138.216 245.172L133.168 248.29L122.482 230.988Z" fill="#2000AD"/>
<path d="M170.145 209.11C171.165 210.76 171.877 212.39 172.293 213.949C172.71 215.507 172.849 217.026 172.742 218.485C172.636 219.945 172.263 221.315 171.656 222.577C171.068 223.869 170.226 225.023 169.198 226.08C169.603 226.463 170.072 226.68 170.607 226.73C171.173 226.76 171.81 226.704 172.501 226.531C173.193 226.357 173.968 226.048 174.785 225.67C175.632 225.273 176.51 224.858 177.46 224.355L178.763 228.914C176.961 229.942 175.358 230.679 173.941 231.174C172.524 231.669 171.214 231.929 170.03 231.985C168.846 232.041 167.799 231.842 166.829 231.428C165.858 231.014 164.984 230.414 164.125 229.635C162.612 230.316 161.059 230.726 159.514 230.878C157.95 230.999 156.425 230.843 154.902 230.348C153.396 229.884 151.942 229.094 150.568 227.958C149.194 226.821 147.95 225.351 146.836 223.548C145.59 221.53 144.799 219.569 144.494 217.647C144.189 215.724 144.247 213.914 144.67 212.217C145.092 210.52 145.849 208.955 146.927 207.571C148.005 206.188 149.325 204.992 150.876 204.034C152.488 203.039 154.149 202.393 155.899 202.03C157.65 201.667 159.357 201.71 161.063 202.092C162.77 202.474 164.384 203.251 165.936 204.404C167.5 205.507 168.899 207.092 170.145 209.11ZM152.261 220.155C152.979 221.317 153.773 222.262 154.613 223.01C155.453 223.758 156.389 224.32 157.302 224.643C158.234 224.996 159.225 225.103 160.211 225C161.198 224.897 162.194 224.536 163.197 223.916C164.171 223.315 164.939 222.587 165.473 221.75C166.038 220.895 166.355 219.981 166.487 218.97C166.589 217.978 166.524 216.921 166.231 215.834C165.939 214.748 165.43 213.584 164.731 212.453C164.014 211.292 163.22 210.346 162.361 209.568C161.502 208.789 160.585 208.257 159.653 207.904C158.721 207.551 157.731 207.445 156.713 207.566C155.696 207.688 154.731 208.03 153.758 208.631C152.754 209.251 151.985 209.979 151.451 210.816C150.918 211.652 150.569 212.585 150.468 213.577C150.366 214.569 150.431 215.627 150.743 216.743C151.043 217.909 151.563 219.024 152.261 220.155Z" fill="#F42061"/>
<path d="M185.63 197.308C185.098 197.468 184.505 197.665 183.821 197.918C183.138 198.172 182.431 198.524 181.731 198.956C181.427 199.144 181.051 199.419 180.663 199.743C180.274 200.067 179.978 200.335 179.772 200.546L188.211 214.21L183.162 217.329L172.722 200.424C173.446 199.555 174.321 198.591 175.368 197.565C176.415 196.538 177.689 195.54 179.21 194.601C179.483 194.432 179.837 194.256 180.221 194.061C180.635 193.848 181.038 193.683 181.452 193.47C181.885 193.287 182.288 193.122 182.74 192.97C183.192 192.817 183.553 192.721 183.883 192.644L185.63 197.308Z" fill="#F42061"/>
<path d="M190.4 181.018C190.967 181.935 191.116 182.856 190.877 183.763C190.59 184.659 190.06 185.366 189.239 185.873C188.418 186.38 187.549 186.537 186.619 186.393C185.69 186.249 184.963 185.685 184.378 184.737C183.812 183.82 183.663 182.898 183.901 181.991C184.188 181.096 184.718 180.389 185.539 179.882C186.36 179.374 187.23 179.217 188.159 179.361C189.107 179.536 189.834 180.101 190.4 181.018ZM204.198 204.379L199.149 207.497L188.105 189.614L193.153 186.496L204.198 204.379Z" fill="#F42061"/>
<path d="M215.019 177.68C214.907 178.382 214.737 179.332 214.509 180.528C214.282 181.724 214.08 183.031 213.856 184.437C213.632 185.842 213.445 187.309 213.266 188.855C213.098 190.352 212.991 191.812 212.907 193.173L221.514 187.857L224.12 192.075L209.399 201.167L207.549 198.171C207.526 197.045 207.545 195.851 207.628 194.49C207.712 193.13 207.827 191.75 207.971 190.351C208.116 188.953 208.28 187.585 208.443 186.217C208.626 184.88 208.785 183.641 208.94 182.532L201.367 187.209L198.78 183.021L212.923 174.286L215.019 177.68Z" fill="#F42061"/>
</g>
</g>
<defs>
<filter id="filter0_d" x="-3" y="0" width="297" height="297" filterUnits="userSpaceOnUse" color-interpolation-filters="sRGB">
<feFlood flood-opacity="0" result="BackgroundImageFix"/>
<feColorMatrix in="SourceAlpha" type="matrix" values="0 0 0 0 0 0 0 0 0 0 0 0 0 0 0 0 0 0 127 0"/>
<feOffset dy="4"/>
<feGaussianBlur stdDeviation="2"/>
<feColorMatrix type="matrix" values="0 0 0 0 0 0 0 0 0 0 0 0 0 0 0 0 0 0 0.25 0"/>
<feBlend mode="normal" in2="BackgroundImageFix" result="effect1_dropShadow"/>
<feBlend mode="normal" in="SourceGraphic" in2="effect1_dropShadow" result="shape"/>
</filter>
<clipPath id="clip0">
<rect x="1" width="289" height="289" fill="white"/>
</clipPath>
</defs>
</svg>
