<svg class="first_screen_image" width="503" height="462" viewBox="0 0 503 462" fill="none" xmlns="http://www.w3.org/2000/svg">
<path opacity="0.1" d="M123.12 372.742C100.819 385.666 100.72 406.482 122.824 419.406C145.026 432.329 181.043 432.329 203.344 419.406C225.644 406.482 225.743 385.666 203.64 372.742C181.437 359.818 145.421 359.818 123.12 372.742Z" fill="black"/>
<path opacity="0.1" d="M31.1789 278.502C15.5881 287.48 15.4894 302.081 30.9815 311.058C46.4737 320.036 71.5375 320.036 87.1283 311.058C102.719 302.081 102.719 287.579 87.3256 278.601C71.8335 269.525 46.7697 269.525 31.1789 278.502Z" fill="black"/>
<path d="M11.8382 249.399L91.1738 250.682L81.6023 299.91H81.5036C80.8128 303.857 77.9512 307.605 72.7214 310.565C60.8803 317.372 41.8357 317.372 30.0933 310.565C24.9621 307.605 22.1005 303.758 21.4098 299.812L11.8382 249.399Z" fill="url(#paint0_linear)"/>
<path d="M23.5807 233.121C7.9899 242.099 7.89124 256.7 23.3834 265.677C38.8756 274.655 63.9393 274.655 79.5301 265.677C95.121 256.7 95.121 242.197 79.7275 233.22C64.2353 224.143 39.0729 224.143 23.5807 233.121Z" fill="#FFE85F"/>
<path d="M32.1655 237.462C20.7191 244.072 20.719 254.628 32.0668 261.238C43.3159 267.749 61.6697 267.749 73.1161 261.238C84.4639 254.628 84.5626 244.072 73.3135 237.462C61.9657 230.951 43.6119 230.951 32.1655 237.462Z" fill="#4D9B12"/>
<path d="M80.4184 241.803C80.4184 241.803 112.093 201.749 80.9118 129.83C80.9118 129.83 53.5785 164.26 69.268 252.556C69.268 252.655 75.3859 250.386 80.4184 241.803Z" fill="#73C139"/>
<path d="M80.6157 130.323C80.0237 158.045 78.4448 206.09 74.5965 249.005C71.6362 251.668 69.268 252.556 69.268 252.556C54.7626 170.278 77.4581 134.762 80.6157 130.323Z" fill="#4D9B12"/>
<path d="M64.8275 236.969C64.8275 236.969 90.1873 192.673 48.7433 126.18C48.7433 126.18 26.8372 164.359 55.4533 249.301C55.4533 249.301 61.1765 246.144 64.8275 236.969Z" fill="#73C139"/>
<path d="M48.7433 126.081C52.2957 153.605 60.0911 201.354 62.6567 244.269C60.0911 247.426 57.9203 248.61 57.9203 248.61C26.8372 174.422 46.2764 130.915 48.7433 126.081Z" fill="#4D9B12"/>
<path d="M63.2487 254.431C63.2487 254.431 101.239 241.014 110.712 179.946C110.712 179.946 77.9514 191.489 51.3089 256.996C51.3089 256.996 56.3414 257.982 63.2487 254.431Z" fill="#73C139"/>
<path d="M110.218 180.045C98.1798 198.296 76.9644 229.767 56.3411 256.798C53.1834 257.39 51.3086 256.996 51.3086 256.996C76.175 195.83 106.271 181.722 110.218 180.045Z" fill="#4D9B12"/>
<path d="M46.375 248.511C46.375 248.511 66.7023 225.327 50.026 180.933C50.026 180.933 32.4617 200.861 39.2703 254.726C39.369 254.726 43.1187 253.542 46.375 248.511Z" fill="#73C139"/>
<path d="M49.8286 181.229C48.6445 198 46.2763 227.004 42.6253 252.753C40.7504 254.332 39.2703 254.726 39.2703 254.726C33.0537 204.511 47.8551 183.794 49.8286 181.229Z" fill="#4D9B12"/>
<path d="M37.3954 233.614C37.3954 233.614 56.8346 198.395 23.2847 146.404C23.2847 146.404 6.50978 176.789 30.1921 243.48C30.1921 243.48 34.5338 240.915 37.3954 233.614Z" fill="#73C139"/>
<path d="M22.9884 146.897C26.146 168.502 31.1785 206.188 33.7441 240.027C31.7706 242.493 30.0931 243.48 30.0931 243.48C8.08821 181.229 21.1135 150.745 22.9884 146.897Z" fill="#4D9B12"/>
<path d="M32.3629 240.224C32.3629 240.224 37.0007 210.529 0.194389 182.708C0.194389 182.708 -3.85134 208.26 29.7973 249.004C29.7973 248.906 32.2642 246.045 32.3629 240.224Z" fill="#73C139"/>
<path d="M0.0960751 183.004C7.89149 197.408 21.0154 222.466 31.4751 245.551C30.7844 247.821 29.7976 248.906 29.7976 248.906C-1.58141 210.924 -0.199953 186.161 0.0960751 183.004Z" fill="#4D9B12"/>
<path opacity="0.1" d="M502.357 393.533L384.538 462L112.587 305.04L233.169 234.107L502.357 393.533Z" fill="black"/>
<path d="M393.419 382.484V395.605L329.871 432.403L329.97 419.381L393.419 382.484Z" fill="#95C4DE"/>
<path d="M329.97 419.381L329.872 432.403L179.39 345.587L179.489 332.564L329.97 419.381Z" fill="#A9D6EA"/>
<path d="M393.418 382.484L329.97 419.381L179.488 332.565L242.937 295.668L393.418 382.484Z" fill="#DEF6FF"/>
<path opacity="0.5" d="M393.418 382.484L179.488 332.565L242.937 295.668L393.418 382.484Z" fill="#DEF6FF"/>
<path d="M334.806 395.112L346.055 388.601L346.351 271.202L335.102 277.713L334.806 395.112Z" fill="#95C4DE"/>
<path d="M335.101 277.713L346.35 271.202L244.22 212.206L232.872 218.717L335.101 277.713Z" fill="#C0C5D1"/>
<path d="M232.874 218.718L232.577 336.117L334.806 395.112L335.102 277.713L232.874 218.718Z" fill="#A9D6EA"/>
<path d="M437.725 408.529L448.579 405.471L495.253 175.31L484.399 178.368L437.725 408.529Z" fill="#95C4DE"/>
<path d="M484.399 178.368L495.253 175.309L191.626 0L180.772 3.0583L484.399 178.368Z" fill="#A9D6EA"/>
<path d="M180.772 3.05835L133.999 233.22L437.725 408.529L484.398 178.368L180.772 3.05835Z" fill="#DEF6FF"/>
<path d="M188.863 21.4082L147.419 228.78L428.547 391.363L471.669 181.327L188.863 21.4082Z" fill="url(#paint1_linear)"/>
<path d="M224.387 68.0718L222.512 76.0628L267.015 101.713L268.791 93.722L224.387 68.0718Z" fill="#649DD5"/>
<path d="M307.473 194.942L204.553 135.552L182.154 234.7L285.073 294.09L307.473 194.942ZM198.633 194.942L208.698 150.35L296.125 200.763L286.06 245.354L198.633 194.942Z" fill="#649DD5"/>
<path d="M212.348 100.825L210.671 108.323L313.59 167.713L315.268 160.314L212.348 100.825Z" fill="#649DD5"/>
<path d="M345.266 190.699L343.884 196.915L405.36 232.332L406.741 226.116L345.266 190.699Z" fill="#649DD5"/>
<path d="M348.423 176.592L347.042 182.807L408.517 218.323L409.898 212.108L348.423 176.592Z" fill="#649DD5"/>
<path d="M419.174 204.314L340.628 159.031L306.288 311.256L384.835 356.538L419.174 204.314ZM318.82 308L328.786 263.803L390.262 299.318L380.295 343.614L318.82 308ZM336.878 227.794L338.259 221.579L399.735 257.094L398.353 263.309L336.878 227.794ZM347.042 182.807L348.423 176.592L409.898 212.108L408.517 218.323L347.042 182.807ZM340.036 213.785L341.417 207.57L402.892 243.085L401.511 249.301L340.036 213.785ZM343.884 196.915L345.265 190.7L406.741 226.215L405.359 232.431L343.884 196.915Z" fill="#8FC1EA"/>
<path d="M208.5 117.695L206.823 125.193L309.742 184.583L311.518 177.184L208.5 117.695Z" fill="#649DD5"/>
<path d="M311.715 118.484L309.939 126.475L422.134 191.193L423.91 183.301L311.715 118.484Z" fill="#649DD5"/>
<g opacity="0.8">
<g opacity="0.8">
<path opacity="0.8" d="M212.842 50.2153L434.37 178.072L391.15 369.363L169.721 241.507L212.842 50.2153ZM206.823 125.193L244.517 146.897L309.742 184.583L311.42 177.085L208.5 117.695L206.823 125.193ZM212.349 100.825L210.671 108.323L313.59 167.713L315.268 160.215L212.349 100.825ZM213.829 94.314L316.748 153.704L318.426 146.206L215.506 86.8162L213.829 94.314ZM427.857 180.735L221.23 61.462L217.381 78.3319L424.108 197.605L427.857 180.735ZM384.835 356.637L419.174 204.314L340.628 159.031L306.288 311.256L384.835 356.637ZM307.473 194.942L204.553 135.552L182.154 234.7L285.073 294.09L307.473 194.942Z" fill="#649DD5"/>
</g>
</g>
<path d="M198.632 194.942L208.697 150.35L296.124 200.762L286.059 245.354L198.632 194.942Z" fill="#8FC1EA"/>
<path d="M215.506 86.8164L213.829 94.3142L316.748 153.704L318.425 146.207L215.506 86.8164Z" fill="#649DD5"/>
<path d="M328.786 263.704L318.82 308L380.295 343.516L390.262 299.22L328.786 263.704Z" fill="#649DD5"/>
<path d="M427.857 180.735L221.229 61.4619L217.381 78.3319L424.108 197.605L427.857 180.735ZM309.939 126.475L311.716 118.484L423.91 183.3L422.134 191.291L309.939 126.475ZM222.512 76.0628L224.288 68.0718L268.693 93.722L266.917 101.713L222.512 76.0628Z" fill="#8FC1EA"/>
<path d="M341.516 207.471L340.035 213.785L401.511 249.202L402.892 242.987L341.516 207.471Z" fill="#649DD5"/>
<path d="M338.259 221.578L336.878 227.794L398.353 263.309L399.734 257.094L338.259 221.578Z" fill="#649DD5"/>
<path d="M154.524 166.134C154.524 166.134 155.412 155.874 170.016 156.565C184.62 157.354 199.224 160.018 199.224 160.018L223.4 136.439C223.4 136.439 229.715 137.82 230.8 142.063C230.8 142.063 214.124 170.672 202.184 175.211C202.184 175.211 149.59 188.726 154.524 166.134Z" fill="#DEF0F9"/>
<path d="M224.683 136.834C224.683 136.834 225.867 129.435 228.038 126.771C230.11 124.206 232.182 122.924 233.07 122.628C233.958 122.332 232.083 125.785 231.491 126.87C230.899 127.955 231.195 131.013 237.116 125.982C243.135 120.951 242.247 122.726 242.247 123.417C242.346 124.108 238.201 136.735 230.702 141.273C230.603 141.273 229.222 138.511 224.683 136.834Z" fill="#EFB185"/>
<path d="M202.184 175.21C214.124 170.672 230.8 142.062 230.8 142.062C230.504 140.879 229.715 139.892 228.827 139.201C224.781 144.627 213.039 160.314 205.441 168.601C196.165 178.663 154.326 170.574 154.228 170.278C156.398 186.95 202.184 175.21 202.184 175.21Z" fill="#C1DBE5"/>
<path d="M160.641 365.713C160.641 365.713 166.365 367.094 164.687 370.35C163.01 373.605 155.806 378.143 154.721 380.215C153.635 382.287 147.518 389.39 145.741 388.502C144.064 387.614 139.327 388.305 140.61 379.623C141.992 371.04 152.945 364.628 160.641 365.713Z" fill="#111114"/>
<path d="M153.044 384.161C153.044 384.161 148.603 391.856 155.214 395.112C161.826 398.367 160.642 393.632 175.048 400.439C189.455 407.246 192.711 399.749 192.711 397.973C192.711 396.197 183.238 390.968 180.081 389.489C176.923 388.009 171.003 385.148 171.003 385.148L153.044 381.596V384.161Z" fill="#111114"/>
<path d="M152.747 249.892C152.747 249.892 148.208 300.108 147.715 305.83C147.221 311.453 136.959 355.551 139.031 375.381C139.031 375.381 148.998 387.318 159.655 377.157C159.655 377.157 167.647 321.614 171.594 309.282C175.541 296.951 177.91 258.278 177.91 258.278L152.747 249.892Z" fill="#F4477B"/>
<path d="M170.214 245.354C170.214 245.354 166.365 277.811 162.714 309.973C162.714 309.973 151.958 373.21 151.662 382.583C151.662 382.583 171.003 391.56 174.851 382.484C174.851 382.484 185.212 327.04 187.975 315.497C190.738 304.054 200.704 268.341 199.718 248.807C198.928 229.273 170.214 245.354 170.214 245.354Z" fill="#F4477B"/>
<path d="M151.662 382.681C151.958 373.309 162.714 310.071 162.714 310.071C165.181 288.367 168.141 263.013 169.621 251.076L182.844 256.403C182.844 256.403 185.508 285.704 177.121 320.923C170.608 348.251 164.885 375.282 162.615 386.036C156.892 385.148 151.662 382.681 151.662 382.681Z" fill="#FE6190"/>
<path d="M139.031 375.283C136.959 355.453 147.221 311.453 147.715 305.731C148.208 300.305 150.478 257.193 150.872 252.852L163.01 259.659C163.01 259.659 163.306 295.866 158.076 316.09C153.241 334.439 152.057 370.843 149.59 381.103C143.57 380.61 139.031 375.283 139.031 375.283Z" fill="#FE6190"/>
<path d="M158.964 156.663C158.964 156.663 147.715 160.807 151.761 179.453C155.708 198.098 158.668 210.233 157.583 216.941C156.497 223.65 151.958 248.314 150.083 252.753C150.083 252.753 148.406 260.349 176.726 267.551C176.726 267.551 202.381 273.47 199.816 254.627C197.25 235.686 203.072 216.053 204.552 209.148C206.033 202.143 211.854 188.529 195.277 176.986C178.699 165.345 170.312 157.255 158.964 156.663Z" fill="#DEF0F9"/>
<path d="M172.483 149.265C172.483 149.265 172.582 158.834 168.635 164.359C165.082 169.39 186.693 176.789 187.778 171.857C187.877 171.363 184.522 162.78 191.034 153.704C194.389 148.969 172.483 149.265 172.483 149.265Z" fill="#EFB185"/>
<path d="M168.733 164.655C171.594 160.511 172.384 154.197 172.483 151.238L187.777 161.103C187.185 161.202 175.936 162.682 172.68 170.278C169.522 168.601 167.45 166.431 168.733 164.655Z" fill="#DD9569"/>
<path d="M198.632 126.87C198.632 126.87 201.099 135.749 199.619 143.049C197.941 150.843 199.027 152.619 198.139 156.072C197.744 157.551 197.349 159.82 195.77 161.103C193.106 163.175 187.975 163.471 181.364 160.215C173.47 156.269 166.069 143.937 170.707 134.072C175.344 124.305 187.186 117.103 198.632 126.87Z" fill="#EFB185"/>
<path d="M169.819 145.22C174.161 136.44 183.634 126.278 183.634 125.686C183.634 125.292 186.594 123.91 189.85 122.431C192.712 122.924 195.771 124.305 198.731 126.87C198.731 126.87 199.422 129.238 199.816 132.592C197.547 134.565 193.304 136.637 192.514 138.413C190.64 142.655 190.64 149.363 191.626 152.52C192.613 155.579 186.791 159.328 187.679 162.09C187.679 162.189 187.679 162.287 187.679 162.484C185.804 162.09 183.732 161.498 181.463 160.314C176.233 157.65 171.398 151.731 169.819 145.22Z" fill="#E6A376"/>
<path d="M201.495 123.614C201.495 123.614 201.889 131.013 194.291 133.776C189.752 135.453 189.357 142.457 189.357 143.74C189.456 145.022 190.048 151.139 189.357 151.829C188.173 153.211 185.312 148.278 183.634 148.377C179.391 148.673 180.575 152.717 183.832 157.157C187.285 161.892 176.727 162.484 172.286 158.341C169.918 156.17 169.129 154.986 166.464 147.883C162.616 137.525 163.702 125.785 176.036 120.852C188.371 115.919 193.995 125.686 201.495 123.614Z" fill="#221101"/>
<path d="M172.384 158.439C170.016 156.269 169.227 155.085 166.563 147.982C162.714 137.623 163.8 125.883 176.134 120.951C188.37 116.018 194.093 125.686 201.494 123.713C201.494 123.713 201.593 124.995 201.099 126.673C197.35 126.87 187.087 127.659 184.028 131.704C180.279 136.637 176.924 134.565 176.43 141.175C175.937 147.587 173.371 155.677 183.634 160.511C179.39 162.78 174.062 160.018 172.384 158.439Z" fill="#341C09"/>
<path d="M186.889 168.7L193.402 175.605C193.402 175.605 170.213 179.552 164.786 167.713C163.996 166.036 165.773 160.906 169.818 160.413C169.917 160.511 169.621 169.489 186.889 168.7Z" fill="#C1DBE5"/>
<path d="M201.494 253.937C198.928 234.995 203.072 216.054 204.552 209.049C206.033 202.143 211.756 188.726 195.77 177.282C189.455 180.242 179.982 187.049 183.337 200.664C187.58 217.534 185.508 253.049 185.015 268.439C192.218 268.439 203.072 265.578 201.494 253.937Z" fill="#C1DBE5"/>
<path d="M239.681 145.417C239.681 145.417 238.991 139.892 240.668 138.018C242.346 136.143 246.194 128.547 247.773 127.462C249.352 126.377 248.759 129.435 248.266 131.507C247.773 133.48 248.069 137.426 248.759 136.933C249.45 136.439 252.707 138.807 252.114 141.569C251.522 144.43 246.885 148.968 246.786 149.659C246.786 150.35 239.681 145.417 239.681 145.417Z" fill="#EFB185"/>
<path d="M187.777 189.812C187.777 189.812 185.804 180.637 198.73 177.48C211.558 174.323 224.88 172.744 224.88 172.744L239.582 146.009C239.582 146.009 245.404 145.516 247.477 148.87C247.477 148.87 240.569 177.973 231.392 185.076C231.392 185.175 189.356 210.726 187.777 189.812Z" fill="#DEF0F9"/>
<defs>
<linearGradient id="paint0_linear" x1="51.4713" y1="256.5" x2="50.6991" y2="338.988" gradientUnits="userSpaceOnUse">
<stop stop-color="#FFDF02"/>
<stop offset="0.1253" stop-color="#F9D402"/>
<stop offset="0.4425" stop-color="#ECBD01"/>
<stop offset="0.7411" stop-color="#E4AF00"/>
<stop offset="1" stop-color="#E1AA00"/>
</linearGradient>
<linearGradient id="paint1_linear" x1="238.516" y1="41.8509" x2="375.434" y2="356.654" gradientUnits="userSpaceOnUse">
<stop stop-color="#1A6BB2"/>
<stop offset="1" stop-color="#1B4B92"/>
</linearGradient>
</defs>
</svg>
