<svg width="1033" height="1677" preserveAspectRatio="none" viewBox="0 0 1033 1677" fill="none" xmlns="http://www.w3.org/2000/svg">
<path opacity="0.5" d="M-22 0.499873C-5.04243 2.92238 166.707 447.111 371.5 496C431.404 510.301 499.037 524.355 560 540C806.817 603.34 1048.97 656.899 1032 692.999C996.495 768.499 495.506 839.648 464.503 861C433.5 882.352 839.815 977.168 967 1006.5C1068.94 1029.82 680 1167 552.5 1220.5C526.488 1228.11 11.5446 1674.49 4 1675.82C-43.2134 1684.11 -38.6912 1524.81 -60.5 1503C-81.5 1482 485.936 1184.96 517.5 1175.5C634.894 1140.31 907.113 1052.84 881.5 1035.5C849 1013.5 340.598 905.457 359.002 867C392.502 797 925.495 744.136 950.495 692.999C961.701 670.077 764.678 632.605 552.5 581C484.54 564.471 411.756 551.571 345 535C155.206 487.887 -161.998 170.133 -182 168.5C-231 164.5 -63.9999 -5.50013 -22 0.499873Z" fill="url(#how_works_bg_gradient)"/>
<defs>
<linearGradient id="how_works_bg_gradient" x1="673.999" y1="480" x2="673.836" y2="1054.03" gradientUnits="userSpaceOnUse">
<stop stop-color="#99C2FF"/>
<stop offset="1" stop-color="#5136F9"/>
</linearGradient>
</defs>
</svg>
