<svg width="388" height="360" viewBox="0 0 388 360" fill="none" xmlns="http://www.w3.org/2000/svg">
<path d="M18.374 47.1004C18.374 47.1004 -2.42413 66.1151 18.374 87.1314C39.1721 108.148 10.7115 117.155 9.61689 132.166C8.52225 147.178 12.9008 153.183 26.0365 162.189C39.1721 171.196 10.7115 191.212 9.61689 208.225C8.52225 225.238 11.8062 212.228 29.3204 241.251C46.8346 270.273 9.61689 271.579 9.61689 291.289C9.61689 311 36.0729 297.5 26.0365 311C16 324.5 22.975 343.274 33.6989 335.324C49.8979 323.314 51.2131 343.33 62.1595 351.336C73.1059 359.342 77.4845 334.323 91.7148 335.324C105.945 336.324 120.175 343.33 128.932 353.337C137.69 363.345 154.109 344.33 169.434 339.327C184.759 334.323 191.327 348.334 206.652 356.34C221.977 364.346 223.071 339.327 241.68 338.326C260.289 337.325 262.478 353.337 281.087 358.341C299.696 363.345 302.98 338.326 318.305 334.323C333.63 330.32 347.86 356.34 364.28 347.333C380.699 338.326 398.213 316.309 377.415 295.293C356.617 274.276 377.415 257.699 372.082 241.251C366.749 224.803 346.765 220 340.5 208.225C334.235 196.45 338.008 176 351.5 172C364.992 168 373.312 148 372.082 132.166C370.853 116.333 356.617 104.502 346.765 101.5C336.914 98.4977 335.819 75.1221 346.765 66.1151C357.712 57.1081 357.712 42.0965 338.008 40.095C318.305 38.0934 315.021 8.07018 298.601 9.07095C282.182 10.0717 284.371 14.0748 269.046 26.0841C253.721 38.0934 270.141 18.0779 243.869 9.07095C217.598 0.0639791 202.273 1.06475 193.516 16.0764C184.759 31.088 180.38 10.0717 157.393 3.0663C134.406 -3.93912 134.406 8.07018 116.891 21.0802C99.3772 34.0903 93.904 12.0733 79.6737 7.0694C65.4434 2.06553 63.2542 11.0725 53.4024 22.081C43.5507 33.0895 22.7525 6.06863 9.61689 10.0717C-3.51877 14.0748 -2.42413 32.0888 18.374 47.1004Z" fill="url(#paint0_linear)" stroke="white" stroke-miterlimit="10"/>
<defs>
<linearGradient id="paint0_linear" x1="0.969247" y1="179.965" x2="394.521" y2="179.965" gradientUnits="userSpaceOnUse">
<stop stop-color="#67C2F5"/>
<stop offset="0.9944" stop-color="#F470FF"/>
</linearGradient>
</defs>
</svg>
