
<svg xmlns="http://www.w3.org/2000/svg" xmlns:xlink="http://www.w3.org/1999/xlink" x="0px" y="0px"
	 viewBox="0 0 72 72" style="enable-background:new 0 0 72 72;" xml:space="preserve">
<circle class="st0" fill="#F42061" cx="36" cy="36.2" r="34.6"/>
<g>
	<path class="st1" fill="#FFFFFF" d="M14,19.4h6.8v30.5H14V19.4z"/>
	<path class="st1" fill="#FFFFFF" d="M58,34.7c0,2.1-0.3,4.1-0.8,5.8S55.9,43.7,55,45s-2.1,2.4-3.4,3.2c-1.3,0.8-2.7,1.5-4.4,1.8
		c0.1,0.6,0.5,1.1,0.9,1.4c0.5,0.4,1.1,0.7,1.9,0.9c0.8,0.2,1.7,0.4,2.7,0.5c1.1,0.1,2.1,0.2,3.3,0.3l-1.4,5
		c-2.3-0.1-4.2-0.3-5.8-0.7s-3-0.8-4.2-1.5c-1.1-0.6-2-1.4-2.7-2.4c-0.7-0.9-1.1-2-1.5-3.2c-1.8-0.2-3.5-0.8-5.1-1.5
		c-1.5-0.8-2.9-1.8-4-3.2s-2-2.9-2.7-4.7c-0.6-1.8-0.9-3.9-0.9-6.3c0-2.6,0.4-4.9,1.2-6.9c0.8-2,2-3.7,3.3-5c1.3-1.3,3-2.4,4.9-3
		s3.7-1.1,5.8-1.1s4,0.4,5.9,1.1s3.4,1.7,4.9,3c1.4,1.3,2.5,3,3.2,5C57.6,29.8,58,32,58,34.7z M34.8,34.7c0,1.5,0.2,2.8,0.6,4
		s0.9,2.3,1.5,3.1c0.7,0.8,1.5,1.5,2.5,2s2.1,0.7,3.4,0.7c1.3,0,2.4-0.2,3.4-0.7c1.1-0.5,1.8-1.1,2.5-2c0.7-0.8,1.2-1.9,1.5-3.1
		c0.4-1.2,0.6-2.5,0.6-4s-0.2-2.8-0.6-4.1c-0.4-1.2-0.9-2.3-1.5-3.1c-0.6-0.8-1.5-1.5-2.5-2c-1.1-0.5-2.1-0.7-3.4-0.7
		c-1.3,0-2.5,0.2-3.4,0.7c-1,0.5-1.8,1.2-2.5,2s-1.2,1.9-1.5,3.1C34.9,31.8,34.8,33.2,34.8,34.7z"/>
</g>
</svg>
