<svg width="169" height="222" viewBox="0 0 169 222" fill="none" xmlns="http://www.w3.org/2000/svg">
<ellipse cx="42.5" cy="209.028" rx="42.5" ry="10" fill="#EFEFEF"/>
<ellipse cx="126.5" cy="211.028" rx="42.5" ry="10" fill="#EFEFEF"/>
<path d="M58.1773 68.842C58.1773 68.842 60.7156 65.3239 59.799 62.5798C58.9529 59.8357 56.485 61.0318 56.1325 62.6501C55.8505 64.3388 55.921 64.4092 55.6389 64.9017C55.4274 65.3239 55.1454 65.4646 55.3569 64.761C55.5684 64.0574 55.6389 62.7205 55.0748 63.0723C54.5108 63.4945 53.8762 66.0978 54.7223 67.7162C55.5684 69.4049 58.1773 68.842 58.1773 68.842Z" fill="#EAC3B2"/>
<path d="M33.4991 102.264C37.7296 99.8715 45.3447 95.9313 52.5367 88.1211C59.7287 80.311 58.6711 68.6309 58.6711 68.6309L54.1584 67.1533C54.1584 67.1533 49.2227 79.9592 46.3318 82.844C43.4409 85.7288 30.0441 88.0508 26.6596 90.9356C19.8202 96.7756 26.8711 105.993 33.4991 102.264Z" fill="#F77B00"/>
<path opacity="0.23" d="M33.4991 102.264C37.7296 99.8715 45.3447 95.9313 52.5367 88.1211C59.7287 80.311 58.6711 68.6309 58.6711 68.6309L54.1584 67.1533C54.1584 67.1533 49.2227 79.9592 46.3318 82.844C43.4409 85.7288 30.0441 88.0508 26.6596 90.9356C19.8202 96.7756 26.8711 105.993 33.4991 102.264Z" fill="#F77B00"/>
<path opacity="0.76" d="M75.8052 147.014C54.6523 108.315 67.9081 94.313 67.9081 94.313H75.8052H75.9462H83.8433C83.8433 94.313 97.0992 108.385 75.9462 147.014V147.225C75.9462 147.155 75.8757 147.155 75.8757 147.084C75.8757 147.155 75.8052 147.155 75.8052 147.225V147.014Z" fill="#FFC400"/>
<path opacity="0.46" d="M76.0869 132.097C60.9273 104.375 70.4461 94.313 70.4461 94.313H76.0869H76.2279H81.8687C81.8687 94.313 91.3875 104.375 76.2279 132.097V132.238C76.2279 132.238 76.2279 132.168 76.1574 132.168C76.1574 132.168 76.1574 132.238 76.0869 132.238V132.097Z" fill="#F77B00"/>
<path opacity="0.46" d="M76.0871 116.547C67.1324 100.153 72.7732 94.2427 72.7732 94.2427H76.0871H76.1576H79.4716C79.4716 94.313 85.1124 100.223 76.0871 116.547L76.1576 116.618C76.1576 116.688 76.1576 116.618 76.0871 116.547C76.0871 116.618 76.0871 116.618 76.0871 116.618V116.547Z" fill="#DB3537"/>
<path d="M62.5488 91.3579H88.9195V94.5945H88.849C88.9195 94.6649 88.9195 94.6649 88.9195 94.7353C88.9195 95.4389 82.9967 96.0018 75.7342 96.0018C68.4717 96.0018 62.5488 95.4389 62.5488 94.7353C62.5488 94.6649 62.5488 94.6649 62.6193 94.5945H62.5488V91.3579Z" fill="#070707"/>
<path d="M59.4468 86.4326H92.0223V90.4432H91.8813C91.9518 90.5136 92.0223 90.584 92.0223 90.6543C92.0223 91.4987 84.7598 92.2023 75.7345 92.2023C66.7093 92.2023 59.4468 91.4987 59.4468 90.6543C59.4468 90.584 59.5173 90.5136 59.5878 90.4432H59.4468V86.4326Z" fill="#171819"/>
<path d="M55.9211 80.6631H95.6181V85.5884H95.4771C95.5476 85.6588 95.6181 85.7291 95.6181 85.7995C95.6181 86.8549 86.7339 87.6289 75.7343 87.6289C64.8053 87.6289 55.8506 86.7846 55.8506 85.7995C55.8506 85.7291 55.9211 85.6588 55.9916 85.5884H55.8506V80.6631H55.9211Z" fill="#212223"/>
<path d="M75.7343 82.4923C86.7158 82.4923 95.6181 81.6733 95.6181 80.6629C95.6181 79.6525 86.7158 78.8335 75.7343 78.8335C64.7529 78.8335 55.8506 79.6525 55.8506 80.6629C55.8506 81.6733 64.7529 82.4923 75.7343 82.4923Z" fill="#333333"/>
<path d="M42.4539 33.2391C42.4539 14.4525 58.1776 -0.745672 77.2152 0.0283079C94.067 0.731926 107.887 14.171 109.015 30.9875C109.368 36.6164 108.31 41.8936 106.265 46.6782C104.079 52.2367 100.06 59.1322 92.5863 66.4498C92.5863 66.4498 86.9455 73.4156 87.2276 79.5371C87.2981 80.4518 86.5225 81.1554 85.6059 81.1554H75.7345H75.2409H65.3696C64.4529 81.1554 63.7478 80.4518 63.7478 79.5371C64.0299 73.4156 58.3891 66.4498 58.3891 66.4498C40.1976 48.5779 42.4539 33.2391 42.4539 33.2391Z" fill="#FFC400"/>
<path d="M62.1968 40.627L71.0105 81.6479H78.414L84.4074 55.6844" stroke="#333333" stroke-width="0.6323" stroke-miterlimit="10"/>
<path d="M61.2095 46.6078C61.2095 46.6078 63.0427 43.5822 64.4529 46.6781C66.0746 50.2666 65.8631 46.3967 68.754 46.6781C72.491 47.1003 70.7988 56.177 72.7026 53.7143C75.1704 50.548 77.4267 51.2517 77.8498 55.5437C78.4139 61.1023 80.9522 61.1727 81.9393 59.3433C83.279 56.8102 85.1828 57.0213 85.3238 60.8209" stroke="#333333" stroke-width="0.6323" stroke-miterlimit="10"/>
<path opacity="0.33" d="M42.4538 33.2391C42.4538 22.5441 47.5305 13.0453 55.4276 6.92383C52.7482 11.7084 51.4791 17.267 51.197 23.1774C50.4919 37.7423 55.9212 65.8166 83.8431 71.0938H83.9841H84.4776H89.5544C88.2852 73.4861 87.0865 76.5116 87.2275 79.3965C87.298 80.3112 86.4519 81.0851 85.5353 81.0851H75.8049H75.3114H65.5105C64.5234 81.0851 63.7478 80.3112 63.8183 79.3261C64.0298 73.275 58.4595 66.3795 58.4595 66.3795C40.1975 48.578 42.4538 33.2391 42.4538 33.2391Z" fill="#FFC400"/>
<path opacity="0.41" d="M78.2021 3.89844C78.2021 3.89844 107.323 5.58712 103.515 39.4311C103.586 39.4311 103.797 15.086 78.2021 3.89844Z" fill="#FFC400"/>
<path d="M118.816 199.996C118.816 199.996 119.169 201.966 117.477 204.429C115.714 206.892 110.778 209.143 111.907 211.043C112.823 212.591 121.707 208.51 125.233 206.821C126.149 206.399 126.643 205.414 126.432 204.429C126.079 202.881 125.303 200.629 123.47 199.363C120.438 197.182 118.816 199.996 118.816 199.996Z" fill="#333333"/>
<path opacity="0.41" d="M118.816 199.996C118.816 199.996 119.169 201.966 117.477 204.429C115.714 206.892 110.778 209.143 111.907 211.043C112.823 212.591 121.707 208.51 125.233 206.821C126.149 206.399 126.643 205.414 126.432 204.429C126.079 202.881 125.303 200.629 123.47 199.363C120.438 197.182 118.816 199.996 118.816 199.996Z" fill="#333333"/>
<path d="M115.432 123.231C115.432 123.231 111.413 132.167 109.015 139.415C106.83 145.958 105.631 155.105 104.362 160.453C103.868 162.704 103.939 165.026 104.644 167.278L116.842 205.062L126.149 202.67C126.149 202.67 124.175 173.259 121.425 169.248C118.675 165.308 117.194 163.338 117.194 163.338C117.194 163.338 123.963 148.702 125.092 142.722C126.149 136.741 126.149 126.538 126.149 126.538L115.432 123.231Z" fill="#295FA6"/>
<path opacity="0.13" d="M115.432 123.231C115.432 123.231 111.483 132.238 109.015 139.415C106.406 147.084 105.631 155.105 104.362 160.453C103.868 162.704 103.939 165.026 104.644 167.278L116.842 205.062L126.149 202.67C126.149 202.67 124.175 173.259 121.425 169.248C118.675 165.308 117.194 163.338 117.194 163.338C117.194 163.338 123.963 148.702 125.092 142.722C126.149 136.741 126.149 126.538 126.149 126.538L115.432 123.231Z" fill="#295FA6"/>
<path opacity="0.13" d="M120.297 135.545L123.682 143.285L123.47 148.351C121.002 155.246 117.195 163.479 117.195 163.479C117.195 163.479 118.746 165.378 121.425 169.389C122.13 170.374 122.765 172.977 123.329 176.355C119.592 168.756 112.541 163.549 112.541 163.549C117.406 155.176 120.297 135.545 120.297 135.545Z" fill="#295FA6"/>
<path d="M134.822 82.4922L139.969 82.7737C139.969 82.7737 137.219 89.3877 138.136 93.0465C138.136 93.0465 133.13 94.1019 129.251 91.4282C129.251 91.4282 131.86 84.8142 131.578 82.7737C131.226 80.7332 134.822 82.4922 134.822 82.4922Z" fill="#EAC3B2"/>
<path opacity="0.66" d="M134.822 82.4922L139.969 82.7737C139.969 82.7737 137.219 89.3877 138.136 93.0465C138.136 93.0465 133.13 94.1019 129.251 91.4282C129.251 91.4282 131.86 84.8142 131.578 82.7737C131.226 80.7332 134.822 82.4922 134.822 82.4922Z" fill="#EAC3B2"/>
<path d="M139.119 83.6745C142.966 79.9862 143.81 74.6337 141.004 71.7195C138.199 68.8052 132.805 69.4327 128.958 73.121C125.111 76.8093 124.267 82.1618 127.073 85.0761C129.879 87.9903 135.272 87.3628 139.119 83.6745Z" fill="#EAC3B2"/>
<path opacity="0.66" d="M136.161 81.5775C139.334 77.6372 139.687 72.6415 137.008 69.9678C138.559 70.1085 139.898 70.6714 140.956 71.7268C143.777 74.6117 142.93 79.9591 139.052 83.618C135.527 86.9953 130.732 87.7693 127.841 85.7288C130.662 85.8695 133.835 84.3919 136.161 81.5775Z" fill="#EAC3B2"/>
<path d="M127.56 201.615C127.56 201.615 127.277 203.585 124.88 205.344C122.412 207.103 116.983 207.666 117.547 209.847C117.97 211.606 127.63 210.551 131.579 210.058C132.566 209.917 133.341 209.143 133.482 208.158C133.623 206.61 133.623 204.218 132.284 202.389C130.027 199.433 127.56 201.615 127.56 201.615Z" fill="#333333"/>
<path d="M122.201 121.332C122.201 121.332 119.028 140.54 119.239 162.634C119.31 170.163 125.726 203.373 125.726 203.373H134.046C134.046 203.373 137.642 168.333 133.059 162.845C133.059 162.845 142.437 141.666 139.757 128.931C138.206 121.332 122.201 121.332 122.201 121.332Z" fill="#295FA6"/>
<path opacity="0.13" d="M131.226 203.233C131.226 203.233 132.636 167.981 127.841 162.845C127.841 162.845 135.95 141.103 132.495 128.579C131.437 124.639 126.502 123.02 122.06 122.387C122.201 121.683 122.201 121.261 122.201 121.261C122.201 121.261 138.206 121.261 139.758 128.86C142.437 141.596 133.059 162.775 133.059 162.775C137.572 168.263 134.046 203.303 134.046 203.303H129.393L131.226 203.233Z" fill="#295FA6"/>
<path d="M137.642 91.0058C136.161 91.2873 133.27 91.2169 129.11 88.9653C129.11 88.9653 122.341 90.654 119.028 102.334C115.714 114.014 113.316 122.317 113.951 125.131C114.585 127.946 126.854 133.082 136.584 128.016C143.776 124.287 140.956 98.7456 139.334 92.1316C139.123 91.3576 138.418 90.8651 137.642 91.0058Z" fill="#DB3537"/>
<path d="M136.796 136.319C136.796 136.319 136.02 140.329 133.623 141.385C131.226 142.511 130.45 140.118 131.367 138.852C132.354 137.585 133.059 137.233 133.2 136.811C133.341 136.389 132.636 136.389 132.283 137.022C131.931 137.656 131.014 138.5 130.944 137.867C130.873 137.233 131.578 135.263 133.2 134.771C134.822 134.349 136.796 136.319 136.796 136.319Z" fill="#EAC3B2"/>
<path opacity="0.26" d="M139.828 114.999L135.245 105.571C135.245 105.571 137.149 116.477 135.95 120.065C134.751 123.654 129.745 130.197 129.745 130.197L139.405 127.946L139.828 114.999Z" fill="#DB3537"/>
<path d="M137.642 91.4985C137.642 91.4985 142.719 91.217 144.2 95.7905C145.681 100.364 147.655 108.737 146.879 119.291C146.104 129.846 136.796 137.093 136.796 137.093L132.636 134.771C132.636 134.771 138.63 122.458 138.771 118.377C138.912 114.296 133.764 102.475 133.905 98.0421C134.187 90.6541 137.642 91.4985 137.642 91.4985Z" fill="#DB3537"/>
<path d="M142.648 69.827C141.52 69.7567 140.463 69.5456 139.475 69.0531C138.911 68.7716 138.347 68.4198 137.783 67.8569C135.738 66.1682 130.732 66.5904 130.45 69.2642C130.168 71.8675 131.437 75.6671 138.629 77.7779C140.04 78.2001 139.546 79.8888 137.783 82.3514C132.072 89.9505 135.597 101.208 138.559 105.43C141.52 109.652 147.302 114.859 156.891 113.029C167.961 110.918 166.128 99.9419 161.263 97.4792C156.398 95.0166 161.686 88.0507 156.257 85.3066C151.533 82.9143 149.065 80.8035 149.417 77.6372C149.699 73.9784 146.315 70.0381 142.648 69.827Z" fill="#513216"/>
<path d="M126.079 69.6156C126.079 69.6156 134.893 66.9419 136.937 71.8672C136.937 71.8672 137.29 72.6412 135.527 72.5708C133.764 72.5004 129.181 71.7968 126.854 72.5004C124.528 73.1337 126.079 69.6156 126.079 69.6156Z" fill="#EAC3B2"/>
<path d="M120.438 100.364C120.438 100.364 111.201 88.3323 109.438 77.2856C109.297 76.3709 109.721 75.4561 110.496 74.8933C112.823 73.3453 118.534 68.9829 128.617 68.3496L129.252 72.2195C129.252 72.2195 122.694 77.4966 118.464 77.7781C118.464 77.7781 124.669 88.1916 128.053 88.8249C131.438 89.3878 120.438 100.364 120.438 100.364Z" fill="#DB3537"/>
<path d="M137.36 79.1148C137.36 79.1148 138.559 76.9336 140.04 77.9891C141.45 79.0445 140.604 83.7587 137.572 82.5626" fill="#EAC3B2"/>
<g opacity="0.39">
<path opacity="0.39" d="M149.558 110.004C160.346 109.159 159.853 98.5345 155.481 95.6497C151.11 92.7649 156.962 86.7138 152.026 83.5475C147.796 80.8034 145.68 78.4111 146.315 75.5263C146.667 73.9783 146.315 72.2192 145.469 70.812C147.866 72.2192 149.629 75.0337 149.347 77.7075C148.994 80.8737 151.533 82.9846 156.186 85.3769C161.616 88.121 156.327 95.0165 161.192 97.5495C166.058 100.083 167.891 110.989 156.821 113.099C149.699 114.507 144.764 111.974 141.45 108.878C143.636 109.792 146.315 110.285 149.558 110.004Z" fill="#513216"/>
</g>
<path opacity="0.66" d="M137.36 79.1148C137.36 79.1148 138.559 76.9336 140.04 77.9891C141.45 79.0445 140.604 83.7587 137.572 82.5626" fill="#EAC3B2"/>
<path opacity="0.26" d="M109.58 77.9185C111.624 84.8139 116.49 90.865 123.329 92.9759C123.329 92.9759 120.861 95.5089 119.804 99.5195C117.759 96.705 111.272 87.1358 109.58 77.9185Z" fill="#DB3537"/>
<path d="M50.9149 201.193C50.9149 201.193 50.7034 203.163 52.6777 205.485C54.652 207.807 59.7992 209.566 58.7415 211.606C57.8954 213.225 48.7291 209.918 45.0626 208.51C44.146 208.159 43.5114 207.173 43.6524 206.188C43.864 204.64 44.4985 202.319 46.1908 200.911C49.0112 198.449 50.9149 201.193 50.9149 201.193Z" fill="#333333"/>
<path d="M47.883 124.428C47.883 124.428 52.6072 133.012 55.5686 139.978C58.3184 146.31 60.2222 155.317 61.9144 160.594C62.6195 162.775 62.6901 165.167 62.1965 167.419L53.1712 206.118L43.7934 204.499C43.7934 204.499 43.3704 175.018 45.6972 170.796C48.024 166.574 49.4342 164.604 49.4342 164.604C49.4342 164.604 41.4666 150.602 39.9154 144.762C38.3642 138.852 37.5181 128.79 37.5181 128.79L47.883 124.428Z" fill="#295FA6"/>
<path opacity="0.15" d="M47.883 124.428C47.883 124.428 52.6072 133.012 55.5686 139.978C58.3184 146.31 60.2222 155.317 61.9144 160.594C62.6195 162.775 62.6901 165.167 62.1965 167.419L53.1712 206.118L43.7934 204.499C43.7934 204.499 43.3704 175.018 45.6972 170.796C48.024 166.574 49.4342 164.604 49.4342 164.604C49.4342 164.604 41.4666 150.602 39.9154 144.762C38.3642 138.852 37.5181 128.79 37.5181 128.79L47.883 124.428Z" fill="#295FA6"/>
<path d="M27.0828 81.1552L21.2305 81.4367C21.2305 81.4367 24.4034 88.9654 23.3458 93.1871C23.3458 93.1871 29.0571 94.3833 33.5697 91.3577C33.5697 91.3577 30.5378 83.7586 30.8903 81.4367C31.2429 79.1851 27.0828 81.1552 27.0828 81.1552Z" fill="#EAC3B2"/>
<path opacity="0.66" d="M27.0828 81.1552L21.2305 81.4367C21.2305 81.4367 24.4034 88.9654 23.3458 93.1871C23.3458 93.1871 29.0571 94.3833 33.5697 91.3577C33.5697 91.3577 30.5378 83.7586 30.8903 81.4367C31.2429 79.1851 27.0828 81.1552 27.0828 81.1552Z" fill="#EAC3B2"/>
<path d="M34.1848 85.2394C38.1719 82.8833 38.8789 76.7179 35.7639 71.4686C32.6489 66.2193 26.8915 63.8739 22.9044 66.23C18.9173 68.5861 18.2103 74.7515 21.3252 80.0008C24.4402 85.25 30.1976 87.5954 34.1848 85.2394Z" fill="#EAC3B2"/>
<path opacity="0.66" d="M25.2495 78.6222C22.9227 73.3451 26.4482 66.8718 30.1852 64.7609C28.4224 64.4091 24.4034 65.4645 22.9227 66.3089C18.9741 68.6308 18.269 74.8227 21.3715 80.0294C24.1918 84.814 29.2686 87.136 33.0761 85.7287C29.9737 85.0251 26.9417 82.4217 25.2495 78.6222Z" fill="#EAC3B2"/>
<path d="M34.2749 201.333C34.2749 201.333 34.4864 203.304 36.8837 205.203C39.2811 207.103 44.6398 207.807 44.0757 209.918C43.5822 211.677 33.9223 210.269 30.0443 209.636C29.0572 209.495 28.2815 208.651 28.211 207.666C28.07 206.048 28.211 203.726 29.6212 201.967C31.8775 199.012 34.2749 201.333 34.2749 201.333Z" fill="#333333"/>
<path d="M42.3128 122.598C42.3128 122.598 44.8512 141.948 43.8641 163.971C43.5115 171.5 36.0375 204.429 36.0375 204.429L27.7878 204.148C27.7878 204.148 25.3905 168.967 30.1147 163.69C30.1147 163.69 21.442 142.229 24.5444 129.564C26.3071 122.036 42.3128 122.598 42.3128 122.598Z" fill="#295FA6"/>
<path opacity="0.13" d="M30.4674 204.148C30.4674 204.148 30.2559 168.896 35.2621 163.901C35.2621 163.901 27.929 141.948 31.7366 129.494C32.9352 125.624 37.9414 124.146 42.3836 123.724C42.313 123.021 42.2425 122.598 42.2425 122.598C42.2425 122.598 26.3073 122.036 24.4741 129.564C21.3716 142.229 30.0443 163.69 30.0443 163.69C25.3202 169.037 27.7175 204.148 27.7175 204.148L32.3712 204.288L30.4674 204.148Z" fill="#295FA6"/>
<path d="M24.6857 90.6543C26.1664 90.9357 29.0573 90.8653 33.2174 88.6138C33.2174 88.6138 39.9863 90.3024 43.3003 101.983C46.6142 113.733 50.8448 125.976 50.2102 128.79C49.5756 131.605 30.1855 140.611 23.7691 131.675C19.891 126.328 21.3717 98.3941 22.9935 91.78C23.205 91.0061 23.9101 90.5135 24.6857 90.6543Z" fill="#F77B00"/>
<path opacity="0.47" d="M43.5119 100.927L46.7553 115.281C46.7553 115.281 26.0254 102.897 26.237 98.746C26.3075 94.5243 43.5119 100.927 43.5119 100.927Z" fill="#F77B00"/>
<path d="M71.0808 97.268C71.0808 97.268 75.3819 96.6348 76.7216 94.0314C78.0613 91.4983 75.4524 90.5133 74.1128 91.4983C72.7026 92.4834 72.7026 92.5538 72.209 92.6945C71.7154 92.8352 71.4334 92.7649 72.1385 92.413C72.7731 92.0612 73.8307 91.1465 73.1256 91.0058C72.4205 90.8651 70.1642 92.2723 69.5296 94.0314C68.895 95.7904 71.0808 97.268 71.0808 97.268Z" fill="#EAC3B2"/>
<path d="M29.9035 103.249C34.5571 104.586 42.7363 107.189 53.3832 106.837C64.0302 106.486 71.5748 97.5497 71.5748 97.5497L69.389 93.328C69.389 93.328 56.8382 98.8162 52.7487 98.8162C48.6591 98.8162 37.5891 90.9357 33.1469 90.5136C24.1922 89.6692 22.5705 101.138 29.9035 103.249Z" fill="#F77B00"/>
<path d="M22.0059 64.9722C26.0955 62.5799 31.6657 62.4391 32.2298 60.8912C32.2298 60.8912 32.3708 62.1577 30.8901 63.9167C30.8901 63.9167 33.2875 62.017 33.5695 60.1172C33.5695 60.1172 38.6462 66.8719 31.0311 70.4604C27.6467 72.0787 25.6019 71.3047 24.5442 72.4305C23.2751 73.7674 21.9354 76.9337 23.4866 80.8739C25.4609 85.8696 22.57 86.925 22.57 86.925C22.57 86.925 10.4423 71.7269 22.0059 64.9722Z" fill="#513216"/>
<path d="M23.3457 74.4713C23.3457 74.4713 21.5124 72.2197 20.1022 73.6973C18.6921 75.1749 20.5253 80.3113 23.7688 78.3412" fill="#EAC3B2"/>
<path opacity="0.66" d="M23.3457 74.4713C23.3457 74.4713 21.5124 72.2197 20.1022 73.6973C18.6921 75.1749 20.5253 80.3113 23.7688 78.3412" fill="#EAC3B2"/>
<g opacity="0.29">
<path opacity="0.29" d="M22.2884 65.887C24.1216 64.4094 26.4484 63.4244 28.3522 62.6504C26.3779 63.1429 24.0511 63.7762 22.0063 64.9723C10.5132 71.7271 22.5704 86.9252 22.5704 86.9252C22.5704 86.9252 23.5575 86.5734 23.9806 85.3069C20.4551 81.1555 14.4618 72.1492 22.2884 65.887Z" fill="#513216"/>
</g>
</svg>
