<svg width="158" height="182" viewBox="0 0 158 182" fill="none" xmlns="http://www.w3.org/2000/svg">
<ellipse cx="71.0273" cy="132.718" rx="66.6256" ry="24.7979" transform="rotate(22.8375 71.0273 132.718)" fill="#EFEFEF"/>
<path d="M141.347 131.059C141.347 131.059 135.507 135.912 136.48 141.412C136.48 141.412 138.427 143.677 140.374 139.795C142.321 135.912 144.268 131.059 141.347 131.059Z" fill="#0A1014"/>
<path d="M136.48 141.735C136.48 141.735 145.566 144.971 147.188 141.735C148.811 138.823 150.433 136.558 151.407 135.264C152.38 134.294 159.843 121.675 157.572 119.733C154.976 117.792 151.407 121.351 150.433 121.998C149.46 122.969 138.103 131.705 138.103 131.705L136.48 141.735Z" fill="#111114"/>
<path d="M61.8494 86.4075C61.8494 86.4075 93.3242 104.527 100.787 110.674C106.628 115.851 139.725 131.382 139.725 131.382C139.725 131.382 138.103 134.618 137.129 141.412C137.129 141.412 106.952 141.089 88.1325 123.617C88.1325 123.617 24.5339 110.351 30.0501 77.6714C29.7256 77.9949 50.4925 81.5541 61.8494 86.4075Z" fill="#131C24"/>
<path d="M151.407 135.588C152.38 134.618 158.546 124.587 157.897 121.028C156.923 121.028 154.976 121.028 154.003 123.293C152.38 126.852 147.838 135.265 147.189 136.236C146.54 137.206 142.322 141.089 142.97 143.03C144.917 143.03 146.215 143.03 146.864 141.736C148.487 139.148 150.109 136.559 151.407 135.588Z" fill="#1D1D21"/>
<path d="M122.853 157.59C122.853 157.59 133.236 159.208 134.209 156.62C135.183 154.031 136.481 151.766 137.454 150.795C138.428 149.825 143.619 138.5 141.348 136.882C139.077 135.265 136.156 138.824 135.507 139.471C134.534 140.442 125.448 148.854 125.448 148.854L122.853 157.59Z" fill="#161619"/>
<path d="M137.454 150.472C138.103 149.501 142.646 140.442 141.997 137.53C141.024 137.53 139.726 137.853 139.077 139.795C138.103 143.03 134.858 150.472 134.209 151.443C133.561 152.413 130.316 155.973 131.289 157.59C132.912 157.59 134.21 157.267 134.534 156.296C135.183 153.708 136.481 151.443 137.454 150.472Z" fill="#1D1D21"/>
<path d="M48.2215 27.8438C48.2215 27.8438 42.3809 28.4909 42.3809 35.2856C42.7053 42.0804 48.8705 71.5241 56.0091 77.3482C63.1478 83.1722 63.1478 69.2592 63.1478 69.2592C63.1478 69.2592 58.605 26.226 48.2215 27.8438Z" fill="#779F29"/>
<path d="M56.3326 83.4956C56.3326 83.4956 51.1408 99.0264 48.2205 102.262C48.2205 102.262 79.6953 120.381 87.1584 126.529C92.9991 131.706 126.745 146.913 126.745 146.913C126.745 146.913 124.474 150.472 123.501 157.267C123.501 157.267 93.3236 156.943 74.5036 139.471C74.5036 139.471 10.905 126.205 16.4212 93.5259C16.4212 93.8495 37.5126 102.262 56.3326 83.4956Z" fill="#1D2833"/>
<path d="M31.0235 30.1088C31.0235 30.1088 13.826 39.8156 13.5015 40.7863C13.177 42.0805 11.2301 42.7276 16.7463 56.317C16.7463 56.317 21.938 67.9651 18.3687 82.5252C16.0973 90.9377 16.4218 93.8497 16.4218 93.8497C16.4218 93.8497 23.236 108.086 42.056 101.292C45.9497 99.9973 56.6577 89.6435 58.6046 85.4372C58.6046 85.4372 52.4394 77.9954 55.0353 63.7589C57.3066 49.1988 58.6046 30.4324 50.4925 28.1675C50.168 27.5204 48.2211 25.2555 31.0235 30.1088Z" fill="#9CBC35"/>
<path d="M36.2153 25.2559C36.2153 25.2559 47.2477 31.0799 42.3805 39.4924L47.5722 42.4044C47.5722 42.4044 52.764 27.8443 36.2153 25.2559Z" fill="#FEFFFF"/>
<path d="M29.0767 19.4307C29.0767 19.4307 33.6194 26.5489 30.0501 31.0788C28.1032 33.6672 32.9705 40.1384 41.0825 39.4913C41.0825 39.4913 44.6518 38.5206 44.3274 37.2264C43.3539 34.3143 44.6518 32.373 45.9498 30.1081C47.5722 28.1667 29.0767 19.4307 29.0767 19.4307Z" fill="#EFB185"/>
<path d="M30.0496 31.4026C30.0496 31.7262 29.7251 32.0498 29.7251 32.3733C32.9699 29.1377 38.8106 29.1377 38.8106 29.1377L31.023 20.4017C30.6985 20.4017 30.3741 20.0781 30.3741 20.0781L29.7251 20.7252C31.023 22.9901 32.9699 27.8435 30.0496 31.4026Z" fill="#DD9569"/>
<path d="M44.6522 37.5503C44.0032 32.6969 44.9766 32.6969 46.2746 30.432C46.5991 29.7849 45.6256 28.8143 43.6787 27.52C43.3542 27.8436 42.7053 28.4907 42.3808 29.1378C39.1359 33.9912 39.1359 37.8739 39.4604 39.8152C40.1094 39.8152 40.7584 39.8152 41.0828 39.8152C42.0563 39.8152 44.6522 39.1681 44.6522 37.5503Z" fill="#F2B78F"/>
<path d="M27.4541 15.5485C27.4541 15.5485 29.401 24.9317 35.8906 29.1379C41.7313 33.0206 48.221 35.2855 49.5189 28.4908C50.4923 22.9903 53.0882 9.40089 48.221 6.48887C42.0558 3.25329 39.7844 -1.27652 32.6458 1.31194C32.6458 1.31194 24.5337 5.19464 27.4541 15.5485Z" fill="#EFB185"/>
<path d="M27.454 15.5488C27.454 15.5488 28.103 23.6377 35.8906 29.1382C37.513 30.4325 39.7844 31.4031 41.4068 32.0502C38.1619 29.7853 37.8375 29.1382 35.5661 26.5498C33.2947 23.9613 39.1354 24.932 35.2416 18.1373C33.9437 15.8723 40.4333 18.7844 42.0557 18.7844C50.8168 18.4608 50.1678 13.6074 50.4923 11.3425C50.1678 10.3719 50.1678 9.40119 49.8433 8.75407L48.8699 7.13629L48.5454 6.81273C47.5719 5.5185 46.5985 4.54782 45.625 3.57715C41.7313 3.57715 31.3478 3.90071 31.0233 3.90071C31.0233 3.90071 29.0764 6.48917 27.454 8.75407C26.805 10.6954 26.805 12.9603 27.454 15.5488Z" fill="#E6A376"/>
<path d="M31.3484 24.6079C31.3484 24.6079 24.2098 18.1367 26.8056 8.75352C26.8056 8.75352 28.1036 1.31169 36.5401 0.34102C40.4339 -0.306096 47.897 0.0174623 51.1418 8.10641C52.1153 10.6949 51.4663 16.1954 41.4074 13.6069C40.1094 13.2833 36.2156 12.6362 34.9177 13.9305C33.6198 15.2247 33.6198 17.4896 34.2687 19.1074C34.9177 20.7252 33.2953 21.0487 33.2953 20.7252C32.9708 20.4016 31.3484 15.5482 29.4015 17.4896C27.4546 19.1074 31.0239 24.2843 31.3484 24.6079Z" fill="#341C09"/>
<path d="M31.3479 24.6084C31.0234 24.2849 27.4541 19.1079 29.0765 17.4901C30.6989 15.5488 32.6458 20.4022 32.9703 20.7257C33.2948 21.0493 34.5927 21.0493 33.9438 19.1079C33.6193 17.4901 33.6193 15.2252 34.9172 13.931C36.2151 12.9603 39.46 13.2839 41.4069 13.6074C39.7845 12.6368 36.5396 11.9897 35.5662 9.40119C33.9438 5.84205 31.6724 4.22426 29.7255 3.57715C27.1296 5.84205 26.8051 8.75408 26.8051 8.75408C24.2093 18.1373 31.3479 24.6084 31.3479 24.6084Z" fill="#221101"/>
<path d="M31.3476 29.1377C31.3476 29.1377 32.97 37.5502 42.38 39.4916L39.7841 45.9627C39.7841 45.9627 22.911 37.5502 31.3476 29.1377Z" fill="#FEFFFF"/>
<path d="M51.1415 8.1067C51.1415 8.1067 52.4394 17.1663 41.0825 13.9307C41.0825 13.9307 35.2418 12.313 32.9705 7.13603C32.646 6.16535 31.0236 4.22401 29.0767 3.90045C29.0767 3.90045 31.997 -0.305804 40.1091 0.0177535C43.6784 0.341311 47.5722 3.90045 48.5456 4.54756C49.5191 5.19468 48.2211 8.75382 51.1415 8.1067Z" fill="#341C09"/>
<path d="M88.7817 74.4361C88.7817 74.4361 96.8938 76.0539 102.734 73.789C108.251 71.5241 106.953 71.2005 106.628 70.5534C105.655 68.612 98.1917 69.2592 96.8938 68.9356C95.5959 68.612 98.1917 67.6414 98.5162 66.6707C99.1652 65.7 100.463 64.7293 99.8142 64.4058C99.4897 64.0822 98.1917 63.7587 96.2448 65.3765C94.2979 66.9943 88.7817 69.2592 88.7817 69.2592V74.4361Z" fill="#EFB185"/>
<path d="M90.0786 67.9651C90.0786 67.9651 89.7542 69.5829 89.7542 71.5242C89.7542 74.1127 91.0521 75.7305 91.0521 75.7305C91.0521 75.7305 64.12 81.2309 57.3059 77.6718C57.3059 77.6718 50.8162 67.6415 60.8752 64.7295L90.0786 67.9651Z" fill="#779F29"/>
<path d="M38.4868 102.262V103.88L58.6047 117.793V116.499L38.4868 102.262Z" fill="#B4B9BC"/>
<path d="M58.605 116.499V117.793L95.9205 100.645V99.3506L58.605 116.499Z" fill="#7D8183"/>
<path d="M38.4868 102.263L58.6047 116.499L95.9203 99.3508L75.8023 85.1143L38.4868 102.263Z" fill="#E3E5E5"/>
<path d="M64.77 92.8797L63.1476 91.5854L56.9824 116.499L58.2804 117.794L64.77 92.8797Z" fill="#BDBBBB"/>
<path d="M103.708 75.0836L102.085 73.4658L63.1475 91.5851L64.7699 92.8793L103.708 75.0836Z" fill="#D2D0D0"/>
<path d="M64.7694 92.8797L58.2798 117.794L97.5422 99.9979L103.707 75.084L64.7694 92.8797Z" fill="#D5DFE6"/>
<path d="M64.77 92.8797L97.5428 99.9979L103.708 75.084L64.77 92.8797Z" fill="#E9F0F4"/>
<path d="M50.1674 98.3793C50.1674 98.3793 59.2529 105.821 68.3384 104.203C68.3384 104.203 68.3384 101.938 64.4446 100.968C60.5508 99.9971 58.9284 97.0851 58.9284 96.7615C58.9284 96.438 62.1732 96.1144 63.4712 96.1144C64.7691 96.1144 66.3915 94.1731 63.1467 93.8495C59.9019 93.526 54.0612 92.2317 50.8163 93.2024C50.4918 92.8788 47.247 96.438 50.1674 98.3793Z" fill="#EFB185"/>
<path d="M19.0175 39.1684C19.0175 39.1684 13.1769 38.1977 11.23 44.6689C9.28307 51.14 6.6872 81.2309 11.8789 88.6727C17.0707 96.4381 50.4924 100.321 50.4924 100.321C48.221 95.1439 51.4658 90.9376 51.4658 90.9376L22.5869 78.966C22.5869 78.966 29.7255 40.7862 19.0175 39.1684Z" fill="#779F29"/>
<path d="M22.5864 78.9657L51.4654 90.9373C51.4654 90.9373 50.4919 92.2315 49.843 94.1729C43.3533 92.2315 19.0171 88.3489 19.6661 83.1719C22.5864 56.3166 22.9109 42.0801 22.9109 42.0801L23.8843 45.3157C26.8047 56.9637 22.5864 78.9657 22.5864 78.9657Z" fill="#8CB230"/>
</svg>
