<svg width="103" height="199" viewBox="0 0 103 199" fill="none" xmlns="http://www.w3.org/2000/svg">
<ellipse cx="51.0674" cy="181" rx="50.5144" ry="16.1819" transform="rotate(2.07467 51.0674 181)" fill="#EFEFEF"/>
<path d="M55.8441 14.651C55.0577 15.2943 54.7589 16.272 54.3657 17.134C51.4089 13.9434 49.2227 7.66513 53.4377 4.79616C59.7759 0.47341 59.9018 11.3317 55.8441 14.651Z" fill="#291D11"/>
<path d="M69.4176 100.502L69.9052 103.204L67.9864 106.781C67.9864 106.781 68.8043 107.372 69.7007 106.202L71.415 103.255L71.1791 100.219L69.4176 100.502Z" fill="#B17966"/>
<path d="M70.2982 101.415L70.9745 104.091L69.3074 107.758C69.3074 107.758 70.1567 108.311 70.9745 107.102L72.4844 104.079L72.044 101.055L70.2982 101.415Z" fill="#B17966"/>
<path d="M73.9943 102.02L73.3966 98.8811L72.7361 94.9829L69.7636 94.6484L68.7413 98.7525L68.4896 100.914L68.1908 103.86L68.0335 104.812C68.0335 104.812 68.9615 105.057 69.6849 103.551L70.4399 100.759L71.7295 102.947L70.6443 106.78C70.6443 106.78 70.9274 108.775 71.6509 108.028L74.1201 102.651L73.9943 102.02Z" fill="#D18D77"/>
<path d="M62.529 68.4801C62.529 68.4801 69.1188 89.7208 69.7479 94.6482C69.7479 94.6482 72.3115 97.1312 72.7205 94.9827C73.554 90.6985 72.3745 68.2356 71.0219 66.4602C69.7008 64.6848 62.529 68.4801 62.529 68.4801Z" fill="#D18D77"/>
<path d="M67.8763 42.8906L70.031 43.4696C70.031 43.4696 73.4596 65.2634 70.5658 70.1265C67.6719 74.9896 64.3376 70.1008 63.2524 69.5476C62.1672 68.9944 55.2313 44.3187 55.2313 44.3187L67.8763 42.8906Z" fill="#D18D77"/>
<path d="M72.5315 67.5921L71.1475 40.2919C69.5747 33.589 61.1919 35.5832 61.1919 35.5832C54.3976 37.037 54.7122 43.2638 54.7122 43.2638L60.5628 69.4061C60.5628 69.4061 61.7896 73.4072 68.0806 73.4072C68.0963 73.4072 72.736 72.9055 72.5315 67.5921Z" fill="#001018"/>
<path d="M73.7985 95.1884L73.9028 97.6699L68.6215 97.8185L68.5172 95.337L73.7985 95.1884Z" fill="white"/>
<path d="M61.1452 70.3326C61.1452 70.3326 64.0705 86.3756 68.2541 96.2047C68.2541 96.2047 71.8399 96.4749 73.8845 96.0504C73.8845 96.0504 74.1991 73.0472 71.8871 65.5981C71.8871 65.5981 60.3116 65.7911 61.1452 70.3326Z" fill="#001018"/>
<path d="M65.4068 171.827C65.4068 171.827 66.5864 175.583 68.0333 176.6C69.4803 177.616 75.0164 179.121 75.0164 179.121L78.0833 179.482C78.0833 179.482 80.2065 180.73 74.3715 182.042C68.5209 183.354 58.2665 179.392 58.2665 179.392L60.5784 171.711L65.4068 171.827Z" fill="#21110E"/>
<path d="M34.1558 182.17C33.1177 180.858 30.9631 173.679 30.9631 173.679L26.1819 173.563L23.1936 181.463C23.1936 181.463 22.7061 182.788 23.6969 183.277C23.6969 183.277 29.6577 184.962 34.7534 183.2C34.7377 183.187 34.6748 182.839 34.1558 182.17Z" fill="#21110E"/>
<path d="M63.7874 73.2913L69.874 42.7876C69.874 42.7876 71.9815 38.2076 67.7665 35.9047L51.7401 29.7422H40.4319L21.1656 39.0567L33.7949 73.2785H63.7874V73.2913Z" fill="#E49D82"/>
<path d="M33.8099 73.2915C33.8099 73.2915 30.3498 79.7499 29.5163 94.6094C29.5163 94.6094 55.5612 101.286 63.7238 94.6094L63.771 73.2915H33.8099Z" fill="#000E15"/>
<path d="M50.8903 94.5449C50.9375 99.5366 46.1877 103.602 40.2899 103.641C34.392 103.679 29.5637 99.6653 29.5165 94.6736C29.4693 89.6818 34.219 85.6164 40.1169 85.5778C46.0304 85.552 50.8431 89.566 50.8903 94.5449Z" fill="#000E15"/>
<path d="M29.5325 95.7799L26.7015 133.746C26.7015 133.746 31.7186 143.626 40.589 137.554L50.23 98.4945C50.23 98.4945 45.5432 85.359 29.5325 95.7799Z" fill="#000E15"/>
<path d="M26.7011 133.745C26.7011 133.745 24.0274 140.873 24.8295 153.288L24.0431 176.497L33.8729 176.651L40.5571 137.669C40.5414 137.669 33.8572 125.036 26.7011 133.745Z" fill="#000E15"/>
<path d="M63.6923 94.635C64.3057 99.601 62.1353 103.834 56.2689 104.323C50.4025 104.811 45.1337 101.183 44.5204 96.2303C43.907 91.2643 48.1534 86.8515 54.0356 86.3626C59.902 85.8737 63.0632 89.6819 63.6923 94.635Z" fill="#000E15"/>
<path d="M47.0214 101.171L52.416 136.151C52.416 136.151 64.1173 140.397 66.1934 134.453C66.1934 134.453 65.926 107.809 63.6927 94.6349C63.6927 94.6349 49.239 88.8841 47.0214 101.171Z" fill="#000E15"/>
<path d="M52.4158 134.724C52.4158 134.724 50.7802 139.857 52.5417 149.223L56.5994 175.738L66.9639 175.288L66.1932 133.051C66.1775 133.051 59.7292 127.519 52.4158 134.724Z" fill="#000E15"/>
<path d="M23.6655 70.5768C21.4637 88.6397 22.3601 89.8362 22.596 97.0793C22.596 97.0793 21.4165 99.6267 19.4191 98.1986C17.4217 96.7706 14.229 72.7124 15.2355 70.7955C16.7297 67.9394 23.6655 70.5768 23.6655 70.5768Z" fill="#E49D82"/>
<path d="M22.2813 96.3584L25.3954 98.8929L28.0376 102.058C26.7322 102.778 25.3639 101.003 25.3639 101.003C26.2132 103.795 27.8803 106.252 27.8803 106.252C28.2735 107.255 27.1254 107.178 27.1254 107.178C25.8357 106.097 24.1843 102.907 24.1843 102.907C24.7977 104.811 26.3862 107.834 26.3862 107.834C26.5277 108.709 25.474 108.452 25.474 108.452C23.2879 107.397 22.5487 103.524 22.5487 103.524C22.7689 104.991 24.1843 108.014 24.1843 108.014C23.9327 108.606 23.571 108.413 23.571 108.413C21.6837 107.796 20.9916 104.065 20.9916 104.065L21.2905 105.454C21.9038 107.333 20.4884 106.844 20.4884 106.844L19.9693 105.905C18.4752 103.023 18.9313 100.424 18.9313 100.424L18.9471 97.0531L22.2813 96.3584Z" fill="#E49D82"/>
<path d="M28.5568 39.6222C21.1177 38.2327 18.5855 43.8549 18.5855 43.8549C18.5855 43.8549 14.8424 62.5739 14.8896 70.589C14.921 76.0053 22.9893 71.644 23.524 70.692C24.6879 68.5949 33.1808 46.042 33.1808 46.042C33.1808 46.042 33.6211 40.7543 28.5568 39.6222Z" fill="#E49D82"/>
<path d="M24.7823 71.0141L34.4233 45.4378C34.2032 39.0823 26.6067 38.1303 26.6067 38.1303C19.4507 37.5642 17.8936 42.6074 17.8936 42.6074L14.4336 68.2223C14.4336 68.2223 13.254 73.9731 17.3274 74.0632C17.3117 74.0503 24.1375 74.655 24.7823 71.0141Z" fill="#00141C"/>
<path d="M17.8935 95.561L18.4911 98.0054L23.6655 97.1563L23.0679 94.7119L17.8935 95.561Z" fill="white"/>
<path d="M25.3647 69.4702C25.3647 69.4702 24.1223 90.9553 23.6662 95.3552L17.7998 96.3587C17.7998 96.3587 12.4996 74.8222 14.4183 68.2094C14.4183 68.2094 22.0934 64.7872 25.3647 69.4702Z" fill="#00141C"/>
<path d="M40.4001 23.0137V32.8943H53.1709C53.1709 32.8943 50.0254 28.9832 51.5981 23.0137H40.4001Z" fill="#E49D82"/>
<path d="M46.8799 31.4019C48.028 32.0066 50.4815 33.2931 51.8813 32.5469C52.2587 32.3411 52.4317 32.0709 52.4946 31.775C51.6768 30.2054 50.5444 27.092 51.6139 23.0137H40.4001V23.9142C41.7999 26.7961 43.5928 29.6651 46.8799 31.4019Z" fill="#C97F6D"/>
<path d="M40.0852 23.1551C40.0852 23.1551 37.9148 22.3831 35.4456 17.9832C35.4456 17.9832 30.0982 12.7727 33.8886 6.86755C33.8886 6.86755 36.1219 1.8758 46.9739 3.26526C46.9897 3.26526 47.9648 16.6581 40.0852 23.1551Z" fill="#E4997D"/>
<path d="M53.4538 25.8184L54.1773 24.2745L56.1747 18.5109C56.4264 17.7904 56.4421 16.8126 56.2848 16.0664C56.1118 15.2559 56.0017 14.4068 56.2534 13.5577C57.5116 9.41507 54.9165 7.06071 54.9165 7.06071C52.0541 3.14965 45.0081 3.021 45.0081 3.021C36.2793 3.20111 35.3514 10.0841 35.3514 10.0841C33.8101 14.6384 38.1666 18.5495 38.1666 18.5623C38.5126 18.8711 38.2924 20.3763 38.3868 20.8138C38.7957 22.6535 40.9032 23.8242 42.7748 24.6348C44.8351 25.5225 47.3358 26.4745 49.6635 26.6932C50.5442 26.7704 53.0292 26.7061 53.4538 25.8184Z" fill="#E49D82"/>
<path d="M31.7346 72.468C31.766 73.4843 29.8787 84.1111 30.6651 84.2526C30.6651 84.2526 52.2276 88.3181 63.7245 84.2526L63.7717 73.2914L69.874 42.7876C69.874 42.7876 71.9815 38.2076 67.7665 35.9047L51.7401 29.7422L52.8253 32.4053L50.5133 37.7959L40.4477 29.7422L21.1813 39.0567C22.2508 41.9771 23.3203 44.8976 24.4055 47.818C26.3872 53.1957 28.3217 58.5991 30.3663 63.964C30.382 63.964 32.0648 69.7791 31.7346 72.468Z" fill="white"/>
<path d="M49.1289 31.6719L48.9874 36.5736L46.7855 34.811L49.1289 31.6719Z" fill="#C9C8C8"/>
<path d="M51.9443 39.5844C51.9443 39.9703 51.5669 40.2791 51.095 40.2791C50.6232 40.2791 50.2458 39.9703 50.2458 39.5844C50.2458 39.1984 50.6232 38.8896 51.095 38.8896C51.5669 38.8896 51.9443 39.1984 51.9443 39.5844Z" fill="#E2E2E2"/>
<path d="M51.9443 52.308C51.9443 52.694 51.5669 53.0028 51.095 53.0028C50.6232 53.0028 50.2458 52.694 50.2458 52.308C50.2458 51.9221 50.6232 51.6133 51.095 51.6133C51.5669 51.6133 51.9443 51.9221 51.9443 52.308Z" fill="#E2E2E2"/>
<path d="M51.9443 65.0321C51.9443 65.4181 51.5669 65.7397 51.095 65.7397C50.6232 65.7397 50.2458 65.431 50.2458 65.0321C50.2458 64.6462 50.6232 64.3374 51.095 64.3374C51.5669 64.3374 51.9443 64.6462 51.9443 65.0321Z" fill="#E2E2E2"/>
<path d="M51.9443 77.7558C51.9443 78.1417 51.5669 78.4505 51.095 78.4505C50.6232 78.4505 50.2458 78.1417 50.2458 77.7558C50.2458 77.3698 50.6232 77.061 51.095 77.061C51.5669 77.061 51.9443 77.3698 51.9443 77.7558Z" fill="#E2E2E2"/>
<path d="M49.1289 37.1396V85.4233" stroke="#E2E2E2" stroke-width="2.9481" stroke-miterlimit="10"/>
<path d="M63.5984 85.2563C63.5984 85.2563 52.5891 89.4762 30.0514 85.1663C29.674 85.0891 29.8312 84.3043 29.8312 84.3043L30.0514 82.5289C30.1458 81.9628 30.539 81.9885 30.539 81.9885C30.539 81.9885 52.1015 86.054 63.5984 81.9885C63.5984 81.9885 64.0702 81.9242 64.0859 82.4903V84.7031C64.0859 84.7031 64.0859 85.1405 63.5984 85.2563Z" fill="#321F12"/>
<path d="M52.416 86.5942C52.416 86.8772 52.1486 87.1088 51.8026 87.1088H47.4146C47.0844 87.1088 46.8013 86.8772 46.8013 86.5942V84.0083C46.8013 83.7252 47.0686 83.4937 47.4146 83.4937H51.8026C52.1329 83.4937 52.416 83.7252 52.416 84.0083V86.5942Z" stroke="#AFAFAF" stroke-width="4.8231" stroke-miterlimit="10"/>
<path d="M46.8169 85.1406H49.1289" stroke="#AFAFAF" stroke-width="4.8231" stroke-miterlimit="10"/>
<path d="M49.1289 31.5562C49.1289 31.5562 42.0672 29.3048 40.4001 27.0791L38.3083 30.334L45.7632 36.1749L49.1289 31.6592" fill="#E2E2E2"/>
<path d="M42.1929 8.19284C41.957 8.5402 41.0133 10.9975 42.1771 12.2197C39.7079 13.7635 40.9032 16.9027 40.9032 16.9027L40.3056 16.9284C36.8455 16.1951 38.0093 21.5471 38.0093 21.5471C37.9779 21.4184 37.4117 21.1225 37.2859 21.0324C36.6096 20.505 35.1941 18.6009 34.738 17.9319C32.3002 14.291 32.5361 14.098 31.8755 11.9495C31.4352 10.4829 31.6239 6.49461 34.2347 4.50049C34.2504 4.50049 37.3016 4.50049 42.1929 8.19284Z" fill="#291D11"/>
<path d="M39.4722 19.2315C39.1577 19.4502 38.7645 19.5789 38.2455 19.5917C36.8614 19.6303 35.6504 18.614 35.5403 17.3146C35.4302 16.028 36.4683 14.9473 37.868 14.9087C38.5286 14.8959 39.142 15.1146 39.6295 15.4877C40.3215 16.028 40.4159 17.083 40.2901 17.8163C40.18 18.3952 39.9283 18.9099 39.4722 19.2315Z" fill="#E49D82"/>
<path d="M38.4819 16.0922C38.356 15.4103 36.7204 16.1308 36.9877 16.5039C37.145 16.7226 37.4438 16.8641 37.6955 17.0185C38.0258 17.2243 38.183 17.4045 38.246 17.739C38.2617 17.7775 38.2617 17.8933 38.2302 17.9319C38.0258 18.0606 37.2708 17.4302 37.1136 17.2887C36.799 17.0314 36.7204 16.5553 36.8462 16.208C36.9877 15.8349 37.2708 15.6548 37.7427 15.6676C38.1201 15.6676 38.5133 15.6805 38.4976 16.0665C38.4976 16.0665 38.4819 16.1308 38.4819 16.0922Z" fill="#D2846F"/>
<path d="M37.9782 16.8127C38.1512 16.6584 38.3242 16.7741 38.4972 16.8771C38.6702 16.9671 38.7646 17.1086 38.8275 17.263C38.9376 17.6104 38.9061 18.0864 38.6859 18.408C38.4972 18.6654 38.1669 18.8326 37.8052 18.8326C37.3019 18.8326 37.1289 18.4852 37.0817 18.125C37.066 18.0349 37.0502 17.8162 37.1603 17.7519C37.2704 17.6876 37.3648 17.8291 37.4592 17.8934C37.5693 17.9835 37.7423 18.0092 37.8995 18.0092C38.1826 18.0221 38.4657 17.8934 38.6387 17.7005C38.6702 17.6619 38.7017 17.6233 38.7017 17.5975C38.7174 17.8291 38.7017 17.8806 38.6702 17.7519C38.6387 17.7005 38.6073 17.6361 38.5601 17.5975C38.4343 17.4431 38.2298 17.3402 38.0883 17.1987C38.0254 17.1344 37.8995 16.8899 37.9782 16.8127Z" fill="#D2846F"/>
<path d="M37.2546 31.2988L45.8262 55.9231L44.5522 100.669C44.5522 100.669 31.231 99.9997 25.4118 95.6898L29.5166 69.5603L21.181 39.0695L37.2546 31.2988Z" fill="#00141C"/>
<path d="M37.2546 31.2988L45.8262 55.9231L45.7947 57.0938L35.0056 48.0624C35.0056 48.0624 33.8732 46.4928 35.4145 45.5665L37.9624 43.5724L36.138 42.5045C36.138 42.5045 33.5901 41.4882 33.8889 39.597L34.6124 32.4696L37.2546 31.2988Z" fill="#202A30"/>
<path d="M56.2381 31.4663L65.9892 35.223C65.9892 35.223 71.5411 36.4195 70.4087 41.1282L67.2003 67.2062L68.8045 94.8281C68.8045 94.8281 70.1728 99.9614 58.8646 99.0865L54.8698 55.2543L56.2381 31.4663Z" fill="#00141C"/>
<path d="M55.0898 31.8138C55.0898 31.8138 54.445 29.7554 51.2523 28.0186L51.677 35.1074C51.677 35.1074 53.4384 31.4793 55.0898 31.8138Z" fill="#E2E2E2"/>
<path d="M55.3887 35.1072L55.1056 31.8137C54.1305 31.6207 53.2654 32.7271 52.5577 33.6405L55.3887 35.1072Z" fill="#C9C8C8"/>
<path d="M56.2384 31.4663L58.7548 32.4312L60.5792 39.3013C60.5792 39.3013 61.4914 41.0767 60.1703 41.5399L57.7954 42.672L61.1296 44.396C61.1296 44.396 62.8911 45.2965 61.8059 46.6217L55.106 57.3256L54.9015 55.4988L56.2384 31.4663Z" fill="#202A30"/>
<path d="M39.3624 20.2607L40.2904 16.9286L40.888 16.9028C40.888 16.9028 41.4857 19.1157 44.7255 19.5016C44.7255 19.5016 46.1253 19.6689 46.723 19.7332C46.8016 19.7461 47.6666 19.0513 47.7767 18.987C48.7361 18.4724 49.8842 18.3438 51.0009 18.2666C52.1332 18.1894 53.36 18.0993 54.4452 18.4467C54.5868 18.4981 55.9865 19.0642 56.0337 18.9098C56.0337 18.9098 54.5553 24.2489 53.5173 25.7799C53.5173 25.7799 53.0612 26.9507 49.7112 26.6676C49.7112 26.6676 43.9549 26.2559 39.4883 22.8466C38.7176 22.3835 39.3624 20.2607 39.3624 20.2607ZM54.398 20.042C54.2722 19.4888 54.2407 19.1414 53.6588 19.0513C52.5107 18.8841 51.2525 19.0385 50.1044 19.1543C49.1765 19.2443 48.0283 19.3472 47.6509 20.1706C47.3206 20.904 47.5565 21.9589 48.0283 22.6279C48.8147 23.7472 51.3783 24.3261 52.668 23.6057C53.7846 22.9753 54.6497 21.0841 54.398 20.042Z" fill="#956854"/>
<path d="M48.437 33.4477L48.1696 33.0488L46.3924 35.2745L47.918 35.7248L48.437 33.4477Z" fill="#488CCC"/>
<path d="M52.542 33.6402L53.0453 33.0098C53.0453 33.0098 54.9483 34.3092 52.9509 35.7115C52.9509 35.7244 52.9509 34.5665 52.542 33.6402Z" fill="#488CCC"/>
<path d="M48.4364 33.4473C48.4364 33.4473 49.9462 34.5408 52.5413 33.6402C53.1075 34.2321 53.1075 34.9911 52.9502 35.7244L51.5976 38.0016H49.7103L47.9174 35.7244C47.9174 35.7244 47.7444 35.2227 48.4364 33.4473Z" fill="#488CCC"/>
<path d="M49.711 38.0015L48.1854 70.5894L51.3624 75.6583L53.9731 70.6151L51.5983 38.0015H49.711Z" fill="#396C9D"/>
<path d="M42.6962 7.74264L39.7866 6.55903L34.2505 4.50058C34.2505 4.50058 34.2505 1.40003 41.2336 0.203558C41.2336 0.203558 49.7894 -0.902861 56.5994 2.0433C56.5994 2.0433 58.4553 2.86668 59.918 2.13336C59.9022 2.13336 57.5431 10.2257 42.6962 7.74264Z" fill="#291D11"/>
</svg>
