<svg width="280" height="197" viewBox="0 0 280 197" fill="none" xmlns="http://www.w3.org/2000/svg">
<ellipse cx="139.576" cy="181.613" rx="139.562" ry="14.5461" transform="rotate(0.0309599 139.576 181.613)" fill="#EFEFEF"/>
<path d="M37.6378 168.966C37.821 172.268 37.7294 175.662 37.1799 178.965C37.1799 179.148 37.0883 179.332 37.1799 179.607C37.2714 179.882 37.5462 180.066 37.821 180.157C41.9423 182.084 46.43 183.001 51.0092 182.909C50.5513 182.451 50.0018 182.176 49.5439 181.809C45.4225 179.148 43.0413 174.011 43.6824 169.149" fill="#ECAB95"/>
<path d="M41.393 180.524C42.4004 181.075 43.4995 181.534 44.5985 181.442C45.6975 181.35 46.8881 180.524 46.9797 179.424C48.7198 179.515 50.0936 180.983 51.6505 181.717C54.0317 182.91 56.9625 182.451 59.6184 183.185C60.2595 183.368 60.9006 183.643 61.267 184.102C61.6333 184.653 61.6333 185.478 61.0838 185.845C60.9006 185.937 60.7175 186.029 60.5343 186.029C54.856 187.038 48.9946 186.854 43.4079 185.478C42.8584 185.295 42.2173 185.203 41.6678 185.295C41.3014 185.386 40.9351 185.662 40.5687 185.753C40.1108 185.845 39.5613 185.753 39.1034 185.662C38.1875 185.478 37.2717 185.295 36.3558 185.111C36.0811 185.019 35.8063 185.019 35.6231 184.836C35.44 184.653 35.44 184.469 35.44 184.286C35.2568 183.001 35.8979 181.992 35.9895 180.708C36.0811 180.158 36.539 178.965 36.9053 178.598C37.638 177.772 37.9128 178.323 38.9202 178.782C39.6529 179.24 40.5687 179.882 41.393 180.524Z" fill="#0B3B57"/>
<path d="M58.2445 167.682C57.4202 170.892 56.2296 174.011 54.7642 177.039C54.6726 177.222 54.5811 177.405 54.5811 177.589C54.5811 177.864 54.8558 178.139 55.039 178.323C58.336 181.35 62.4574 183.643 66.7619 184.928C66.4871 184.377 66.0292 183.919 65.6629 183.368C62.549 179.515 61.8163 173.92 63.9227 169.516" fill="#ECAB95"/>
<path d="M57.7865 179.791C58.7024 180.433 59.7098 181.075 60.8088 181.167C61.9078 181.258 63.19 180.616 63.3732 179.515C65.1133 179.791 66.2123 181.442 67.6777 182.451C69.8757 183.919 72.7149 183.919 75.1877 185.02C75.7372 185.295 76.3783 185.57 76.653 186.212C76.9278 186.763 76.8362 187.588 76.1951 187.863C76.012 187.955 75.8288 187.955 75.554 187.955C69.8757 188.139 64.1975 187.129 58.9771 185.02C58.4276 184.836 57.8781 184.561 57.3286 184.653C56.9622 184.653 56.5959 184.836 56.138 184.928C55.6801 185.02 55.1305 184.836 54.6726 184.653C53.7568 184.377 52.9325 184.102 52.0167 183.735C51.7419 183.644 51.4671 183.552 51.3756 183.368C51.284 183.185 51.284 183.001 51.1924 182.726C51.1924 181.442 51.9251 180.525 52.2914 179.332C52.383 178.782 53.0241 177.681 53.482 177.406C54.3063 176.672 54.4894 177.314 55.4053 177.864C56.3212 178.415 57.0538 179.149 57.7865 179.791Z" fill="#0B3B57"/>
<path d="M37.8214 82.9192C35.257 95.1199 37.0887 107.871 36.9055 120.347C36.8139 125.943 36.2644 131.447 35.9897 137.042C35.3486 148.418 35.7149 159.793 36.9971 171.076C39.7446 171.535 42.4922 171.626 45.2398 171.351C46.064 163.279 46.7967 155.114 47.621 147.042C48.0789 142.363 48.5368 137.685 49.4527 133.098C50.0938 129.795 51.1012 126.585 51.8339 123.282C53.0245 117.87 53.6656 112.366 54.3067 106.862C58.3364 115.668 62.4578 124.475 66.4875 133.19C67.1286 134.474 67.6781 135.758 67.8613 137.226C68.0444 138.877 67.4949 140.528 67.037 142.18C63.9231 152.27 60.3513 162.269 56.3216 171.993C58.5196 172.911 60.7176 173.92 62.9157 174.837C63.282 175.021 63.6484 175.112 64.0147 175.021C64.4726 174.837 64.7474 174.378 64.9306 173.92C69.1435 164.012 73.3564 154.013 77.5693 144.106C78.9431 140.895 80.3169 137.501 79.8589 134.015C79.4926 131.447 79.401 129.337 78.5767 126.218C77.8441 123.282 76.2871 119.338 75.5544 116.402C72.5321 104.385 68.594 93.8356 65.5716 81.8184C65.3885 81.0845 65.2053 80.2589 64.5642 79.7085C64.1063 79.2498 63.3736 79.0664 62.7325 78.8829C56.0468 77.2317 49.1779 76.2226 42.309 76.1309C41.21 76.1309 40.0194 76.1309 39.1951 76.8647" fill="#1355C6"/>
<path d="M55.0392 18.1548C55.2224 19.7143 55.314 21.2738 55.1308 22.7415C55.0392 23.4754 54.9476 24.301 54.5813 24.9431C53.757 26.5026 52.0169 27.1448 50.46 27.7869C51.6506 28.7042 52.4748 29.9885 53.6654 30.9976C56.8709 33.8414 62.0913 33.5662 65.6631 31.0893C63.465 29.805 62.824 26.4109 64.4725 24.3927" fill="#DB917D"/>
<path d="M69.4185 11.0913C69.6933 15.9533 68.3195 20.9069 65.4804 24.8515C64.8393 25.7688 64.015 26.6862 62.916 26.8696C62.0917 27.0531 61.359 26.7779 60.6263 26.411C57.2377 24.7598 55.406 21.0904 54.5817 17.421C53.6659 13.2012 54.1238 8.24757 57.3293 5.40381" fill="#ECAB95"/>
<path d="M54.6731 17.5126C53.1162 16.687 52.2003 14.944 52.3835 13.2011C52.3835 12.9259 52.4751 12.7424 52.6583 12.559C52.933 12.2838 53.2994 12.3755 53.5741 12.4672C53.8489 12.6507 54.0321 12.9259 54.3068 13.2011" fill="#ECAB95"/>
<path d="M53.2077 12.6509C52.6582 9.80709 52.6582 6.96332 53.9404 4.39476C55.0394 2.19314 57.329 0.633654 59.8018 0.174982C62.2746 -0.28369 64.839 0.174982 67.037 1.36753C68.4108 2.1014 69.6014 3.01875 71.0668 3.47742C72.5322 3.93609 74.3639 3.75262 75.4629 4.85343C76.2871 5.49557 76.5619 6.68812 76.6535 7.78893C76.8367 11.7335 73.9059 15.4946 70.0594 16.3202C69.7846 16.412 69.4183 16.412 69.2351 16.1368C69.1435 15.9533 69.1435 15.7698 69.1435 15.6781C69.3267 14.5773 69.693 13.2013 68.7772 12.5591C66.0296 13.8434 62.641 13.0178 60.0766 11.3666C58.9776 10.7244 57.6038 9.89882 56.5963 10.6327C55.7721 11.1831 55.7721 12.3757 55.6805 13.3847C55.5889 14.3938 54.9478 15.5864 54.032 15.4029C53.7572 14.4855 53.4824 13.5682 53.2077 12.6509Z" fill="#0B3B57"/>
<path d="M62.5496 15.4027C61.5421 15.5862 60.4431 15.4945 59.802 14.7606C59.6188 14.5771 59.2525 14.8523 59.4357 15.1275C60.2599 16.0449 61.5421 16.1366 62.7327 15.8614C63.0075 15.8614 62.8243 15.4027 62.5496 15.4027Z" fill="#282F39"/>
<path d="M59.2525 12.9259C59.8936 12.7424 60.6263 12.6507 61.2674 13.0176C61.8169 13.2928 62.3664 13.6597 62.9159 13.9349C63.0991 14.0267 63.3738 13.7515 63.0991 13.568C62.458 13.2011 61.8169 12.7424 61.1758 12.4672C60.5347 12.2837 59.8936 12.3755 59.2525 12.5589C58.9778 12.5589 59.0693 12.9259 59.2525 12.9259Z" fill="#0B3B57"/>
<path d="M69.9681 13.4767C69.4186 13.1097 68.7775 12.9263 68.1364 12.9263C67.4037 12.9263 66.671 13.2932 65.9384 13.4767C65.6636 13.5684 65.7552 13.9353 66.0299 13.8436C67.4037 13.4767 68.4112 13.1097 69.7849 13.8436C70.0597 13.9353 70.2429 13.6601 69.9681 13.4767Z" fill="#0B3B57"/>
<path d="M65.2972 16.137C65.572 16.5956 66.3047 16.5956 66.7626 16.5956C67.4037 16.5956 68.0448 16.2287 68.5943 15.8618C68.8691 15.6783 68.5943 15.3114 68.3195 15.4948C67.9532 15.6783 67.5869 15.9535 67.2205 16.137C66.9458 16.2287 65.9383 16.3204 65.6636 15.9535C65.572 15.6783 65.1141 15.8618 65.2972 16.137Z" fill="#282F39"/>
<path d="M64.4729 15.4948C64.2897 16.9625 64.656 18.1551 64.7476 19.6228C64.7476 19.8063 64.7476 20.0815 64.5645 20.1732C64.4729 20.1732 64.3813 20.1732 64.2897 20.1732C63.7402 20.1732 63.1907 20.1732 62.6412 20.1732H62.5496C62.458 20.1732 62.458 20.0815 62.458 19.9898C62.5496 18.9807 62.9159 18.0633 63.2823 17.146C63.557 16.6873 64.4729 13.8436 64.4729 15.4948Z" fill="#DB917D"/>
<path d="M64.1067 22.0993C63.5571 22.0993 63.0076 22.0993 62.4581 22.0075C62.1834 21.9158 61.817 21.9158 61.5423 22.0993C61.5423 22.0993 61.4507 22.0993 61.4507 22.191C61.4507 22.2827 61.4507 22.2827 61.5423 22.2827C61.817 22.4662 62.0918 22.6497 62.3665 22.8331C62.5497 22.9249 62.7329 23.0166 62.916 23.1083C63.2824 23.2001 63.6487 23.0166 64.0151 22.9249C64.1982 22.8331 64.2898 22.8331 64.3814 22.6497C64.473 22.4662 64.3814 22.2827 64.1982 22.2827" fill="#DB917D"/>
<path d="M51.6506 27.3281C53.4823 30.814 57.4205 32.557 61.2671 32.0066C62.5493 31.8231 63.8315 31.4562 64.5641 30.2636C65.0221 30.814 65.6632 31.0892 66.2127 31.3644C66.579 31.5479 66.9454 31.6396 67.3117 31.9148C68.0444 32.557 67.9528 33.7495 67.7696 34.6669C66.3043 44.0238 65.6632 53.4724 65.0221 62.921C64.8389 65.4896 64.6557 68.0582 64.4726 70.7185C64.1978 74.1126 64.0146 77.5985 64.5641 80.9927C64.6557 81.3597 64.6557 81.7266 64.5641 82.0018C64.381 82.4605 63.8315 82.6439 63.3735 82.7357C58.7027 83.8365 53.6655 83.5613 49.0863 81.8183C48.262 81.5431 47.3461 81.0844 47.0714 80.2588C46.7966 79.7084 46.9798 78.9746 47.0714 78.4242C48.5367 69.7094 47.8041 60.7194 48.6283 51.9129C48.8115 50.0782 49.0863 48.2436 49.1778 46.4089C49.5442 41.7304 49.1778 36.9602 48.0788 32.3735C47.8956 31.6396 47.7125 30.814 47.8956 29.9884C48.262 28.1537 50.0021 27.7868 51.6506 27.3281Z" fill="#FF6239"/>
<path d="M64.6559 30.3555C62.3663 37.2355 62.8242 43.9322 62.3663 51.1792C62.1831 53.9312 61.9083 56.775 61.8167 59.527C61.7252 62.0956 61.8167 64.6641 61.9083 67.2327C62.1831 74.9384 62.4578 82.7358 62.7326 90.4415C62.7326 90.8084 62.7326 91.0836 62.9158 91.3588C63.0989 91.634 63.4653 91.8175 63.8316 91.9092C66.0297 92.6431 68.3193 92.9183 70.6089 92.6431C70.2426 85.763 69.6931 78.9747 68.9604 72.1863C68.7772 70.6268 68.594 69.1591 68.594 67.5996C68.594 65.7649 68.8688 63.9302 69.052 62.1873C69.8762 56.1328 70.7921 49.9866 72.2574 44.0239C72.9901 41.1801 73.8144 37.9694 72.5322 35.3091C71.4332 33.1075 69.4183 32.7406 67.3119 31.548C66.4876 31.0893 65.3886 30.8141 64.6559 30.3555Z" fill="#7BB9F5"/>
<path d="M71.6163 34.0249C70.3342 35.1257 70.7005 37.3273 70.6089 39.162C70.4257 43.0149 70.3342 46.776 70.5173 50.6288C70.7005 54.5734 70.8837 58.4262 71.0668 62.3708C71.0668 63.1964 71.25 64.2055 71.8911 64.6642C72.6238 65.2146 73.6312 65.0311 74.4555 64.7559C74.9134 64.6642 75.3713 64.4807 75.5545 64.1138C75.7377 63.9303 75.7377 63.5634 75.8293 63.2882C77.0199 56.4998 76.4704 49.528 75.6461 42.7397C75.4629 41.4554 75.3713 40.1711 75.005 38.9786C74.5471 37.3273 73.1733 34.4836 71.6163 34.0249Z" fill="#71B3EA"/>
<path d="M46.9796 59.3433C47.8039 59.6185 48.6282 58.9764 49.1777 58.2425C51.2841 55.8574 52.9327 52.8302 55.6802 51.179C56.5045 50.7203 57.5119 50.3533 58.2446 50.9037C58.8857 51.3624 58.9773 52.3715 58.8857 53.1971C58.6109 56.5913 56.7792 59.7102 54.4896 62.2788C52.2 64.8474 49.4524 66.7738 46.6133 68.792" fill="#FF4810"/>
<path d="M46.8884 72.6447C49.9107 69.5257 52.9331 66.4985 55.9554 63.4713C56.5965 62.8291 57.4207 62.0953 58.3366 62.187C59.1608 62.2787 59.8019 62.9209 60.0767 63.6548C60.3515 64.3886 60.2599 65.2142 60.0767 66.0398C58.9777 70.0762 55.3143 72.7365 51.834 75.0298C48.9949 76.8645 46.2473 78.7909 43.4082 80.6256" fill="#FF4810"/>
<path d="M50.3685 27.6035C50.4601 30.539 50.5517 33.4745 50.7349 36.41C50.8265 38.3364 50.918 40.2629 51.1012 42.1893C51.376 44.5744 52.0171 46.8677 52.2918 49.1611C52.5666 51.4544 52.475 53.8395 52.2918 56.2246C51.5591 67.6914 49.819 79.0665 50.0022 90.5333C50.0022 90.8085 50.0022 91.1754 49.819 91.3589C49.6359 91.6341 49.2695 91.6341 48.9948 91.6341C46.1556 91.7258 43.2249 90.7168 40.3858 91.5424C39.1036 91.9093 37.913 92.6432 36.6308 92.6432C36.2644 92.6432 35.8065 92.5514 35.6233 92.2762C35.4402 92.001 35.5317 91.6341 35.6233 91.2672C36.8139 85.2127 36.2644 78.9748 36.7224 72.9203C37.2719 64.7559 39.5615 56.6833 39.5615 48.5189C39.5615 45.8587 39.3783 43.2901 39.1036 40.7215C38.8288 38.0612 38.6456 35.4009 38.3709 32.7406C42.0343 30.539 46.3388 28.9795 50.3685 27.6035Z" fill="#7BB9F5"/>
<path d="M60.2598 79.4331L63.6484 50.7202H82.2402L79.9506 79.4331H60.2598Z" fill="#D6DDE8"/>
<path d="M36.5389 64.6642C43.2246 66.4989 50.0935 67.3245 57.054 67.2327C58.2446 67.2327 59.5268 67.141 60.2595 66.3154C60.9921 65.5815 61.2669 64.389 62.1827 64.1138C62.4575 64.8476 61.908 65.6732 62.3659 66.2237C62.7323 66.6823 63.4649 66.5906 64.106 66.4071C65.8461 65.8567 67.4947 65.2146 69.1432 64.4807C69.418 64.2972 69.8759 64.2972 69.9675 64.5724C69.9675 64.6642 69.9675 64.7559 69.9675 64.7559C69.5095 66.7741 67.861 68.4253 66.0293 69.2509C64.106 70.1682 62.0912 70.4434 59.9847 70.7186C55.0391 71.3608 50.1851 72.0947 45.2395 72.0947C40.2939 72.0947 35.2567 71.3608 30.769 69.2509" fill="#ECAB95"/>
<path d="M38.3708 32.5571C41.21 36.6852 41.6679 42.0975 40.6605 47.0512C39.653 52.0048 37.5466 56.5915 36.5391 61.4534C36.2644 62.5543 36.1728 63.9303 36.9055 64.7559C34.7074 66.8658 35.1654 67.9666 33.8832 70.6269C33.7916 70.9021 33.8832 70.9021 33.5168 71.3608C33.3336 71.636 31.7767 70.6269 31.5019 70.4434C29.3955 68.8839 28.2049 68.6087 28.0217 65.9484C27.8385 62.0956 28.846 58.3345 29.8534 54.6651C31.6851 48.5189 33.6084 42.3727 35.7149 36.2265C36.2644 34.667 36.9055 33.291 38.3708 32.5571Z" fill="#71B3EA"/>
<path d="M192.143 167.04C190.86 169.15 191.685 171.902 193.425 173.645C195.073 175.388 197.455 176.305 199.653 177.131C202.858 178.323 206.064 179.607 209.361 180.8C209.91 180.983 210.643 181.534 210.277 182.084C210.185 182.268 210.002 182.359 209.819 182.451C207.163 183.644 204.14 182.726 201.301 182.176C196.081 181.075 190.677 180.983 185.457 181.809C184.083 181.993 182.251 181.993 181.977 180.616C181.885 180.341 181.977 180.066 181.977 179.791C182.801 174.47 183.717 169.15 184.541 163.829" fill="#ECAB95"/>
<path d="M195.714 175.387C195.257 175.571 194.799 176.305 194.432 176.855C193.883 177.772 193.242 177.497 192.143 177.497C191.044 177.406 190.036 177.039 189.12 176.58C187.38 175.846 185.548 175.112 183.808 174.47C183.534 174.378 183.167 174.287 182.893 174.378C182.526 174.562 182.435 174.929 182.343 175.387C181.977 176.763 181.702 178.139 181.336 179.515C181.244 179.882 181.152 180.341 181.244 180.708C181.336 180.983 181.519 181.258 181.793 181.442C183.534 182.91 186.098 182.726 188.388 182.451C193.058 182.084 197.729 182.267 202.309 183.001C205.148 183.46 208.353 184.102 210.551 182.359C210.918 182.084 211.375 181.534 211.101 181.075C211.009 180.8 210.734 180.708 210.551 180.616C209.086 179.882 207.529 179.332 205.972 178.873C204.14 178.231 202.217 177.681 200.385 177.039C198.828 176.488 196.63 175.571 195.714 175.387Z" fill="#0B3B57"/>
<path d="M182.434 105.578C190.952 106.128 195.073 108.146 196.447 111.082C197.821 113.925 197.546 118.787 197.546 121.906C197.638 137.409 195.073 152.821 192.509 168.049C192.509 168.324 192.417 168.599 192.234 168.783C191.959 169.15 191.318 169.15 190.86 169.058C188.754 168.783 186.556 168.507 184.449 168.232C184.083 168.14 183.717 168.14 183.442 167.865C183.167 167.59 183.076 167.131 183.076 166.673C182.618 155.022 181.61 148.142 181.793 134.29C181.885 127.41 184.266 119.063 179.046 118.696C174.192 118.329 181.702 110.073 185.09 107.412" fill="#0B3B57"/>
<path d="M152.761 120.255C141.862 138.052 138.016 158.784 134.352 179.057C134.169 180.249 136.001 180.8 136.184 179.516C139.756 159.426 143.511 138.877 154.409 121.172C155.05 120.163 153.402 119.246 152.761 120.255Z" fill="#0B3B57"/>
<path d="M169.429 120.255C180.328 138.052 184.174 158.784 187.838 179.057C188.021 180.249 186.189 180.8 186.006 179.516C182.434 159.426 178.679 138.877 167.781 121.172C167.14 120.163 168.788 119.246 169.429 120.255Z" fill="#0B3B57"/>
<path d="M180.236 115.577H139.847V120.53H180.236V115.577Z" fill="#7BB9F5"/>
<path d="M169.155 43.0146C168.33 44.9411 167.872 46.9592 167.689 49.0691C167.506 50.9038 167.598 52.7385 168.33 54.3897C169.063 56.0409 170.62 57.4169 172.452 57.5087C171.811 58.426 171.078 59.3434 170.345 60.0772C168.147 62.1871 164.85 63.2879 161.828 62.8293C158.805 62.3706 155.966 60.4442 154.501 57.6921C156.607 57.3252 158.256 55.3988 158.622 53.2889C159.08 51.179 158.531 48.9774 157.615 47.051" fill="#DB917D"/>
<path d="M157.523 55.8578C160.728 58.1511 164.85 58.7933 167.964 56.3164C168.238 56.133 168.513 55.8578 168.879 55.766C169.154 55.6743 169.521 55.766 169.795 55.8578C172.909 56.6834 176.115 57.6007 179.229 58.4263C179.503 58.5181 179.778 58.6098 180.053 58.7933C180.236 59.0685 180.236 59.3437 180.236 59.7106C180.236 71.9113 177.763 84.0202 178.771 96.1291C178.862 96.6795 178.862 97.2299 178.496 97.6886C178.13 98.1473 177.488 98.3308 176.847 98.3308C174.649 98.606 172.543 98.7894 170.345 98.7894C164.666 98.6977 158.988 96.863 153.31 97.7804C151.661 98.0556 150.013 98.5142 148.364 98.5142C148.09 98.5142 147.723 98.4225 147.54 98.239C147.357 98.0556 147.357 97.7804 147.357 97.5052C147.54 89.4325 147.174 81.3599 146.258 73.2873C145.8 69.251 145.159 65.1229 145.708 61.0866C145.8 60.5362 145.892 59.8941 146.258 59.5271C146.533 59.2519 146.991 59.0685 147.357 58.9767C150.837 58.0594 154.134 56.9586 157.523 55.8578Z" fill="#7BB9F5"/>
<path d="M179.686 58.6099C177.305 63.9305 176.573 70.4436 178.129 76.0394C178.771 78.4245 179.778 80.7178 180.694 83.0112C181.61 85.1211 182.526 87.3227 183.441 89.4326C183.533 89.6161 183.533 89.7995 183.533 89.8913C183.441 90.1665 183.167 90.3499 182.8 90.4417C178.862 91.6342 174.832 92.2764 170.803 93.102C170.619 93.102 170.345 93.1937 170.253 93.3772C170.07 93.5607 170.162 93.8359 170.162 94.1111C170.345 95.3953 170.619 96.7714 171.627 97.5052C172.085 97.8722 172.726 98.0556 173.275 98.2391C179.045 99.7069 185.182 99.0647 190.951 97.6887C191.867 97.5052 192.875 97.1383 193.241 96.3127C193.516 95.7623 193.424 95.1201 193.333 94.5697C192.234 88.2401 191.226 81.8187 189.211 75.6725C187.196 69.5263 184.266 63.6552 179.87 58.8851C179.87 58.7933 179.87 58.6099 179.686 58.6099Z" fill="#71B3EA"/>
<path d="M146.808 59.4355C149.189 64.7561 149.921 71.2693 148.365 76.8651C147.723 79.2502 146.716 81.5435 145.8 83.8369C144.884 85.9468 143.968 88.1484 143.053 90.2583C142.961 90.4418 142.961 90.6252 142.961 90.717C143.053 90.9922 143.327 91.1756 143.694 91.2674C147.632 92.4599 151.662 93.1021 155.691 93.9277C155.875 93.9277 156.149 94.0194 156.241 94.2029C156.424 94.3863 156.332 94.6615 156.332 94.9367C156.149 96.221 155.875 97.597 154.867 98.3309C154.409 98.6978 153.768 98.8813 153.219 99.0648C147.449 100.533 141.312 99.8904 135.543 98.5144C134.627 98.3309 133.619 97.964 133.253 97.1384C132.978 96.588 133.07 95.9458 133.161 95.3954C134.26 89.0657 135.268 82.6443 137.283 76.4981C139.298 70.3519 142.228 64.4809 146.624 59.7107C146.533 59.5273 146.533 59.4355 146.808 59.4355Z" fill="#71B3EA"/>
<path d="M129.407 109.522C132.063 107.596 131.605 106.587 138.107 105.302C147.724 103.376 143.145 99.3395 145.892 98.147C149.555 96.5875 153.585 98.9726 157.34 97.8718C158.622 97.5048 159.905 97.5048 161.278 97.5048C164.392 97.5048 167.506 97.4131 170.62 97.4131C171.811 97.4131 173.001 97.4131 174.192 97.6883C175.291 97.9635 176.298 98.6056 177.306 99.2478C179.779 100.716 182.16 102.183 184.633 103.559C187.38 105.211 190.219 106.953 191.41 109.889C191.868 110.99 192.051 112.366 191.593 113.467C190.86 115.118 188.845 115.76 187.105 116.219C181.977 117.503 176.573 118.329 171.353 117.503C167.323 116.861 164.026 116.402 159.996 116.861C157.432 117.136 153.31 117.686 150.013 118.053C142.778 118.879 137.191 119.613 130.597 116.494" fill="#0B3B57"/>
<path d="M130.047 167.04C131.33 169.15 130.505 171.902 128.765 173.645C127.117 175.388 124.735 176.305 122.537 177.131C119.332 178.323 116.126 179.607 112.829 180.8C112.28 180.983 111.547 181.534 111.914 182.084C112.005 182.268 112.188 182.359 112.371 182.451C115.027 183.644 118.05 182.726 120.889 182.176C126.109 181.075 131.513 180.983 136.733 181.809C138.107 181.993 139.939 181.993 140.213 180.616C140.305 180.341 140.213 180.066 140.213 179.791C139.389 174.47 138.473 169.15 137.649 163.829" fill="#ECAB95"/>
<path d="M126.384 175.387C126.842 175.571 127.3 176.305 127.666 176.855C128.216 177.772 128.857 177.497 129.956 177.497C131.055 177.497 132.062 177.039 132.978 176.58C134.718 175.846 136.55 175.112 138.29 174.47C138.565 174.378 138.931 174.287 139.206 174.378C139.572 174.562 139.664 174.929 139.756 175.387C140.122 176.763 140.397 178.139 140.763 179.515C140.855 179.882 140.946 180.341 140.855 180.708C140.763 180.983 140.58 181.258 140.305 181.442C138.565 182.91 136.001 182.726 133.711 182.451C129.04 182.084 124.369 182.267 119.79 183.001C116.951 183.46 113.745 184.102 111.547 182.359C111.181 182.084 110.723 181.534 110.998 181.075C111.089 180.8 111.364 180.708 111.547 180.616C113.013 179.882 114.57 179.332 116.127 178.873C117.958 178.231 119.882 177.681 121.713 177.039C123.27 176.488 125.468 175.571 126.384 175.387Z" fill="#0B3B57"/>
<path d="M139.664 105.578C131.147 106.128 127.025 108.146 125.652 111.082C124.278 113.925 124.553 118.787 124.553 121.906C124.461 137.409 127.026 152.821 129.59 168.049C129.59 168.324 129.681 168.599 129.865 168.783C130.139 169.15 130.78 169.15 131.238 169.058C133.345 168.783 135.543 168.507 137.649 168.232C138.016 168.14 138.382 168.14 138.657 167.865C138.932 167.59 139.023 167.131 139.023 166.673C139.481 155.022 140.489 148.142 140.305 134.29C140.214 127.41 137.833 119.063 143.053 118.696C147.907 118.329 140.397 110.073 137.008 107.412" fill="#0B3B57"/>
<path d="M176.39 101.358H140.946C139.389 101.358 138.107 100.073 138.107 98.5139V79.5249C138.107 77.9654 139.389 76.6812 140.946 76.6812H176.39C177.946 76.6812 179.229 77.9654 179.229 79.5249V98.5139C179.229 100.073 177.946 101.358 176.39 101.358Z" fill="#D6DDE8"/>
<path d="M157.615 90.8998C158.828 90.8998 159.813 89.9141 159.813 88.6982C159.813 87.4823 158.828 86.4966 157.615 86.4966C156.401 86.4966 155.417 87.4823 155.417 88.6982C155.417 89.9141 156.401 90.8998 157.615 90.8998Z" fill="#C2C9D3"/>
<path d="M156.241 27.0532C155.508 28.154 155.05 29.4383 154.867 30.8143C154.684 32.1903 154.867 33.5664 154.776 34.9424C154.684 36.0432 154.684 37.5109 154.684 38.6117C154.501 41.8225 155.6 44.4827 156.882 47.4182C157.34 48.5191 157.89 49.7116 158.714 50.5372C159.538 51.3628 160.82 51.4546 162.011 51.1794C162.652 50.9959 164.484 49.9868 164.942 49.6199C168.605 46.7761 169.612 43.5654 169.979 38.9787C170.07 37.6027 170.07 36.2267 169.979 34.8506C169.887 33.4746 169.887 32.0986 169.429 30.7226C168.971 29.4383 168.147 28.154 166.957 27.6036" fill="#ECAB95"/>
<path d="M170.345 39.4372C170.162 40.0793 169.521 40.8132 168.88 40.4463C168.605 40.2628 168.514 39.8959 168.422 39.6207C168.239 38.6116 168.056 37.5108 167.506 36.5934C167.048 35.6761 166.224 34.7588 165.216 34.4835C163.293 33.9331 161.461 35.4009 159.538 35.8596C157.706 36.2265 155.783 35.6761 154.135 34.8505C152.944 34.3001 151.753 33.3827 151.387 32.0985C151.112 30.8142 151.753 29.5299 152.395 28.5208C153.585 26.6861 155.051 24.9432 156.882 23.7506C158.714 22.5581 161.095 21.9159 163.202 22.4663C164.667 22.8333 165.949 23.6589 167.414 24.1176C168.147 24.3928 168.971 24.4845 169.704 24.8514C171.353 25.5853 172.452 27.3283 172.91 29.163C173.368 30.9976 173.184 32.8323 173.001 34.667C172.726 37.3273 172.452 39.9876 171.353 42.3727C170.528 44.1157 169.613 45.8586 167.781 46.409" fill="#0B3B57"/>
<path d="M158.806 46.1337C159.996 46.2255 162.194 46.3172 163.293 46.042C162.927 46.5007 162.469 46.8676 162.011 47.1428C161.462 47.5097 161.004 47.6015 160.363 47.5097C160.088 47.5097 159.63 47.2345 159.538 47.0511C159.447 46.8676 158.989 46.4089 158.806 46.1337Z" fill="#DB917D"/>
<path d="M160.637 39.2539C160.179 40.8134 159.722 42.2811 159.355 43.8406C159.355 43.9324 159.264 44.1158 159.355 44.2076C159.447 44.2993 159.538 44.2993 159.538 44.2993C159.996 44.2993 160.454 44.2993 160.912 44.2993C161.004 44.2993 161.187 44.2993 161.278 44.2076C161.37 44.1158 161.37 44.0241 161.278 43.8406C161.187 42.3729 160.821 40.6299 160.637 39.2539Z" fill="#DB917D"/>
<path d="M162.011 36.2263C163.476 35.9511 165.033 36.0429 166.499 36.5015C166.773 36.5933 166.865 36.2263 166.59 36.1346C165.033 35.6759 163.476 35.5842 161.919 35.8594C161.645 35.9511 161.736 36.3181 162.011 36.2263Z" fill="#0B3B57"/>
<path d="M158.439 36.0428C157.248 35.7676 156.149 35.7676 154.959 35.9511C154.684 35.9511 154.776 36.4098 155.05 36.318C156.149 36.1346 157.248 36.2263 158.348 36.4098C158.531 36.5015 158.714 36.1346 158.439 36.0428Z" fill="#0B3B57"/>
<path d="M162.561 38.8865C163.66 39.5287 165.033 39.4369 166.041 38.7031C166.316 38.5196 166.041 38.1527 165.766 38.3361C164.85 38.9783 163.751 39.07 162.744 38.5196C162.561 38.3361 162.286 38.7031 162.561 38.8865Z" fill="#282F39"/>
<path d="M158.256 38.4283C157.523 38.7952 156.608 38.7035 155.967 38.0614C155.783 37.8779 155.417 38.1531 155.6 38.4283C156.424 39.1622 157.523 39.3456 158.439 38.7952C158.714 38.7035 158.531 38.3366 158.256 38.4283Z" fill="#282F39"/>
<path d="M157.066 41.2718C158.33 41.2718 159.355 40.245 159.355 38.9784C159.355 37.7118 158.33 36.6851 157.066 36.6851C155.801 36.6851 154.776 37.7118 154.776 38.9784C154.776 40.245 155.801 41.2718 157.066 41.2718Z" stroke="#282F39" stroke-width="0.5" stroke-miterlimit="10"/>
<path d="M164.209 41.2718C165.474 41.2718 166.499 40.245 166.499 38.9784C166.499 37.7118 165.474 36.6851 164.209 36.6851C162.945 36.6851 161.919 37.7118 161.919 38.9784C161.919 40.245 162.945 41.2718 164.209 41.2718Z" stroke="#282F39" stroke-width="0.5" stroke-miterlimit="10"/>
<path d="M159.355 38.52C159.355 38.52 160.637 37.7861 161.828 38.52" stroke="#282F39" stroke-width="0.5" stroke-miterlimit="10"/>
<path d="M169.613 40.4461C169.796 39.8957 170.07 39.3453 170.528 38.9784C170.62 38.8867 170.712 38.7949 170.895 38.7949C171.078 38.7949 171.17 38.9784 171.261 39.0701C171.627 39.8957 171.353 40.8131 171.078 41.6387C170.895 42.1891 170.712 42.7395 170.345 43.1064C169.979 43.4734 169.338 43.7486 168.88 43.5651" fill="#ECAB95"/>
<path d="M166.499 38.6118L169.246 38.52" stroke="#282F39" stroke-width="0.5" stroke-miterlimit="10"/>
<path d="M156.241 79.6166C159.813 86.6802 163.293 93.8354 166.865 100.899C166.956 101.082 167.231 101.174 167.414 101.174C176.023 101.174 184.541 101.174 193.15 101.174C193.974 101.174 193.974 99.8899 193.15 99.8899C186.006 99.8899 178.862 99.8899 171.627 99.8899C170.437 99.8899 168.88 99.6147 167.781 99.8899C167.14 100.073 167.689 99.7064 167.872 100.165C167.689 99.7982 167.506 99.4312 167.323 99.156C165.491 95.5784 163.751 91.909 161.919 88.3314C160.362 85.2124 158.805 82.0934 157.248 78.9745C156.974 78.2406 155.966 78.8827 156.241 79.6166Z" fill="#0B3B57"/>
<path d="M192.051 161.719C193.241 165.48 194.798 169.149 195.806 172.91C196.813 176.672 197.363 180.8 196.447 184.561C196.172 185.845 195.714 187.038 195.256 188.23C195.256 189.606 196.905 187.955 197.546 187.405C199.011 185.845 200.11 184.01 200.751 181.992C201.942 178.048 201.392 173.553 203.316 169.975C203.774 169.058 204.415 168.232 204.69 167.223C204.964 166.214 204.781 165.021 203.957 164.471C203.591 164.287 203.224 164.196 202.858 164.012C199.103 162.911 196.172 159.334 195.806 155.481" fill="#093B57"/>
<path d="M176.115 113.467C175.565 117.503 174.65 122.732 176.023 126.585C180.694 139.703 186.83 151.903 192.875 164.379C192.967 164.471 192.783 164.379 192.875 164.379C192.967 164.379 192.783 164.379 192.875 164.379C195.165 163.829 197.088 162.361 198.553 161.444C195.897 150.527 194.982 138.785 189.12 129.245C188.021 127.502 186.739 125.759 186.189 123.741C185.64 121.723 185.823 119.338 187.38 117.962C189.395 116.127 193.15 116.586 194.524 114.201" fill="#FF4810"/>
<path d="M222.182 50.629C223.556 52.4637 223.831 54.9405 223.739 57.2339C223.739 57.876 223.739 58.5182 223.556 59.0686C223.373 59.619 223.189 60.1694 222.915 60.6281C221.724 63.1049 220.442 65.5817 219.16 68.0585C220.35 68.3337 221.541 67.5999 222.548 66.9577C224.014 66.0404 225.479 65.123 226.853 64.2057C229.234 62.6462 231.615 61.1785 233.63 59.252C232.531 58.3347 231.707 57.1421 231.157 55.7661C230.241 53.6562 230.15 51.2712 230.333 48.9778C230.516 46.6844 230.974 44.3911 231.157 42.1895" fill="#DD9885"/>
<path d="M173.825 165.389C173.55 169.333 173.734 173.278 173.276 177.222C172.909 181.167 171.902 185.111 169.704 188.414C168.971 189.515 168.147 190.432 167.323 191.441C166.865 192.725 168.971 191.808 169.795 191.441C171.719 190.524 173.367 189.148 174.741 187.497C177.305 184.286 178.404 179.883 181.518 177.222C182.251 176.58 183.167 176.03 183.808 175.204C184.449 174.379 184.724 173.186 184.083 172.36C183.808 172.085 183.533 171.81 183.167 171.535C180.053 169.15 178.588 164.838 179.595 160.985" fill="#093B57"/>
<path d="M241.782 97.5968C242.697 100.441 243.522 103.376 243.796 106.312C244.071 109.339 243.613 112.458 241.965 114.935C238.851 119.796 232.531 121.081 226.762 121.631C212.932 122.824 199.103 121.264 185.274 121.081C183.442 121.081 181.061 121.448 180.511 123.191C180.236 124.2 180.694 125.209 181.061 126.218C183.533 132.364 182.892 139.336 181.702 145.849C180.511 152.362 178.863 158.967 179.412 165.572C179.504 166.398 179.595 167.315 179.046 167.865C178.679 168.232 178.221 168.416 177.672 168.599C176.298 169.058 174.924 169.517 173.551 169.975C172.085 153.463 171.078 136.951 170.528 120.347C170.437 118.237 170.437 116.127 170.895 114.109C171.444 112.091 172.635 110.164 174.466 109.247C175.657 108.697 178.679 107.963 179.962 107.688C197.18 104.844 207.803 104.018 219.526 102.092C223.556 101.45 228.135 100.074 229.784 96.3125" fill="#FF6239"/>
<path d="M214.581 96.5875C212.108 96.404 209.177 95.9454 206.705 95.6702C202.125 95.3032 198.095 95.4867 193.516 95.3032C192.234 95.3032 190.402 95.395 189.12 95.4867C185.823 95.6702 183.259 96.6792 180.145 97.6883C179.504 97.8718 178.679 98.4222 178.313 98.9726C177.947 99.523 177.855 100.349 177.306 100.807C177.58 100.991 178.038 100.807 178.222 100.532C178.405 100.257 178.588 99.8899 178.863 99.7065C179.137 99.523 180.603 99.0643 180.877 99.0643C182.526 98.8809 182.984 98.9726 184.632 98.7891C185.09 98.6974 185.64 98.6974 186.098 98.7891C187.288 98.9726 188.113 99.4313 189.395 99.1561C189.853 99.0643 190.402 98.7891 190.769 98.6057C191.959 97.6883 193.425 98.5139 194.798 99.0643C195.989 99.523 197.271 99.7065 198.553 99.9817C200.843 100.44 203.133 100.899 205.422 101.449C208.903 102.183 212.383 102.917 215.955 103.009" fill="#ECAB95"/>
<path d="M232.623 57.417C230.333 61.2698 226.303 64.1136 221.907 65.0309C221.449 65.1227 220.9 65.2144 220.533 65.4896C220.167 65.7648 219.984 66.1318 219.801 66.4987C219.068 67.9664 218.335 69.4342 217.603 70.9019C216.778 72.4614 216.046 74.1126 215.863 75.9473C215.496 79.158 217.328 82.277 218.427 85.3042C220.075 89.9827 220.259 95.1198 218.976 99.89C218.885 100.257 218.793 100.716 219.068 100.991C219.16 101.083 219.343 101.174 219.434 101.266C222.457 102.642 225.662 103.284 228.959 103.926C231.524 104.385 234.088 104.935 236.744 104.66C238.393 104.568 240.041 104.11 241.506 103.376C241.323 102.367 240.591 101.541 239.949 100.624C236.378 95.6702 236.103 88.8819 237.935 83.1026C238.667 80.901 239.583 78.7911 240.041 76.4977C240.682 73.0118 239.858 69.4342 238.301 66.2235C236.836 63.1045 234.729 60.169 232.623 57.417Z" fill="#FEB101"/>
<path d="M216.779 95.6706C215.588 95.9459 214.397 94.7533 213.115 94.9368C213.024 94.9368 212.932 94.9368 212.932 95.0285C212.841 95.1202 212.841 95.3037 212.841 95.3954C212.932 97.7805 212.657 100.166 212.291 102.551C212.291 102.642 212.291 102.734 212.291 102.734C212.383 102.826 212.474 102.826 212.566 102.826C213.848 103.009 215.13 103.101 216.321 103.193" fill="#EF8F06"/>
<path d="M213.94 95.8542C213.482 95.9459 213.299 96.4963 213.573 96.7715C213.848 97.1384 214.489 97.0467 214.581 96.588C214.764 96.2211 214.306 95.7624 213.94 95.8542Z" fill="#FEB101"/>
<path d="M231.341 61.7288C229.234 62.5544 227.677 64.4808 226.761 66.5907C225.937 68.7006 225.754 70.9939 225.662 73.2873C225.571 76.2228 225.754 79.1583 225.662 82.0021C225.571 84.1119 225.388 86.3136 224.472 88.1483C223.373 90.5333 221.266 92.5515 218.702 93.3771C218.061 93.5606 217.328 93.744 216.87 94.2027C215.68 95.2118 215.954 97.0465 216.046 98.6977C216.046 100.165 215.863 101.633 215.313 102.917C215.13 103.284 214.947 103.743 215.039 104.202C215.13 104.477 215.313 104.752 215.588 105.027C219.16 108.513 224.105 110.623 229.051 110.531C231.89 110.531 234.821 109.798 237.111 108.146C239.95 106.22 241.781 103.009 242.606 99.7068C243.522 96.4043 243.522 92.9184 243.43 89.5243C243.155 83.5615 242.331 77.5988 240.957 71.8195C240.499 69.8014 239.858 67.6915 238.759 65.8568C237.568 64.0221 235.828 62.6461 233.813 61.8205C232.898 61.4536 231.89 61.2701 231.066 61.637" fill="#FFA000"/>
<path d="M218.427 100.808C220.442 100.899 222.365 100.991 224.289 100.624C227.952 99.7986 230.974 96.9548 232.623 93.5606C234.363 90.1665 234.821 86.3136 234.821 82.5525C234.821 81.7269 234.821 80.9013 234.913 80.0757C235.554 80.1674 235.828 80.8096 236.012 81.4517C237.202 85.6715 237.752 90.0747 237.569 94.478C237.477 95.9457 237.385 97.5052 236.927 98.8812C236.561 100.166 236.012 101.358 235.004 102.184C234.363 102.734 233.63 103.193 232.898 103.56C231.249 104.385 229.509 104.936 227.677 104.844C224.289 104.752 221.266 102.826 218.519 100.899" fill="#EF8F06"/>
<path d="M221.999 95.3034C224.472 94.2944 226.304 92.0927 227.403 89.7076C228.502 87.3225 228.96 84.6622 229.509 82.002C229.784 82.2772 229.784 82.6441 229.875 82.9193C230.059 84.5705 230.333 86.2217 230.242 87.873C230.15 89.5242 229.601 91.1754 228.593 92.4597C226.945 94.3861 224.38 95.4869 221.999 95.3034Z" fill="#EF8F06"/>
<path d="M220.533 32.9238C219.343 33.8412 218.152 34.7585 217.236 35.9511C216.321 37.1436 215.771 38.7031 216.046 40.1708C216.137 40.813 216.412 41.4551 216.412 42.0055C216.321 43.1063 215.588 43.932 214.764 44.6658C214.489 44.941 214.214 45.308 214.489 45.6749C214.672 45.9501 215.13 46.0418 215.313 46.317C215.496 46.5005 215.588 46.7757 215.588 47.0509C215.863 48.7021 216.137 50.3534 216.504 52.0046C216.595 52.2798 216.595 52.6467 216.778 52.9219C217.328 53.6558 218.519 53.4723 219.434 53.1971C220.533 52.8302 221.632 52.4632 222.731 52.0963C224.288 51.5459 225.845 51.0872 227.219 50.2616C228.593 49.436 229.875 48.3352 230.516 46.8674C230.791 46.2253 230.974 45.4914 231.157 44.8493C231.615 42.8311 231.798 40.6295 231.157 38.6114C230.608 36.5932 229.142 34.7585 227.219 34.1164" fill="#ECAB95"/>
<path d="M216.046 49.2526C216.595 49.2526 216.962 49.0691 217.328 48.7022C217.511 48.5187 217.694 48.3353 217.786 48.0601C217.42 48.1518 217.053 48.2435 216.687 48.2435C216.321 48.2435 216.046 48.2435 215.771 48.2435L215.954 49.1609H216.046V49.2526Z" fill="#FE4810"/>
<path d="M216.87 42.0056C218.152 42.2808 219.526 42.0056 220.167 40.813C220.259 40.5378 219.893 40.2626 219.801 40.5378C219.251 41.6386 218.152 41.8221 217.053 41.5469C216.687 41.4552 216.595 41.9138 216.87 42.0056Z" fill="#282F39"/>
<path d="M216.778 39.8039C217.786 39.0701 219.159 38.3362 220.442 38.7031C220.716 38.7948 220.9 38.3362 220.533 38.2444C219.159 37.7858 217.602 38.5196 216.503 39.3453C216.229 39.5287 216.503 39.9874 216.778 39.8039Z" fill="#282F39"/>
<path opacity="0.42" d="M221.174 46.684C221.984 46.684 222.64 46.0269 222.64 45.2163C222.64 44.4057 221.984 43.7485 221.174 43.7485C220.365 43.7485 219.709 44.4057 219.709 45.2163C219.709 46.0269 220.365 46.684 221.174 46.684Z" fill="#FE4810"/>
<path d="M230.15 32.5571C230.241 29.8051 231.157 27.0531 232.806 24.8514C234.454 22.6498 236.927 21.0903 239.675 20.5399C240.865 20.2647 242.148 20.2647 243.247 20.6317C245.719 21.4573 247.368 24.1176 247.368 26.7779C247.368 29.4382 245.903 31.915 243.979 33.6579C242.056 35.4009 239.583 36.5934 237.11 37.5108" fill="#0B3B57"/>
<path d="M225.021 42.1893C225.937 42.3727 226.67 43.1066 227.036 43.9322C227.402 44.7578 227.494 45.7669 227.402 46.6842C227.311 48.5189 226.853 50.4453 226.578 52.28C226.303 54.1147 226.028 56.0411 226.395 57.8758C226.761 59.7105 227.769 61.5452 229.326 62.4625C228.318 61.27 227.769 59.7105 227.585 58.151C227.494 56.5915 227.769 55.0321 228.226 53.5643C228.501 52.9222 228.776 52.28 228.959 51.6379C229.875 49.3445 230.333 46.776 229.783 44.3909C229.6 43.7487 229.325 43.1066 228.959 42.5562C228.226 41.7306 227.219 41.3636 226.12 41.1802" fill="#0B3B57"/>
<path d="M217.969 35.1255C218.519 38.5197 220.625 41.5469 223.739 42.923C224.105 43.1064 224.472 43.1982 224.838 43.1982C225.204 43.1982 225.479 43.0147 225.754 43.0147C227.128 42.7395 228.318 43.932 228.776 45.2163C229.234 46.5006 228.959 47.8766 228.868 49.2526C228.685 51.3625 228.685 53.5641 229.509 55.5823C231.066 59.5269 235.37 61.8202 236.836 65.6731C237.477 67.3243 237.568 69.2507 238.21 70.9937C239.583 75.1217 243.613 78.0572 247.826 78.4241C252.039 78.7911 256.435 76.4977 258.816 72.9201C259.732 71.5441 260.373 69.9846 260.923 68.4251C261.472 66.8656 261.93 65.2144 261.93 63.5632C262.022 58.793 258.633 54.3897 254.512 52.0964C251.123 50.17 246.91 49.3444 244.346 46.4089C240.866 42.3725 241.507 35.8594 238.118 31.8231C235.004 28.062 229.234 27.5116 224.563 29.0711C221.633 29.8967 218.702 32.0066 217.969 35.1255Z" fill="#0B3B57"/>
<path d="M251.947 75.0301C251.673 72.645 248.101 72.4616 248.101 75.0301C247.918 87.3225 243.888 100.074 235.737 109.522C227.036 119.521 214.306 121.173 201.759 120.255C200.568 120.163 199.927 121.081 199.927 121.998C199.744 122.915 200.11 123.833 201.301 124.016C215.771 126.31 234.729 128.97 244.895 115.577C253.046 104.569 253.596 88.1481 251.947 75.0301Z" fill="#093B57"/>
<path d="M216.412 123.558C205.239 141.813 201.301 162.912 197.637 183.644C197.454 184.836 199.286 185.387 199.469 184.194C203.132 163.646 206.979 142.638 218.061 124.567C218.794 123.466 217.053 122.457 216.412 123.558Z" fill="#0B3B57"/>
<path d="M233.447 123.558C244.621 141.813 248.559 162.912 252.222 183.644C252.405 184.836 250.574 185.387 250.391 184.194C246.727 163.646 242.881 142.638 231.799 124.567C231.158 123.466 232.806 122.457 233.447 123.558Z" fill="#0B3B57"/>
<path d="M201.576 187.496C193.791 162.636 186.006 137.776 178.222 112.916C177.123 109.339 175.932 105.669 174.833 102.092C174.467 100.808 172.543 101.358 173.001 102.642C180.786 127.502 188.571 152.362 196.355 177.222C197.454 180.8 198.645 184.469 199.744 188.047C200.11 189.331 201.942 188.781 201.576 187.496Z" fill="#02073C"/>
<path d="M64.5643 188.047C72.3491 163.187 80.1338 138.327 87.9186 113.467C89.0176 109.889 90.2082 106.22 91.3072 102.642C91.6735 101.358 89.8418 100.716 89.4755 102.092C81.6908 126.952 73.906 151.812 66.1213 176.672C65.0223 180.25 63.8317 183.919 62.7326 187.497C62.2747 188.781 64.198 189.331 64.5643 188.047Z" fill="#02073C"/>
<path d="M198.645 103.284H64.6559C64.1064 103.284 63.6484 102.826 63.6484 102.275C63.6484 101.725 64.1064 101.266 64.6559 101.266H198.645C199.194 101.266 199.652 101.725 199.652 102.275C199.652 102.826 199.194 103.284 198.645 103.284Z" fill="#02073C"/>
</svg>
